<svg width="205" height="62" viewBox="0 0 205 62" fill="none" xmlns="http://www.w3.org/2000/svg">
<g clip-path="url(#clip0_89_963)">
<path d="M188.675 0.0002015H16.3341C15.7059 0.0002015 15.0853 0.0002015 14.4587 0.0033015C13.9342 0.0064015 13.414 0.015407 12.8844 0.0229865C11.7341 0.0352343 10.5865 0.1268 9.4515 0.296887C8.31814 0.470677 7.22028 0.798321 6.19505 1.26874C5.17108 1.74313 4.23545 2.35956 3.4221 3.09566C2.60447 3.82969 1.92292 4.67813 1.40365 5.60835C0.882947 6.53672 0.521888 7.53156 0.332947 8.5585C0.142208 9.58414 0.0395705 10.6216 0.0259539 11.6616C0.0100561 12.1368 0.0083772 12.6136 0 13.0889V48.916C0.0083772 49.3973 0.0100561 49.8635 0.0259539 50.345C0.0395747 51.3849 0.142213 52.4223 0.332947 53.4479C0.521367 54.4755 0.882447 55.4709 1.40365 56.3996C1.92269 57.3268 2.60433 58.1718 3.4221 58.9017C4.23236 59.6411 5.1686 60.258 6.19505 60.7287C7.22027 61.2004 8.31801 61.53 9.4515 61.7065C10.5867 61.8752 11.7342 61.9668 12.8844 61.9805C13.414 61.9911 13.9342 61.9971 14.4587 61.9971C15.0852 62.0002 15.706 62.0002 16.3341 62.0002H188.675C189.291 62.0002 189.916 62.0002 190.532 61.9971C191.054 61.9971 191.589 61.9911 192.111 61.9805C193.26 61.9675 194.405 61.8759 195.538 61.7065C196.675 61.5288 197.777 61.1993 198.807 60.7287C199.832 60.2577 200.768 59.6409 201.577 58.9017C202.393 58.1689 203.076 57.3246 203.601 56.3996C204.119 55.4702 204.476 54.4749 204.662 53.4479C204.853 52.4222 204.959 51.385 204.98 50.345C204.987 49.8635 204.987 49.3973 204.987 48.916C205 48.3529 205 47.7929 205 47.2206V14.7812C205 14.2136 205 13.6505 204.987 13.0889C204.987 12.6136 204.987 12.1368 204.98 11.6615C204.959 10.6215 204.853 9.58422 204.662 8.55843C204.476 7.53209 204.118 6.53733 203.601 5.60829C202.544 3.74376 200.867 2.22604 198.807 1.2686C197.777 0.799331 196.675 0.471774 195.538 0.296747C194.405 0.125911 193.26 0.0343135 192.111 0.0227695C191.589 0.0152055 191.054 0.0061225 190.532 0.0031C189.916 0 189.291 0 188.675 0V0.0002015Z" fill="#A6A6A6"/>
<path d="M14.4637 60.6437C13.9417 60.6437 13.4324 60.6377 12.9145 60.6271C11.8417 60.6145 10.7714 60.53 9.71245 60.3743C8.72498 60.2204 7.7684 59.9342 6.87424 59.5251C5.98828 59.1193 5.18022 58.5873 4.481 57.9493C3.77166 57.3189 3.1811 56.5877 2.73273 55.7848C2.27942 54.9766 1.9657 54.1103 1.8025 53.2161C1.62626 52.2553 1.53091 51.2837 1.51727 50.3099C1.50641 49.983 1.49219 48.8946 1.49219 48.8946V13.0887C1.49219 13.0887 1.50733 12.017 1.51735 11.7021C1.53042 10.7298 1.62522 9.75976 1.80093 8.80043C1.96443 7.90379 2.27839 7.03501 2.73195 6.22418C3.17867 5.42176 3.76595 4.69003 4.47101 4.05736C5.17528 3.41866 5.98593 2.88389 6.8734 2.47253C7.7655 2.0647 8.72028 1.78049 9.70575 1.62942C10.7682 1.4722 11.8422 1.3872 12.9187 1.37513L14.4645 1.3562H190.52L192.085 1.37589C193.151 1.38735 194.216 1.4716 195.268 1.6279C196.264 1.78086 197.228 2.06706 198.131 2.47707C199.909 3.30608 201.355 4.61765 202.268 6.22796C202.714 7.0332 203.023 7.89489 203.185 8.78379C203.363 9.75099 203.462 10.7286 203.483 11.709C203.488 12.1479 203.488 12.6194 203.488 13.0887C203.501 13.6699 203.501 14.2232 203.501 14.781V47.2204C203.501 47.7835 203.501 48.333 203.488 48.887C203.488 49.391 203.488 49.8528 203.481 50.328C203.461 51.2908 203.363 52.251 203.188 53.2009C203.028 54.1016 202.716 54.9746 202.263 55.7894C201.811 56.5837 201.224 57.3085 200.523 57.9372C199.823 58.5786 199.014 59.1138 198.126 59.5221C197.226 59.9344 196.263 60.2217 195.268 60.3743C194.209 60.5308 193.139 60.6153 192.066 60.6271C191.564 60.6377 191.039 60.6437 190.529 60.6437L188.672 60.6468L14.4637 60.6437Z" fill="black"/>
<path d="M49.5002 31.4661C49.5169 30.1723 49.8615 28.9039 50.502 27.7786C51.1424 26.6534 52.0579 25.708 53.1631 25.0304C52.461 24.0304 51.5347 23.2074 50.4578 22.6269C49.3809 22.0463 48.1831 21.7241 46.9595 21.686C44.3494 21.4128 41.8189 23.2435 40.4889 23.2435C39.1331 23.2435 37.0852 21.7131 34.88 21.7583C33.4536 21.8043 32.0635 22.2179 30.8451 22.9589C29.6266 23.6999 28.6215 24.743 27.9275 25.9865C24.9214 31.1766 27.1637 38.8042 30.0433 42.9995C31.484 45.0538 33.1678 47.3485 35.371 47.2671C37.527 47.1779 38.3322 45.8961 40.9347 45.8961C43.513 45.8961 44.2684 47.2671 46.5164 47.2153C48.8298 47.1779 50.2874 45.1519 51.6776 43.0782C52.7128 41.6144 53.5093 39.9966 54.0378 38.2848C52.6937 37.7179 51.5467 36.769 50.7398 35.5565C49.9329 34.3439 49.5018 32.9213 49.5002 31.4661Z" fill="white"/>
<path d="M45.2533 18.9269C46.5147 17.4169 47.1362 15.476 46.9857 13.5165C45.0585 13.7183 43.2784 14.6368 42 16.0889C41.3749 16.7983 40.8962 17.6235 40.5911 18.5175C40.2861 19.4115 40.1607 20.3567 40.2222 21.299C41.1862 21.3089 42.1398 21.1006 43.0112 20.6897C43.8827 20.2788 44.6493 19.6761 45.2533 18.9269Z" fill="white"/>
<path d="M76.7522 42.0665H69.3949L67.628 47.269H64.5117L71.4805 28.0211H74.7182L81.687 47.269H78.5176L76.7522 42.0665ZM70.1569 39.6658H75.9888L73.1138 31.2225H73.0334L70.1569 39.6658Z" fill="white"/>
<path d="M96.7365 40.2531C96.7365 44.614 94.3959 47.4158 90.8637 47.4158C89.9689 47.4625 89.0791 47.2569 88.296 46.8227C87.5129 46.3885 86.8683 45.7432 86.4359 44.9606H86.3691V51.9114H83.4805V33.2357H86.2765V35.5698H86.3297C86.7819 34.791 87.4374 34.149 88.2264 33.7121C89.0155 33.2753 89.9085 33.0599 90.8106 33.0889C94.3822 33.0889 96.7365 35.9043 96.7365 40.2531ZM93.7675 40.2531C93.7675 37.412 92.2951 35.5441 90.0485 35.5441C87.8415 35.5441 86.357 37.4513 86.357 40.2531C86.357 43.0807 87.8415 44.9743 90.0485 44.9743C92.2951 44.9743 93.7675 43.12 93.7675 40.2531Z" fill="white"/>
<path d="M112.225 40.2532C112.225 44.6141 109.884 47.4159 106.352 47.4159C105.457 47.4625 104.567 47.257 103.784 46.8228C103.001 46.3886 102.357 45.7432 101.924 44.9607H101.857V51.9114H98.9688V33.2358H101.765V35.5699H101.818C102.27 34.791 102.926 34.149 103.715 33.7122C104.504 33.2753 105.397 33.0599 106.299 33.089C109.871 33.089 112.225 35.9044 112.225 40.2532ZM109.256 40.2532C109.256 37.412 107.783 35.5441 105.537 35.5441C103.33 35.5441 101.845 37.4514 101.845 40.2532C101.845 43.0807 103.33 44.9743 105.537 44.9743C107.783 44.9743 109.256 43.1201 109.256 40.2532H109.256Z" fill="white"/>
<path d="M122.461 41.906C122.675 43.8148 124.534 45.068 127.075 45.068C129.51 45.068 131.262 43.8147 131.262 42.0937C131.262 40.5997 130.205 39.7051 127.704 39.092L125.202 38.4911C121.658 37.6374 120.012 35.9845 120.012 33.3022C120.012 29.9812 122.915 27.7001 127.036 27.7001C131.114 27.7001 133.911 29.9812 134.005 33.3022H131.089C130.914 31.3814 129.322 30.2219 126.995 30.2219C124.668 30.2219 123.076 31.395 123.076 33.1024C123.076 34.4632 124.093 35.264 126.58 35.8769L128.707 36.3976C132.667 37.3316 134.313 38.9179 134.313 41.7333C134.313 45.3344 131.436 47.5897 126.861 47.5897C122.581 47.5897 119.691 45.3873 119.504 41.9059L122.461 41.906Z" fill="white"/>
<path d="M140.55 29.9147V33.2357H143.226V35.5168H140.55V43.2532C140.55 44.4551 141.086 45.0151 142.262 45.0151C142.58 45.0096 142.897 44.9874 143.212 44.9485V47.216C142.684 47.3145 142.146 47.3591 141.608 47.3492C138.759 47.3492 137.648 46.282 137.648 43.5604V35.5168H135.602V33.2357H137.648V29.9147H140.55Z" fill="white"/>
<path d="M144.773 40.2531C144.773 35.8377 147.381 33.0632 151.448 33.0632C155.528 33.0632 158.124 35.8377 158.124 40.2531C158.124 44.6806 155.542 47.443 151.448 47.443C147.355 47.443 144.773 44.6806 144.773 40.2531ZM155.18 40.2531C155.18 37.2243 153.788 35.4366 151.448 35.4366C149.107 35.4366 147.717 37.2379 147.717 40.2531C147.717 43.2941 149.107 45.0681 151.448 45.0681C153.788 45.0681 155.18 43.2941 155.18 40.2531H155.18Z" fill="white"/>
<path d="M160.508 33.2357H163.263V35.6243H163.33C163.516 34.8783 163.954 34.219 164.571 33.7573C165.187 33.2956 165.944 33.0595 166.715 33.0889C167.048 33.0877 167.379 33.1238 167.704 33.1963V35.8907C167.284 35.7626 166.846 35.7038 166.406 35.7166C165.987 35.6996 165.568 35.7734 165.18 35.9329C164.792 36.0924 164.443 36.3338 164.157 36.6405C163.871 36.9472 163.655 37.312 163.523 37.7099C163.392 38.1077 163.349 38.5291 163.396 38.9453V47.2689H160.508L160.508 33.2357Z" fill="white"/>
<path d="M181.022 43.1473C180.634 45.6948 178.146 47.4431 174.963 47.4431C170.869 47.4431 168.328 44.7078 168.328 40.3197C168.328 35.918 170.883 33.0632 174.842 33.0632C178.735 33.0632 181.183 35.7303 181.183 39.9852V40.9721H171.244V41.1462C171.198 41.6626 171.263 42.1829 171.434 42.6725C171.606 43.162 171.879 43.6096 172.237 43.9856C172.595 44.3615 173.03 44.6572 173.511 44.853C173.992 45.0488 174.51 45.1401 175.03 45.1211C175.712 45.1849 176.397 45.0272 176.983 44.6716C177.568 44.3159 178.023 43.7813 178.28 43.1472L181.022 43.1473ZM171.258 38.9589H178.293C178.319 38.4945 178.249 38.0298 178.086 37.594C177.923 37.1581 177.672 36.7605 177.348 36.426C177.024 36.0916 176.634 35.8276 176.202 35.6505C175.771 35.4735 175.308 35.3873 174.842 35.3973C174.371 35.3945 173.905 35.4846 173.47 35.6624C173.034 35.8403 172.639 36.1023 172.305 36.4335C171.972 36.7646 171.708 37.1583 171.528 37.5917C171.348 38.0252 171.257 38.4898 171.258 38.9589V38.9589Z" fill="white"/>
<path d="M68.1053 17.4428H69.3454C69.5589 17.4693 69.7756 17.4514 69.9818 17.3903C70.188 17.3292 70.3793 17.2261 70.5436 17.0876C70.7079 16.9491 70.8416 16.7781 70.9364 16.5855C71.0311 16.3929 71.0848 16.1828 71.0941 15.9685C71.0941 15.1155 70.4505 14.5646 69.3591 14.5646C69.1404 14.5341 68.9178 14.5476 68.7044 14.6044C68.491 14.6611 68.2912 14.7599 68.1167 14.8949C67.9423 15.03 67.7967 15.1985 67.6886 15.3905C67.5806 15.5826 67.5122 15.7943 67.4875 16.0131H66.1259C66.1493 15.6159 66.2545 15.2277 66.4349 14.8727C66.6153 14.5177 66.8671 14.2036 67.1745 13.9499C67.4819 13.6961 67.8385 13.5082 68.2219 13.3978C68.6053 13.2874 69.0074 13.2569 69.4031 13.3082C71.2291 13.3082 72.5149 14.3277 72.5149 15.7952C72.5192 16.2868 72.3543 16.765 72.0476 17.15C71.741 17.535 71.3112 17.8034 70.83 17.9105V18.0195C71.4004 18.0447 71.9377 18.2942 72.3242 18.7132C72.7108 19.1323 72.9152 19.687 72.8929 20.256C72.8506 20.665 72.727 21.0615 72.5291 21.4223C72.3312 21.783 72.0631 22.1007 71.7405 22.3568C71.4179 22.6129 71.0472 22.8022 70.6503 22.9136C70.2534 23.025 69.8381 23.0563 69.4289 23.0055C69.0189 23.0613 68.6018 23.0341 68.2025 22.9257C67.8032 22.8173 67.4298 22.6298 67.1047 22.3744C66.7797 22.119 66.5095 21.8009 66.3103 21.4392C66.1111 21.0775 65.987 20.6794 65.9453 20.2688H67.3281C67.4116 21.1536 68.2268 21.7243 69.4289 21.7243C70.6311 21.7243 71.4159 21.0833 71.4159 20.1796C71.4159 19.2631 70.6767 18.6985 69.3849 18.6985H68.1053V17.4428Z" fill="white"/>
<path d="M74.4648 20.8077C74.4648 19.5514 75.4044 18.8271 77.0681 18.7241L78.964 18.6152V18.0127C78.964 17.2756 78.4767 16.8593 77.5311 16.8593C76.76 16.8593 76.2272 17.1416 76.0723 17.6351H74.735C74.8762 16.4362 76.0086 15.6673 77.5963 15.6673C79.351 15.6673 80.3407 16.5384 80.3407 18.0127V22.7815H79.0095V21.8007H78.9002C78.6784 22.1525 78.3669 22.4394 77.9975 22.6319C77.6282 22.8244 77.2142 22.9157 76.7979 22.8965C76.5041 22.927 76.2071 22.8958 75.9261 22.8048C75.6452 22.7138 75.3864 22.5651 75.1666 22.3683C74.9468 22.1715 74.7708 21.931 74.6499 21.6622C74.529 21.3934 74.466 21.1023 74.4648 20.8077ZM78.964 20.2113V19.6278L77.2547 19.7368C76.2908 19.8011 75.8537 20.1281 75.8537 20.7434C75.8537 21.3715 76.4001 21.7371 77.1516 21.7371C77.3717 21.7593 77.5941 21.7372 77.8055 21.6719C78.0169 21.6067 78.213 21.4997 78.3821 21.3574C78.5512 21.215 78.6899 21.0402 78.7898 20.8433C78.8898 20.6464 78.949 20.4315 78.964 20.2113Z" fill="white"/>
<path d="M84.0063 16.9614V22.7815H82.625V15.802H87.2335V16.9614L84.0063 16.9614Z" fill="white"/>
<path d="M95.6026 19.2887C95.6026 21.5062 94.4778 22.8965 92.7109 22.8965C92.2772 22.9261 91.8441 22.8314 91.4625 22.6237C91.0809 22.416 90.7667 22.1039 90.557 21.7242H90.4477V25.1019H89.0664V15.8019H90.3961V16.9554H90.4993C90.7128 16.5624 91.031 16.2359 91.4189 16.0119C91.8068 15.7879 92.2492 15.6752 92.6973 15.6862C94.4778 15.6861 95.6026 17.0704 95.6026 19.2887ZM94.1818 19.2887C94.1818 17.8144 93.482 16.9236 92.3117 16.9236C91.1491 16.9236 90.4219 17.8333 90.4219 19.2947C90.4219 20.7494 91.149 21.6599 92.3057 21.6599C93.482 21.6598 94.1818 20.769 94.1818 19.2887Z" fill="white"/>
<path d="M97.4439 25.2814V24.0954C97.5934 24.1143 97.744 24.1229 97.8947 24.1211C98.189 24.1429 98.481 24.0555 98.7146 23.8757C98.9483 23.6959 99.1071 23.4364 99.1607 23.1471L99.2639 22.8072L96.7305 15.802H98.2347L99.9895 21.3458H100.099L101.847 15.802H103.312L100.703 23.0699C100.105 24.7682 99.4431 25.3131 98.0162 25.3131C97.9008 25.3131 97.573 25.3003 97.4439 25.2814Z" fill="white"/>
<path d="M104.387 20.8009H105.762C105.897 21.4162 106.475 21.7371 107.284 21.7371C108.204 21.7371 108.769 21.3329 108.769 20.7048C108.769 20.0319 108.262 19.711 107.284 19.711H106.237V18.6409H107.266C108.101 18.6409 108.526 18.3207 108.526 17.7372C108.526 17.2248 108.115 16.8336 107.266 16.8336C106.494 16.8336 105.929 17.1605 105.839 17.7115H104.508C104.608 17.0784 104.952 16.5095 105.468 16.1272C105.984 15.745 106.63 15.5798 107.266 15.6673C108.93 15.6673 109.882 16.4173 109.882 17.5965C109.889 17.9248 109.784 18.2459 109.583 18.506C109.382 18.7661 109.097 18.9494 108.777 19.0254V19.1344C109.158 19.1834 109.508 19.3705 109.761 19.6599C110.013 19.9494 110.15 20.3212 110.146 20.7048C110.146 22.0316 109.013 22.9094 107.284 22.9094C105.756 22.9094 104.514 22.2108 104.387 20.8009Z" fill="white"/>
<path d="M112.137 22.7815V15.802H113.506V20.6026H113.615L116.841 15.802H118.21V22.7815H116.841V17.9552H116.738L113.506 22.7815L112.137 22.7815Z" fill="white"/>
<path d="M125.752 16.9615H123.548V22.7815H122.165V16.9615H119.961V15.8021H125.752V16.9615Z" fill="white"/>
<path d="M133.192 20.897C133.004 21.5348 132.597 22.0865 132.042 22.4556C131.487 22.8246 130.82 22.9877 130.158 22.9162C129.696 22.9283 129.238 22.8403 128.815 22.6581C128.391 22.4759 128.012 22.204 127.705 21.8613C127.397 21.5185 127.168 21.1131 127.033 20.6732C126.898 20.2332 126.861 19.7693 126.924 19.3137C126.863 18.8566 126.901 18.3917 127.035 17.9505C127.17 17.5092 127.398 17.1019 127.704 16.7562C128.01 16.4104 128.386 16.1342 128.809 15.9464C129.231 15.7585 129.689 15.6633 130.151 15.6672C132.099 15.6672 133.275 16.994 133.275 19.1857V19.6664H128.333V19.7436C128.311 19.9998 128.343 20.2577 128.427 20.5008C128.511 20.7438 128.645 20.9667 128.821 21.155C128.996 21.3433 129.21 21.4929 129.447 21.5942C129.684 21.6955 129.939 21.7462 130.197 21.7431C130.527 21.7824 130.862 21.723 131.158 21.5724C131.454 21.4217 131.699 21.1866 131.861 20.8969L133.192 20.897ZM128.333 18.6477H131.867C131.884 18.4135 131.852 18.1784 131.773 17.9572C131.694 17.7361 131.57 17.5339 131.407 17.3636C131.245 17.1934 131.049 17.0588 130.832 16.9685C130.615 16.8783 130.381 16.8344 130.145 16.8396C129.906 16.8363 129.669 16.8809 129.448 16.9706C129.226 17.0604 129.025 17.1934 128.856 17.362C128.687 17.5305 128.554 17.7312 128.464 17.952C128.374 18.1728 128.33 18.4094 128.333 18.6477H128.333Z" fill="white"/>
<path d="M139.051 15.802H142.207C143.576 15.802 144.379 16.4937 144.379 17.5767C144.381 17.9204 144.265 18.2543 144.049 18.5227C143.834 18.7911 143.533 18.9776 143.196 19.051V19.16C143.605 19.1858 143.988 19.3671 144.267 19.6665C144.545 19.966 144.698 20.3607 144.693 20.7691C144.693 21.9868 143.775 22.7815 142.238 22.7815H139.051V15.802ZM140.42 16.8593V18.6666H141.789C142.624 18.6666 143.023 18.3464 143.023 17.7561C143.023 17.2119 142.676 16.8593 141.942 16.8593L140.42 16.8593ZM140.42 19.6792V21.7242H142.058C142.874 21.7242 143.312 21.3647 143.312 20.7048C143.312 20.0062 142.817 19.6793 141.885 19.6793L140.42 19.6792Z" fill="white"/>
</g>
<defs>
<clipPath id="clip0_89_963">
<rect width="205" height="62" fill="white"/>
</clipPath>
</defs>
</svg>
