<svg width="164" height="55" viewBox="0 0 164 55" fill="none" xmlns="http://www.w3.org/2000/svg">
<g clip-path="url(#clip0_89_1850)">
<path d="M150.94 5.66797e-05H13.0673C12.5647 5.66797e-05 12.0682 5.66798e-05 11.567 0.00280668C11.1474 0.00555668 10.7312 0.0135454 10.3076 0.0202692C9.38728 0.0311342 8.46917 0.112362 7.5612 0.263245C6.65451 0.417414 5.77622 0.708066 4.95604 1.12537C4.13686 1.54621 3.38836 2.09304 2.73768 2.74603C2.08358 3.39718 1.53834 4.14983 1.12292 4.97503C0.706358 5.79858 0.417511 6.6811 0.266357 7.59209C0.113767 8.50194 0.0316564 9.42227 0.0207631 10.3448C0.00804486 10.7664 0.00670176 11.1894 0 11.611V43.3931C0.00670176 43.8201 0.00804486 44.2337 0.0207631 44.6607C0.0316597 45.5833 0.11377 46.5036 0.266357 47.4134C0.417093 48.3249 0.705957 49.2079 1.12292 50.0318C1.53815 50.8543 2.08347 51.6039 2.73768 52.2514C3.38589 52.9073 4.13488 53.4545 4.95604 53.8721C5.77622 54.2906 6.65441 54.5829 7.5612 54.7395C8.46933 54.8892 9.38734 54.9704 10.3076 54.9826C10.7312 54.9919 11.1474 54.9973 11.567 54.9973C12.0682 55.0001 12.5648 55.0001 13.0673 55.0001H150.94C151.433 55.0001 151.933 55.0001 152.426 54.9973C152.843 54.9973 153.272 54.9919 153.689 54.9826C154.608 54.9711 155.524 54.8898 156.43 54.7395C157.34 54.5818 158.221 54.2895 159.045 53.8721C159.866 53.4543 160.614 52.9071 161.262 52.2514C161.914 51.6014 162.461 50.8523 162.881 50.0318C163.295 49.2073 163.581 48.3244 163.73 47.4134C163.882 46.5034 163.967 45.5833 163.984 44.6607C163.989 44.2337 163.989 43.8201 163.989 43.3931C164 42.8936 164 42.3968 164 41.8892V13.1122C164 12.6087 164 12.1092 163.989 11.611C163.989 11.1894 163.989 10.7664 163.984 10.3448C163.967 9.42214 163.882 8.50201 163.73 7.59204C163.581 6.68157 163.295 5.79912 162.881 4.97497C162.035 3.32095 160.694 1.97459 159.045 1.12525C158.221 0.708962 157.34 0.418387 156.43 0.263122C155.524 0.111573 154.608 0.0303174 153.689 0.0200767C153.272 0.0133667 152.843 0.00530918 152.426 0.00262793C151.933 -0.00012207 151.433 -0.00012207 150.94 -0.00012207V5.66797e-05Z" fill="black"/>
<path d="M11.5739 53.7969C11.1563 53.7969 10.7488 53.7915 10.3345 53.7822C9.47629 53.7709 8.62006 53.696 7.77286 53.5579C6.98289 53.4214 6.21762 53.1675 5.5023 52.8045C4.79353 52.4446 4.14708 51.9726 3.5877 51.4067C3.02023 50.8475 2.54779 50.1988 2.18909 49.4865C1.82644 48.7696 1.57547 48.0011 1.44491 47.2079C1.30392 46.3555 1.22763 45.4937 1.21672 44.6298C1.20803 44.3398 1.19666 43.3742 1.19666 43.3742V11.611C1.19666 11.611 1.20877 10.6603 1.21679 10.381C1.22724 9.51841 1.30308 8.6579 1.44365 7.80688C1.57445 7.01147 1.82562 6.24078 2.18846 5.52149C2.54584 4.80967 3.01566 4.16056 3.57971 3.59931C4.14313 3.03273 4.79165 2.55833 5.50163 2.19341C6.21531 1.83163 6.97913 1.57951 7.76751 1.4455C8.61749 1.30602 9.47669 1.23062 10.3379 1.21991L11.5745 1.20312H152.419L153.671 1.22059C154.524 1.23076 155.375 1.30549 156.218 1.44415C157.014 1.57984 157.786 1.83372 158.507 2.19744C159.93 2.93286 161.087 4.09635 161.817 5.52485C162.174 6.23917 162.422 7.00357 162.551 7.79211C162.693 8.65011 162.773 9.51739 162.789 10.387C162.793 10.7764 162.793 11.1947 162.793 11.611C162.804 12.1266 162.804 12.6174 162.804 13.1122V41.8891C162.804 42.3886 162.804 42.8761 162.793 43.3675C162.793 43.8147 162.793 44.2243 162.788 44.6458C162.772 45.5 162.693 46.3518 162.553 47.1944C162.425 47.9934 162.176 48.7678 161.813 49.4907C161.452 50.1952 160.982 50.8382 160.421 51.396C159.862 51.9649 159.214 52.4397 158.504 52.8019C157.784 53.1677 157.013 53.4225 156.218 53.5579C155.37 53.6967 154.514 53.7717 153.656 53.7822C153.254 53.7915 152.834 53.7969 152.426 53.7969L150.94 53.7996L11.5739 53.7969Z" fill="white"/>
<path d="M34.258 27.3479C34.2733 26.1545 34.5893 24.9843 35.1765 23.9463C35.7637 22.9083 36.6031 22.0361 37.6166 21.411C36.9727 20.4886 36.1234 19.7294 35.136 19.1938C34.1486 18.6583 33.0503 18.3611 31.9284 18.3259C29.5352 18.0738 27.2151 19.7626 25.9955 19.7626C24.7524 19.7626 22.8747 18.3509 20.8527 18.3926C19.5449 18.435 18.2703 18.8166 17.1531 19.5001C16.036 20.1837 15.1143 21.1459 14.478 22.2931C11.7218 27.0808 13.7777 34.1173 16.418 37.9873C17.739 39.8824 19.2828 41.9992 21.303 41.9242C23.2798 41.8419 24.0181 40.6595 26.4043 40.6595C28.7683 40.6595 29.461 41.9242 31.5221 41.8764C33.6433 41.8419 34.9798 39.973 36.2544 38.06C37.2036 36.7097 37.9339 35.2173 38.4185 33.6381C37.1861 33.1152 36.1344 32.2398 35.3946 31.1213C34.6547 30.0027 34.2595 28.6904 34.258 27.3479Z" fill="black"/>
<path d="M30.365 15.7807C31.5215 14.3877 32.0913 12.5972 31.9534 10.7896C30.1864 10.9757 28.5542 11.823 27.382 13.1626C26.8089 13.8169 26.3699 14.5783 26.0902 15.403C25.8105 16.2277 25.6956 17.0996 25.752 17.9689C26.6358 17.978 27.5101 17.7858 28.3092 17.4068C29.1082 17.0277 29.8111 16.4717 30.365 15.7807V15.7807Z" fill="black"/>
<path d="M57.9748 37.3171H51.4877L49.9298 41.9322H47.1821L53.3266 24.8574H56.1814L62.3259 41.9322H59.5314L57.9748 37.3171ZM52.1596 35.1874H57.3017L54.7668 27.6974H54.6958L52.1596 35.1874Z" fill="black"/>
<path d="M75.5961 35.7084C75.5961 39.577 73.5323 42.0624 70.4179 42.0624C69.629 42.1038 68.8443 41.9215 68.1539 41.5363C67.4634 41.1511 66.8951 40.5786 66.5138 39.8844H66.4549V46.0504H63.908V29.4833H66.3733V31.5539H66.4201C66.8189 30.863 67.3968 30.2935 68.0925 29.9059C68.7883 29.5184 69.5757 29.3273 70.371 29.3531C73.5203 29.3531 75.5961 31.8506 75.5961 35.7084ZM72.9782 35.7084C72.9782 33.188 71.68 31.5311 69.6992 31.5311C67.7532 31.5311 66.4442 33.2229 66.4442 35.7084C66.4442 38.2167 67.7532 39.8965 69.6992 39.8965C71.68 39.8965 72.9782 38.2516 72.9782 35.7084H72.9782Z" fill="black"/>
<path d="M89.2535 35.7084C89.2535 39.577 87.189 42.0624 84.0746 42.0624C83.2857 42.1038 82.5011 41.9215 81.8106 41.5363C81.1202 41.1511 80.5518 40.5786 80.1706 39.8844H80.1116V46.0504H77.5647V29.4833H80.03V31.5539H80.0768C80.4756 30.863 81.0536 30.2935 81.7493 29.9059C82.445 29.5184 83.2324 29.3273 84.0277 29.3531C87.177 29.3531 89.2535 31.8506 89.2535 35.7084ZM86.635 35.7084C86.635 33.188 85.3367 31.5311 83.3559 31.5311C81.4099 31.5311 80.101 33.2229 80.101 35.7084C80.101 38.2167 81.4099 39.8965 83.3559 39.8965C85.3367 39.8965 86.635 38.2516 86.635 35.7084V35.7084Z" fill="black"/>
<path d="M98.2781 37.1747C98.4668 38.8679 100.106 39.9797 102.347 39.9797C104.494 39.9797 106.038 38.8679 106.038 37.3411C106.038 36.0158 105.107 35.2223 102.901 34.6784L100.695 34.1453C97.5701 33.388 96.1193 31.9217 96.1193 29.5423C96.1193 26.5963 98.6783 24.5727 102.311 24.5727C105.908 24.5727 108.374 26.5963 108.457 29.5423H105.885C105.732 27.8383 104.328 26.8098 102.276 26.8098C100.224 26.8098 98.8202 27.8504 98.8202 29.3651C98.8202 30.5722 99.7169 31.2825 101.91 31.8263L103.786 32.2882C107.277 33.1167 108.727 34.524 108.727 37.0215C108.727 40.216 106.192 42.2167 102.158 42.2167C98.3838 42.2167 95.8355 40.263 95.6709 37.1746L98.2781 37.1747Z" fill="black"/>
<path d="M114.226 26.5372V29.4833H116.586V31.5068H114.226V38.3698C114.226 39.4359 114.699 39.9327 115.736 39.9327C116.016 39.9278 116.296 39.9081 116.574 39.8736V41.8851C116.107 41.9725 115.633 42.0121 115.159 42.0033C112.647 42.0033 111.667 41.0566 111.667 38.6423V31.5068H109.863V29.4833H111.667V26.5372H114.226Z" fill="black"/>
<path d="M117.951 35.7084C117.951 31.7916 120.25 29.3303 123.836 29.3303C127.434 29.3303 129.722 31.7915 129.722 35.7084C129.722 39.636 127.446 42.0866 123.836 42.0866C120.228 42.0866 117.951 39.636 117.951 35.7084ZM127.127 35.7084C127.127 33.0215 125.9 31.4357 123.836 31.4357C121.772 31.4357 120.545 33.0336 120.545 35.7084C120.545 38.4061 121.772 39.9798 123.836 39.9798C125.9 39.9798 127.127 38.4061 127.127 35.7084H127.127Z" fill="black"/>
<path d="M131.822 29.4833H134.251V31.6022H134.31C134.474 30.9404 134.861 30.3556 135.404 29.946C135.948 29.5364 136.615 29.327 137.295 29.3531C137.588 29.352 137.881 29.384 138.167 29.4484V31.8385C137.797 31.7249 137.41 31.6728 137.023 31.6841C136.653 31.6691 136.284 31.7345 135.942 31.876C135.599 32.0174 135.291 32.2316 135.039 32.5037C134.787 32.7758 134.597 33.0994 134.481 33.4523C134.365 33.8052 134.327 34.1791 134.369 34.5482V41.9322H131.822L131.822 29.4833Z" fill="black"/>
<path d="M149.91 38.2758C149.568 40.5357 147.374 42.0866 144.568 42.0866C140.958 42.0866 138.718 39.6602 138.718 35.7675C138.718 31.8627 140.97 29.3303 144.461 29.3303C147.893 29.3303 150.052 31.6962 150.052 35.4708V36.3463H141.289V36.5007C141.248 36.9588 141.305 37.4204 141.456 37.8546C141.607 38.2889 141.849 38.686 142.164 39.0195C142.48 39.353 142.863 39.6153 143.287 39.789C143.712 39.9626 144.168 40.0437 144.627 40.0268C145.228 40.0834 145.832 39.9435 146.349 39.628C146.865 39.3125 147.266 38.8383 147.492 38.2758L149.91 38.2758ZM141.301 34.5604H147.504C147.527 34.1484 147.465 33.7362 147.321 33.3495C147.178 32.9629 146.956 32.6101 146.67 32.3134C146.385 32.0168 146.041 31.7825 145.66 31.6255C145.28 31.4684 144.872 31.392 144.461 31.4008C144.046 31.3983 143.635 31.4783 143.251 31.6361C142.867 31.7938 142.518 32.0263 142.224 32.32C141.931 32.6138 141.698 32.963 141.539 33.3475C141.381 33.732 141.3 34.1442 141.301 34.5604V34.5604Z" fill="black"/>
<path d="M50.3501 15.4735H51.4435C51.6318 15.497 51.8228 15.4811 52.0046 15.4269C52.1864 15.3727 52.3551 15.2812 52.5 15.1584C52.6448 15.0355 52.7627 14.8838 52.8463 14.713C52.9298 14.5421 52.9772 14.3557 52.9853 14.1656C52.9853 13.409 52.4179 12.9202 51.4556 12.9202C51.2627 12.8932 51.0664 12.9052 50.8783 12.9555C50.6901 13.0058 50.5139 13.0935 50.3601 13.2133C50.2063 13.3331 50.078 13.4825 49.9827 13.6529C49.8874 13.8233 49.8271 14.0111 49.8053 14.2052H48.6048C48.6254 13.8528 48.7182 13.5084 48.8773 13.1936C49.0363 12.8787 49.2583 12.6 49.5294 12.3749C49.8004 12.1498 50.1148 11.9831 50.4528 11.8852C50.7909 11.7873 51.1454 11.7602 51.4944 11.8057C53.1044 11.8057 54.2381 12.71 54.2381 14.0119C54.2419 14.448 54.0964 14.8722 53.8261 15.2137C53.5557 15.5552 53.1767 15.7934 52.7525 15.8884V15.9851C53.2554 16.0075 53.7291 16.2287 54.07 16.6005C54.4108 16.9722 54.5911 17.4643 54.5713 17.969C54.5341 18.3319 54.4251 18.6836 54.2506 19.0036C54.0761 19.3237 53.8397 19.6055 53.5553 19.8327C53.2708 20.0599 52.944 20.2278 52.594 20.3266C52.2441 20.4254 51.8779 20.4531 51.5171 20.4082C51.1556 20.4576 50.7878 20.4335 50.4357 20.3373C50.0837 20.2411 49.7545 20.0748 49.4679 19.8483C49.1812 19.6217 48.943 19.3396 48.7673 19.0187C48.5917 18.6978 48.4823 18.3447 48.4456 17.9804H49.6648C49.7384 18.7653 50.4572 19.2716 51.5171 19.2716C52.5771 19.2716 53.2691 18.7029 53.2691 17.9013C53.2691 17.0882 52.6173 16.5874 51.4783 16.5874H50.3501V15.4735Z" fill="black"/>
<path d="M55.9565 18.4584C55.9565 17.3439 56.785 16.7014 58.2519 16.6101L59.9235 16.5134V15.979C59.9235 15.3251 59.4939 14.9558 58.6601 14.9558C57.9802 14.9558 57.5104 15.2062 57.3739 15.644H56.1948C56.3192 14.5805 57.3177 13.8984 58.7176 13.8984C60.2648 13.8984 61.1374 14.6711 61.1374 15.979V20.2094H59.9637V19.3393H59.8673C59.6717 19.6514 59.3971 19.9058 59.0714 20.0766C58.7457 20.2474 58.3807 20.3284 58.0136 20.3114C57.7546 20.3385 57.4927 20.3107 57.245 20.23C56.9973 20.1493 56.7691 20.0174 56.5753 19.8428C56.3815 19.6682 56.2263 19.4548 56.1197 19.2164C56.0132 18.978 55.9576 18.7197 55.9565 18.4584V18.4584ZM59.9235 17.9294V17.4117L58.4164 17.5084C57.5666 17.5655 57.1811 17.8555 57.1811 18.4013C57.1811 18.9586 57.6629 19.2829 58.3255 19.2829C58.5196 19.3026 58.7157 19.2829 58.9021 19.2251C59.0885 19.1672 59.2614 19.0723 59.4105 18.946C59.5596 18.8197 59.6818 18.6647 59.77 18.49C59.8581 18.3153 59.9103 18.1247 59.9235 17.9294V17.9294Z" fill="black"/>
<path d="M64.3695 15.0465V20.2094H63.1516V14.0179H67.215V15.0464L64.3695 15.0465Z" fill="black"/>
<path d="M74.5963 17.111C74.5963 19.0782 73.6046 20.3115 72.0467 20.3115C71.6643 20.3377 71.2824 20.2538 70.9459 20.0695C70.6094 19.8853 70.3325 19.6084 70.1476 19.2715H70.0512V22.2679H68.8333V14.0179H70.0057V15.0412H70.0967C70.2849 14.6925 70.5655 14.4029 70.9075 14.2042C71.2495 14.0055 71.6396 13.9055 72.0347 13.9153C73.6046 13.9152 74.5963 15.1432 74.5963 17.111ZM73.3436 17.111C73.3436 15.8032 72.7266 15.0129 71.6947 15.0129C70.6696 15.0129 70.0284 15.8199 70.0284 17.1164C70.0284 18.4068 70.6695 19.2145 71.6894 19.2145C72.7266 19.2145 73.3436 18.4242 73.3436 17.111Z" fill="black"/>
<path d="M76.2182 22.427V21.3749C76.35 21.3917 76.4828 21.3994 76.6156 21.3978C76.8751 21.4171 77.1326 21.3395 77.3386 21.18C77.5446 21.0206 77.6846 20.7904 77.7319 20.5337L77.8229 20.2322L75.5891 14.0179H76.9154L78.4627 18.9358H78.559L80.1008 14.0179H81.3924L79.0917 20.4652C78.5644 21.9718 77.9809 22.4552 76.7228 22.4552C76.6211 22.4552 76.332 22.4438 76.2182 22.427Z" fill="black"/>
<path d="M82.3413 18.4524H83.5539C83.673 18.9983 84.183 19.2829 84.8963 19.2829C85.7073 19.2829 86.2052 18.9244 86.2052 18.3672C86.2052 17.7703 85.7582 17.4856 84.8963 17.4856H83.9728V16.5363H84.8802C85.6163 16.5363 85.9911 16.2523 85.9911 15.7347C85.9911 15.2801 85.6284 14.933 84.8802 14.933C84.199 14.933 83.7011 15.2231 83.6221 15.7119H82.4484C82.5361 15.1502 82.8401 14.6456 83.2949 14.3065C83.7496 13.9673 84.3189 13.8208 84.8802 13.8984C86.3471 13.8984 87.1863 14.5638 87.1863 15.6098C87.1931 15.9011 87.1001 16.1859 86.9227 16.4166C86.7454 16.6474 86.4944 16.81 86.2119 16.8774V16.9741C86.5483 17.0176 86.857 17.1835 87.0796 17.4403C87.3021 17.6971 87.4229 18.0269 87.4191 18.3672C87.4191 19.5442 86.4207 20.3229 84.8963 20.3229C83.5485 20.3229 82.4537 19.7032 82.3413 18.4524Z" fill="black"/>
<path d="M89.1731 20.2094V14.0179H90.3803V18.2765H90.4767L93.3207 14.0179H94.528V20.2094H93.3207V15.928H93.2297L90.3803 20.2094L89.1731 20.2094Z" fill="black"/>
<path d="M101.178 15.0464H99.2349V20.2094H98.0156V15.0464H96.0723V14.0179H101.178V15.0464Z" fill="black"/>
<path d="M107.739 18.5376C107.573 19.1035 107.214 19.5929 106.725 19.9203C106.236 20.2477 105.648 20.3923 105.064 20.3289C104.657 20.3397 104.253 20.2615 103.88 20.0999C103.506 19.9383 103.172 19.6971 102.901 19.3931C102.63 19.089 102.428 18.7294 102.309 18.3391C102.19 17.9488 102.157 17.5373 102.213 17.1331C102.159 16.7276 102.192 16.3152 102.311 15.9238C102.429 15.5324 102.63 15.1711 102.9 14.8643C103.17 14.5576 103.502 14.3126 103.875 14.146C104.247 13.9793 104.651 13.8949 105.058 13.8984C106.776 13.8984 107.813 15.0754 107.813 17.0196V17.446H103.455V17.5145C103.436 17.7417 103.464 17.9705 103.538 18.1862C103.612 18.4018 103.731 18.5995 103.885 18.7665C104.04 18.9336 104.228 19.0663 104.437 19.1561C104.646 19.246 104.871 19.291 105.099 19.2882C105.39 19.3231 105.685 19.2704 105.946 19.1368C106.207 19.0031 106.423 18.7946 106.566 18.5376L107.739 18.5376ZM103.455 16.5423H106.571C106.586 16.3346 106.558 16.126 106.488 15.9298C106.419 15.7336 106.309 15.5543 106.166 15.4032C106.023 15.2522 105.85 15.1328 105.658 15.0527C105.467 14.9727 105.261 14.9337 105.053 14.9384C104.842 14.9355 104.633 14.975 104.438 15.0546C104.243 15.1342 104.065 15.2522 103.917 15.4018C103.768 15.5513 103.65 15.7293 103.571 15.9252C103.491 16.1211 103.452 16.3309 103.455 16.5423H103.455Z" fill="black"/>
<path d="M112.903 14.0179H115.685C116.892 14.0179 117.6 14.6315 117.6 15.5923C117.602 15.8971 117.5 16.1934 117.31 16.4314C117.12 16.6695 116.855 16.835 116.558 16.9001V16.9968C116.918 17.0196 117.256 17.1805 117.502 17.4461C117.747 17.7118 117.882 18.0619 117.877 18.4242C117.877 19.5044 117.068 20.2094 115.713 20.2094H112.903V14.0179ZM114.11 14.9558V16.5591H115.317C116.053 16.5591 116.405 16.2751 116.405 15.7514C116.405 15.2687 116.099 14.9558 115.452 14.9558L114.11 14.9558ZM114.11 17.4574V19.2715H115.554C116.274 19.2715 116.659 18.9526 116.659 18.3671C116.659 17.7475 116.223 17.4574 115.401 17.4574L114.11 17.4574Z" fill="black"/>
</g>
<defs>
<clipPath id="clip0_89_1850">
<rect width="164" height="55" fill="white"/>
</clipPath>
</defs>
</svg>
