<svg width="1232" height="627" viewBox="0 0 1232 627" fill="none" xmlns="http://www.w3.org/2000/svg">
<path d="M714.045 148C714.045 149.4 714.845 150.8 715.545 152C716.545 153.9 717.145 155.1 716.545 156.1L718.045 157.1C719.345 155.1 718.145 153 717.145 151.2C716.145 149.3 715.545 148.1 716.145 147.1C716.845 146.1 718.145 146.1 720.245 146.4C722.345 146.6 724.745 146.8 726.045 144.9C727.345 142.9 726.145 140.8 725.145 139C724.145 137.1 723.545 135.9 724.145 134.9C724.845 133.9 726.145 133.9 728.245 134.2C730.345 134.4 732.745 134.6 734.045 132.7C735.345 130.7 734.145 128.6 733.145 126.8C732.145 124.9 731.545 123.7 732.145 122.7C732.845 121.7 734.145 121.7 736.245 122C738.345 122.2 740.745 122.4 742.045 120.5C743.345 118.5 742.145 116.4 741.145 114.6C740.145 112.7 739.545 111.5 740.145 110.5C740.845 109.5 742.145 109.5 744.245 109.8C746.345 110 748.745 110.2 750.045 108.3C751.345 106.3 750.145 104.2 749.145 102.4C748.145 100.5 747.545 99.2997 748.145 98.2997C748.845 97.2997 750.145 97.2997 752.245 97.4997C754.345 97.6997 756.745 97.8997 758.045 95.9997L756.545 94.9997C755.845 95.9997 754.545 95.9997 752.445 95.7997C750.345 95.5997 747.945 95.3997 746.645 97.2997C745.345 99.2997 746.545 101.4 747.545 103.2C748.545 105.1 749.145 106.3 748.545 107.3C747.845 108.3 746.545 108.3 744.445 108C742.345 107.8 739.945 107.6 738.645 109.5C737.345 111.5 738.545 113.6 739.545 115.4C740.545 117.3 741.145 118.5 740.545 119.5C739.845 120.5 738.545 120.5 736.445 120.2C734.345 120 731.945 119.8 730.645 121.7C729.345 123.7 730.545 125.8 731.545 127.6C732.545 129.5 733.145 130.7 732.545 131.7C731.845 132.7 730.545 132.7 728.445 132.4C726.345 132.2 723.945 132 722.645 133.9C721.345 135.9 722.545 138 723.545 139.8C724.545 141.7 725.145 142.9 724.545 143.9C723.845 144.9 722.545 144.9 720.445 144.6C718.345 144.4 715.945 144.2 714.645 146.1C714.245 146.8 714.045 147.4 714.045 148Z" fill="#1090CB" fill-opacity="0.33"/>
<path d="M563.045 483C563.045 484.4 563.845 485.8 564.545 487C565.545 488.9 566.145 490.1 565.545 491.1L567.045 492.1C568.345 490.1 567.145 488 566.145 486.2C565.145 484.3 564.545 483.1 565.145 482.1C565.845 481.1 567.145 481.1 569.245 481.4C571.345 481.6 573.745 481.8 575.045 479.9C576.345 477.9 575.145 475.8 574.145 474C573.145 472.1 572.545 470.9 573.145 469.9C573.845 468.9 575.145 468.9 577.245 469.2C579.345 469.4 581.745 469.6 583.045 467.7C584.345 465.7 583.145 463.6 582.145 461.8C581.145 459.9 580.545 458.7 581.145 457.7C581.845 456.7 583.145 456.7 585.245 457C587.345 457.2 589.745 457.4 591.045 455.5C592.345 453.5 591.145 451.4 590.145 449.6C589.145 447.7 588.545 446.5 589.145 445.5C589.845 444.5 591.145 444.5 593.245 444.8C595.345 445 597.745 445.2 599.045 443.3C600.345 441.3 599.145 439.2 598.145 437.4C597.145 435.5 596.545 434.3 597.145 433.3C597.845 432.3 599.145 432.3 601.245 432.5C603.345 432.7 605.745 432.9 607.045 431L605.545 430C604.845 431 603.545 431 601.445 430.8C599.345 430.6 596.945 430.4 595.645 432.3C594.345 434.3 595.545 436.4 596.545 438.2C597.545 440.1 598.145 441.3 597.545 442.3C596.845 443.3 595.545 443.3 593.445 443C591.345 442.8 588.945 442.6 587.645 444.5C586.345 446.5 587.545 448.6 588.545 450.4C589.545 452.3 590.145 453.5 589.545 454.5C588.845 455.5 587.545 455.5 585.445 455.2C583.345 455 580.945 454.8 579.645 456.7C578.345 458.7 579.545 460.8 580.545 462.6C581.545 464.5 582.145 465.7 581.545 466.7C580.845 467.7 579.545 467.7 577.445 467.4C575.345 467.2 572.945 467 571.645 468.9C570.345 470.9 571.545 473 572.545 474.8C573.545 476.7 574.145 477.9 573.545 478.9C572.845 479.9 571.545 479.9 569.445 479.6C567.345 479.4 564.945 479.2 563.645 481.1C563.245 481.8 563.045 482.4 563.045 483Z" fill="#1090CB" fill-opacity="0.33"/>
<path d="M245.627 76.2978C244.46 77.0717 243.735 78.5123 243.122 79.759C242.092 81.6426 241.424 82.806 240.259 82.8588L240.254 84.6615C242.64 84.6393 243.726 82.4784 244.674 80.6501C245.704 78.7664 246.372 77.6031 247.537 77.5503C248.758 77.5808 249.476 78.6641 250.387 80.5799C251.381 82.4405 252.541 84.551 254.843 84.584C257.229 84.5617 258.315 82.4009 259.262 80.5725C260.293 78.6889 260.961 77.5256 262.126 77.4728C263.346 77.5033 264.065 78.5866 264.976 80.5024C265.97 82.3629 267.13 84.4735 269.432 84.5065C271.817 84.4842 272.904 82.3234 273.851 80.495C274.882 78.6114 275.55 77.448 276.715 77.3952C277.935 77.4258 278.654 78.5091 279.565 80.4249C280.559 82.2854 281.719 84.3959 284.021 84.4289C286.406 84.4067 287.493 82.2458 288.44 80.4175C289.471 78.5339 290.139 77.3705 291.304 77.3177C292.524 77.3482 293.243 78.4315 294.154 80.3473C295.148 82.2078 296.308 84.3184 298.61 84.3514C300.995 84.3291 302.082 82.1683 303.029 80.3399C304.059 78.4563 304.728 77.293 305.893 77.2402C307.113 77.2707 307.832 78.354 308.826 80.2145C309.82 82.075 310.98 84.1856 313.282 84.2186L313.286 82.4158C312.066 82.3853 311.347 81.302 310.353 79.4414C309.359 77.5809 308.199 75.4704 305.897 75.4374C303.512 75.4597 302.425 77.6205 301.478 79.4489C300.447 81.3325 299.779 82.4958 298.614 82.5486C297.394 82.5181 296.675 81.4348 295.764 79.519C294.77 77.6584 293.61 75.5479 291.308 75.5149C288.923 75.5372 287.836 77.6981 286.889 79.5264C285.858 81.41 285.19 82.5734 284.025 82.6262C282.805 82.5956 282.086 81.5123 281.175 79.5965C280.181 77.736 279.021 75.6255 276.719 75.5925C274.334 75.6147 273.247 77.7756 272.3 79.6039C271.27 81.4875 270.601 82.6509 269.436 82.7037C268.216 82.6732 267.497 81.5899 266.586 79.674C265.592 77.8135 264.432 75.703 262.13 75.67C259.745 75.6923 258.658 77.8531 257.711 79.6815C256.681 81.5651 256.012 82.7284 254.847 82.7812C253.627 82.7507 252.909 81.6674 251.998 79.7516C251.003 77.891 249.843 75.7805 247.541 75.7475C246.737 75.8011 246.126 75.9662 245.627 76.2978Z" fill="#1090CB" fill-opacity="0.33"/>
<path d="M0.0450438 369.999C0.0450439 371.399 0.845043 372.799 1.54504 373.999C2.54504 375.899 3.14504 377.099 2.54504 378.099L4.04504 379.099C5.34504 377.099 4.14505 374.999 3.14505 373.199C2.14505 371.299 1.54505 370.099 2.14505 369.099C2.84505 368.099 4.14503 368.1 6.24503 368.4C8.34502 368.6 10.745 368.8 12.045 366.9C13.345 364.9 12.145 362.799 11.145 360.999C10.145 359.099 9.54505 357.9 10.145 356.9C10.8451 355.9 12.145 355.899 14.245 356.199C16.345 356.399 18.745 356.599 20.045 354.699C21.345 352.699 20.145 350.599 19.145 348.799C18.145 346.899 17.545 345.699 18.145 344.699C18.8451 343.699 20.145 343.699 22.245 343.999C24.345 344.199 26.745 344.399 28.045 342.499C29.345 340.499 28.145 338.4 27.145 336.6C26.145 334.7 25.545 333.499 26.145 332.499C26.8451 331.499 28.145 331.499 30.245 331.799C32.345 331.999 34.745 332.199 36.045 330.299C37.345 328.299 36.145 326.2 35.145 324.4C34.145 322.5 33.545 321.299 34.145 320.299C34.845 319.299 36.145 319.299 38.245 319.499C40.345 319.699 42.745 319.899 44.045 317.999L42.545 316.999C41.845 317.999 40.545 317.999 38.445 317.799C36.345 317.599 33.945 317.399 32.645 319.299C31.345 321.299 32.545 323.399 33.545 325.199C34.545 327.099 35.145 328.299 34.545 329.299C33.845 330.299 32.545 330.299 30.445 329.999C28.345 329.799 25.945 329.599 24.645 331.499C23.3451 333.499 24.545 335.6 25.545 337.4C26.545 339.3 27.145 340.499 26.545 341.499C25.845 342.499 24.545 342.499 22.445 342.199C20.345 341.999 17.945 341.799 16.645 343.699C15.3451 345.699 16.545 347.799 17.545 349.599C18.545 351.499 19.145 352.699 18.545 353.699C17.845 354.699 16.545 354.7 14.445 354.4C12.345 354.2 9.94505 354 8.64505 355.9C7.34505 357.9 8.54504 360 9.54504 361.799C10.545 363.699 11.145 364.9 10.545 365.9C9.84504 366.9 8.54504 366.899 6.44504 366.599C4.34504 366.399 1.94505 366.199 0.64505 368.099C0.245048 368.799 0.0450438 369.399 0.0450438 369.999Z" fill="#1090CB" fill-opacity="0.33"/>
<path d="M555.629 623.586C555.306 621.699 556.574 619.908 558.461 619.586C560.347 619.263 562.138 620.531 562.461 622.417C562.783 624.303 561.516 626.094 559.629 626.417C557.743 626.74 555.952 625.472 555.629 623.586Z" fill="#1090CB" fill-opacity="0.33"/>
<path d="M1223.63 300.586C1223.31 298.699 1224.57 296.908 1226.46 296.586C1228.35 296.263 1230.14 297.531 1230.46 299.417C1230.78 301.303 1229.52 303.094 1227.63 303.417C1225.74 303.74 1223.95 302.472 1223.63 300.586Z" fill="#1090CB" fill-opacity="0.77"/>
<path d="M1012.04 225.901C1012.04 227.301 1012.84 228.701 1013.54 229.901C1014.54 231.801 1015.14 233.001 1014.54 234.001L1016.04 235.001C1017.34 233.001 1016.14 230.901 1015.14 229.101C1014.14 227.201 1013.54 226.001 1014.14 225.001C1014.84 224.001 1016.14 224.001 1018.24 224.301C1020.34 224.501 1022.74 224.701 1024.04 222.801C1025.34 220.801 1024.14 218.701 1023.14 216.901C1022.14 215.001 1021.54 213.801 1022.14 212.801C1022.84 211.801 1024.14 211.801 1026.24 212.101C1028.34 212.301 1030.74 212.501 1032.04 210.601C1033.34 208.601 1032.14 206.501 1031.14 204.701C1030.14 202.801 1029.54 201.601 1030.14 200.601C1030.84 199.601 1032.14 199.601 1034.24 199.901C1036.34 200.101 1038.74 200.301 1040.04 198.401C1041.34 196.401 1040.14 194.301 1039.14 192.501C1038.14 190.601 1037.54 189.401 1038.14 188.401C1038.84 187.401 1040.14 187.401 1042.24 187.701C1044.34 187.901 1046.74 188.101 1048.04 186.201C1049.34 184.201 1048.14 182.101 1047.14 180.301C1046.14 178.401 1045.54 177.201 1046.14 176.201C1046.84 175.201 1048.14 175.201 1050.24 175.401C1052.34 175.601 1054.74 175.801 1056.04 173.901L1054.54 172.901C1053.84 173.901 1052.54 173.901 1050.44 173.701C1048.34 173.501 1045.94 173.301 1044.64 175.201C1043.34 177.201 1044.54 179.301 1045.54 181.101C1046.54 183.001 1047.14 184.201 1046.54 185.201C1045.84 186.201 1044.54 186.201 1042.44 185.901C1040.34 185.701 1037.94 185.501 1036.64 187.401C1035.34 189.401 1036.54 191.501 1037.54 193.301C1038.54 195.201 1039.14 196.401 1038.54 197.401C1037.84 198.401 1036.54 198.401 1034.44 198.101C1032.34 197.901 1029.94 197.701 1028.64 199.601C1027.34 201.601 1028.54 203.701 1029.54 205.501C1030.54 207.401 1031.14 208.601 1030.54 209.601C1029.84 210.601 1028.54 210.601 1026.44 210.301C1024.34 210.101 1021.94 209.901 1020.64 211.801C1019.34 213.801 1020.54 215.901 1021.54 217.701C1022.54 219.601 1023.14 220.801 1022.54 221.801C1021.84 222.801 1020.54 222.801 1018.44 222.501C1016.34 222.301 1013.94 222.101 1012.64 224.001C1012.24 224.701 1012.04 225.301 1012.04 225.901Z" fill="white"/>
<path d="M743.045 193.901C743.045 195.301 743.845 196.701 744.545 197.901C745.545 199.801 746.145 201.001 745.545 202.001L747.045 203.001C748.345 201.001 747.145 198.901 746.145 197.101C745.145 195.201 744.545 194.001 745.145 193.001C745.845 192.001 747.145 192.001 749.245 192.301C751.345 192.501 753.745 192.701 755.045 190.801C756.345 188.801 755.145 186.701 754.145 184.901C753.145 183.001 752.545 181.801 753.145 180.801C753.845 179.801 755.145 179.801 757.245 180.101C759.345 180.301 761.745 180.501 763.045 178.601C764.345 176.601 763.145 174.501 762.145 172.701C761.145 170.801 760.545 169.601 761.145 168.601C761.845 167.601 763.145 167.601 765.245 167.901C767.345 168.101 769.745 168.301 771.045 166.401C772.345 164.401 771.145 162.301 770.145 160.501C769.145 158.601 768.545 157.401 769.145 156.401C769.845 155.401 771.145 155.401 773.245 155.701C775.345 155.901 777.745 156.101 779.045 154.201C780.345 152.201 779.145 150.101 778.145 148.301C777.145 146.401 776.545 145.201 777.145 144.201C777.845 143.201 779.145 143.201 781.245 143.401C783.345 143.601 785.745 143.801 787.045 141.901L785.545 140.901C784.845 141.901 783.545 141.901 781.445 141.701C779.345 141.501 776.945 141.301 775.645 143.201C774.345 145.201 775.545 147.301 776.545 149.101C777.545 151.001 778.145 152.201 777.545 153.201C776.845 154.201 775.545 154.201 773.445 153.901C771.345 153.701 768.945 153.501 767.645 155.401C766.345 157.401 767.545 159.501 768.545 161.301C769.545 163.201 770.145 164.401 769.545 165.401C768.845 166.401 767.545 166.401 765.445 166.101C763.345 165.901 760.945 165.701 759.645 167.601C758.345 169.601 759.545 171.701 760.545 173.501C761.545 175.401 762.145 176.601 761.545 177.601C760.845 178.601 759.545 178.601 757.445 178.301C755.345 178.101 752.945 177.901 751.645 179.801C750.345 181.801 751.545 183.901 752.545 185.701C753.545 187.601 754.145 188.801 753.545 189.801C752.845 190.801 751.545 190.801 749.445 190.501C747.345 190.301 744.945 190.101 743.645 192.001C743.245 192.701 743.045 193.301 743.045 193.901Z" fill="white"/>
<path d="M1165.75 119.077C1165.75 118.668 1166.08 118.336 1166.49 118.336C1166.9 118.336 1167.23 118.668 1167.23 119.077C1167.23 119.486 1166.9 119.818 1166.49 119.818C1166.08 119.818 1165.75 119.486 1165.75 119.077Z" fill="#1090CB"/>
<path d="M1162.04 122.784C1162.04 122.375 1162.37 122.043 1162.78 122.043C1163.19 122.043 1163.52 122.375 1163.52 122.784C1163.52 123.193 1163.19 123.525 1162.78 123.525C1162.37 123.525 1162.04 123.193 1162.04 122.784Z" fill="#1090CB"/>
<path d="M1158.33 126.675C1158.33 126.265 1158.66 125.933 1159.07 125.933C1159.48 125.933 1159.81 126.265 1159.81 126.675C1159.81 127.084 1159.48 127.416 1159.07 127.416C1158.66 127.416 1158.33 127.084 1158.33 126.675Z" fill="#1090CB"/>
<path d="M1154.63 130.382C1154.63 129.972 1154.96 129.64 1155.37 129.64C1155.78 129.64 1156.11 129.972 1156.11 130.382C1156.11 130.791 1155.78 131.123 1155.37 131.123C1154.96 131.123 1154.63 130.791 1154.63 130.382Z" fill="#1090CB"/>
<path d="M1150.74 134.272C1150.74 133.863 1151.07 133.531 1151.48 133.531C1151.89 133.531 1152.22 133.863 1152.22 134.272C1152.22 134.682 1151.89 135.014 1151.48 135.014C1151.07 135.014 1150.74 134.682 1150.74 134.272Z" fill="#1090CB"/>
<path d="M1147.03 137.98C1147.03 137.57 1147.36 137.238 1147.77 137.238C1148.18 137.238 1148.51 137.57 1148.51 137.98C1148.51 138.389 1148.18 138.721 1147.77 138.721C1147.36 138.721 1147.03 138.389 1147.03 137.98Z" fill="#1090CB"/>
<path d="M1143.32 141.87C1143.32 141.461 1143.66 141.129 1144.07 141.129C1144.47 141.129 1144.81 141.461 1144.81 141.87C1144.81 142.279 1144.47 142.611 1144.07 142.611C1143.66 142.611 1143.32 142.279 1143.32 141.87Z" fill="#1090CB"/>
<path d="M1139.62 145.577C1139.62 145.168 1139.95 144.836 1140.36 144.836C1140.77 144.836 1141.1 145.168 1141.1 145.577C1141.1 145.986 1140.77 146.318 1140.36 146.318C1139.95 146.318 1139.62 145.986 1139.62 145.577Z" fill="#1090CB"/>
<path d="M1135.91 149.468C1135.91 149.058 1136.25 148.726 1136.66 148.726C1137.06 148.726 1137.4 149.058 1137.4 149.468C1137.4 149.877 1137.06 150.209 1136.66 150.209C1136.25 150.209 1135.91 149.877 1135.91 149.468Z" fill="#1090CB"/>
<path d="M1132.21 153.175C1132.21 152.765 1132.54 152.433 1132.95 152.433C1133.36 152.433 1133.69 152.765 1133.69 153.175C1133.69 153.584 1133.36 153.916 1132.95 153.916C1132.54 153.916 1132.21 153.584 1132.21 153.175Z" fill="#1090CB"/>
<path d="M1128.5 157.065C1128.5 156.656 1128.83 156.324 1129.24 156.324C1129.65 156.324 1129.98 156.656 1129.98 157.065C1129.98 157.475 1129.65 157.807 1129.24 157.807C1128.83 157.807 1128.5 157.475 1128.5 157.065Z" fill="#1090CB"/>
<path d="M1124.79 160.772C1124.79 160.363 1125.12 160.031 1125.53 160.031C1125.94 160.031 1126.28 160.363 1126.28 160.772C1126.28 161.182 1125.94 161.514 1125.53 161.514C1125.12 161.514 1124.79 161.182 1124.79 160.772Z" fill="#1090CB"/>
<path d="M1121.09 164.663C1121.09 164.254 1121.42 163.922 1121.83 163.922C1122.24 163.922 1122.57 164.254 1122.57 164.663C1122.57 165.072 1122.24 165.404 1121.83 165.404C1121.42 165.404 1121.09 165.072 1121.09 164.663Z" fill="#1090CB"/>
<path d="M1117.38 168.37C1117.38 167.961 1117.71 167.629 1118.12 167.629C1118.53 167.629 1118.87 167.961 1118.87 168.37C1118.87 168.779 1118.53 169.111 1118.12 169.111C1117.71 169.111 1117.38 168.779 1117.38 168.37Z" fill="#1090CB"/>
<path d="M1113.68 172.261C1113.68 171.851 1114.01 171.519 1114.42 171.519C1114.83 171.519 1115.16 171.851 1115.16 172.261C1115.16 172.67 1114.83 173.002 1114.42 173.002C1114.01 173.002 1113.68 172.67 1113.68 172.261Z" fill="#1090CB"/>
<path d="M1161.3 114.632C1161.3 114.222 1161.63 113.89 1162.04 113.89C1162.45 113.89 1162.78 114.222 1162.78 114.632C1162.78 115.041 1162.45 115.373 1162.04 115.373C1161.63 115.373 1161.3 115.041 1161.3 114.632Z" fill="#1090CB"/>
<path d="M1157.59 118.339C1157.59 117.929 1157.92 117.597 1158.33 117.597C1158.74 117.597 1159.07 117.929 1159.07 118.339C1159.07 118.748 1158.74 119.08 1158.33 119.08C1157.92 119.08 1157.59 118.748 1157.59 118.339Z" fill="#1090CB"/>
<path d="M1153.7 122.229C1153.7 121.82 1154.03 121.488 1154.44 121.488C1154.85 121.488 1155.18 121.82 1155.18 122.229C1155.18 122.639 1154.85 122.971 1154.44 122.971C1154.03 122.971 1153.7 122.639 1153.7 122.229Z" fill="#1090CB"/>
<path d="M1149.99 126.12C1149.99 125.711 1150.32 125.379 1150.73 125.379C1151.14 125.379 1151.47 125.711 1151.47 126.12C1151.47 126.529 1151.14 126.861 1150.73 126.861C1150.32 126.861 1149.99 126.529 1149.99 126.12Z" fill="#1090CB"/>
<path d="M1146.29 129.827C1146.29 129.418 1146.62 129.086 1147.03 129.086C1147.44 129.086 1147.77 129.418 1147.77 129.827C1147.77 130.236 1147.44 130.568 1147.03 130.568C1146.62 130.568 1146.29 130.236 1146.29 129.827Z" fill="#1090CB"/>
<path d="M1142.58 133.718C1142.58 133.308 1142.91 132.976 1143.32 132.976C1143.73 132.976 1144.06 133.308 1144.06 133.718C1144.06 134.127 1143.73 134.459 1143.32 134.459C1142.91 134.459 1142.58 134.127 1142.58 133.718Z" fill="#1090CB"/>
<path d="M1138.88 137.425C1138.88 137.015 1139.21 136.683 1139.62 136.683C1140.03 136.683 1140.36 137.015 1140.36 137.425C1140.36 137.834 1140.03 138.166 1139.62 138.166C1139.21 138.166 1138.88 137.834 1138.88 137.425Z" fill="#1090CB"/>
<path d="M1135.17 141.315C1135.17 140.906 1135.5 140.574 1135.91 140.574C1136.32 140.574 1136.65 140.906 1136.65 141.315C1136.65 141.725 1136.32 142.057 1135.91 142.057C1135.5 142.057 1135.17 141.725 1135.17 141.315Z" fill="#1090CB"/>
<path d="M1131.46 145.022C1131.46 144.613 1131.8 144.281 1132.21 144.281C1132.62 144.281 1132.95 144.613 1132.95 145.022C1132.95 145.432 1132.62 145.764 1132.21 145.764C1131.8 145.764 1131.46 145.432 1131.46 145.022Z" fill="#1090CB"/>
<path d="M1127.76 148.913C1127.76 148.504 1128.09 148.172 1128.5 148.172C1128.91 148.172 1129.24 148.504 1129.24 148.913C1129.24 149.322 1128.91 149.654 1128.5 149.654C1128.09 149.654 1127.76 149.322 1127.76 148.913Z" fill="#1090CB"/>
<path d="M1124.05 152.62C1124.05 152.211 1124.38 151.879 1124.79 151.879C1125.2 151.879 1125.53 152.211 1125.53 152.62C1125.53 153.029 1125.2 153.361 1124.79 153.361C1124.38 153.361 1124.05 153.029 1124.05 152.62Z" fill="#1090CB"/>
<path d="M1120.34 156.511C1120.34 156.101 1120.68 155.769 1121.08 155.769C1121.49 155.769 1121.83 156.101 1121.83 156.511C1121.83 156.92 1121.49 157.252 1121.08 157.252C1120.68 157.252 1120.34 156.92 1120.34 156.511Z" fill="#1090CB"/>
<path d="M1116.64 160.218C1116.64 159.808 1116.97 159.477 1117.38 159.477C1117.79 159.477 1118.12 159.808 1118.12 160.218C1118.12 160.627 1117.79 160.959 1117.38 160.959C1116.97 160.959 1116.64 160.627 1116.64 160.218Z" fill="#1090CB"/>
<path d="M1112.93 164.108C1112.93 163.699 1113.27 163.367 1113.67 163.367C1114.08 163.367 1114.42 163.699 1114.42 164.108C1114.42 164.518 1114.08 164.849 1113.67 164.849C1113.27 164.849 1112.93 164.518 1112.93 164.108Z" fill="#1090CB"/>
<path d="M1109.23 167.815C1109.23 167.406 1109.56 167.074 1109.97 167.074C1110.38 167.074 1110.71 167.406 1110.71 167.815C1110.71 168.225 1110.38 168.557 1109.97 168.557C1109.56 168.557 1109.23 168.225 1109.23 167.815Z" fill="#1090CB"/>
<path d="M1156.67 110.183C1156.67 109.773 1157 109.441 1157.41 109.441C1157.82 109.441 1158.15 109.773 1158.15 110.183C1158.15 110.592 1157.82 110.924 1157.41 110.924C1157 110.924 1156.67 110.592 1156.67 110.183Z" fill="#1090CB"/>
<path d="M1152.96 114.073C1152.96 113.664 1153.29 113.332 1153.7 113.332C1154.11 113.332 1154.44 113.664 1154.44 114.073C1154.44 114.482 1154.11 114.814 1153.7 114.814C1153.29 114.814 1152.96 114.482 1152.96 114.073Z" fill="#1090CB"/>
<path d="M1149.25 117.78C1149.25 117.371 1149.59 117.039 1150 117.039C1150.4 117.039 1150.74 117.371 1150.74 117.78C1150.74 118.19 1150.4 118.521 1150 118.521C1149.59 118.521 1149.25 118.19 1149.25 117.78Z" fill="#1090CB"/>
<path d="M1145.55 121.671C1145.55 121.261 1145.88 120.93 1146.29 120.93C1146.7 120.93 1147.03 121.261 1147.03 121.671C1147.03 122.08 1146.7 122.412 1146.29 122.412C1145.88 122.412 1145.55 122.08 1145.55 121.671Z" fill="#1090CB"/>
<path d="M1141.84 125.378C1141.84 124.968 1142.18 124.637 1142.58 124.637C1142.99 124.637 1143.33 124.968 1143.33 125.378C1143.33 125.787 1142.99 126.119 1142.58 126.119C1142.18 126.119 1141.84 125.787 1141.84 125.378Z" fill="#1090CB"/>
<path d="M1138.14 129.268C1138.14 128.859 1138.47 128.527 1138.88 128.527C1139.29 128.527 1139.62 128.859 1139.62 129.268C1139.62 129.678 1139.29 130.01 1138.88 130.01C1138.47 130.01 1138.14 129.678 1138.14 129.268Z" fill="#1090CB"/>
<path d="M1134.43 132.975C1134.43 132.566 1134.76 132.234 1135.17 132.234C1135.58 132.234 1135.91 132.566 1135.91 132.975C1135.91 133.385 1135.58 133.717 1135.17 133.717C1134.76 133.717 1134.43 133.385 1134.43 132.975Z" fill="#1090CB"/>
<path d="M1130.73 136.866C1130.73 136.457 1131.06 136.125 1131.47 136.125C1131.88 136.125 1132.21 136.457 1132.21 136.866C1132.21 137.275 1131.88 137.607 1131.47 137.607C1131.06 137.607 1130.73 137.275 1130.73 136.866Z" fill="#1090CB"/>
<path d="M1127.02 140.757C1127.02 140.347 1127.35 140.016 1127.76 140.016C1128.17 140.016 1128.5 140.347 1128.5 140.757C1128.5 141.166 1128.17 141.498 1127.76 141.498C1127.35 141.498 1127.02 141.166 1127.02 140.757Z" fill="#1090CB"/>
<path d="M1123.31 144.464C1123.31 144.054 1123.64 143.723 1124.05 143.723C1124.46 143.723 1124.79 144.054 1124.79 144.464C1124.79 144.873 1124.46 145.205 1124.05 145.205C1123.64 145.205 1123.31 144.873 1123.31 144.464Z" fill="#1090CB"/>
<path d="M1119.61 148.354C1119.61 147.945 1119.94 147.613 1120.35 147.613C1120.76 147.613 1121.09 147.945 1121.09 148.354C1121.09 148.764 1120.76 149.096 1120.35 149.096C1119.94 149.096 1119.61 148.764 1119.61 148.354Z" fill="#1090CB"/>
<path d="M1115.9 152.061C1115.9 151.652 1116.23 151.32 1116.64 151.32C1117.05 151.32 1117.38 151.652 1117.38 152.061C1117.38 152.471 1117.05 152.803 1116.64 152.803C1116.23 152.803 1115.9 152.471 1115.9 152.061Z" fill="#1090CB"/>
<path d="M1112.2 155.952C1112.2 155.543 1112.53 155.211 1112.94 155.211C1113.35 155.211 1113.68 155.543 1113.68 155.952C1113.68 156.362 1113.35 156.693 1112.94 156.693C1112.53 156.693 1112.2 156.362 1112.2 155.952Z" fill="#1090CB"/>
<path d="M1108.49 159.659C1108.49 159.25 1108.82 158.918 1109.23 158.918C1109.64 158.918 1109.97 159.25 1109.97 159.659C1109.97 160.068 1109.64 160.4 1109.23 160.4C1108.82 160.4 1108.49 160.068 1108.49 159.659Z" fill="#1090CB"/>
<path d="M1104.78 163.55C1104.78 163.14 1105.11 162.808 1105.52 162.808C1105.93 162.808 1106.26 163.14 1106.26 163.55C1106.26 163.959 1105.93 164.291 1105.52 164.291C1105.11 164.291 1104.78 163.959 1104.78 163.55Z" fill="#1090CB"/>
<path d="M1152.22 105.921C1152.22 105.511 1152.55 105.18 1152.96 105.18C1153.37 105.18 1153.7 105.511 1153.7 105.921C1153.7 106.33 1153.37 106.662 1152.96 106.662C1152.55 106.662 1152.22 106.33 1152.22 105.921Z" fill="#1090CB"/>
<path d="M1148.51 109.628C1148.51 109.218 1148.84 108.887 1149.25 108.887C1149.66 108.887 1149.99 109.218 1149.99 109.628C1149.99 110.037 1149.66 110.369 1149.25 110.369C1148.84 110.369 1148.51 110.037 1148.51 109.628Z" fill="#1090CB"/>
<path d="M1144.8 113.518C1144.8 113.109 1145.14 112.777 1145.55 112.777C1145.96 112.777 1146.29 113.109 1146.29 113.518C1146.29 113.928 1145.96 114.26 1145.55 114.26C1145.14 114.26 1144.8 113.928 1144.8 113.518Z" fill="#1090CB"/>
<path d="M1141.1 117.226C1141.1 116.816 1141.43 116.484 1141.84 116.484C1142.25 116.484 1142.58 116.816 1142.58 117.226C1142.58 117.635 1142.25 117.967 1141.84 117.967C1141.43 117.967 1141.1 117.635 1141.1 117.226Z" fill="#1090CB"/>
<path d="M1137.39 121.116C1137.39 120.707 1137.73 120.375 1138.14 120.375C1138.54 120.375 1138.88 120.707 1138.88 121.116C1138.88 121.525 1138.54 121.857 1138.14 121.857C1137.73 121.857 1137.39 121.525 1137.39 121.116Z" fill="#1090CB"/>
<path d="M1133.69 124.823C1133.69 124.414 1134.02 124.082 1134.43 124.082C1134.84 124.082 1135.17 124.414 1135.17 124.823C1135.17 125.232 1134.84 125.564 1134.43 125.564C1134.02 125.564 1133.69 125.232 1133.69 124.823Z" fill="#1090CB"/>
<path d="M1129.98 128.714C1129.98 128.304 1130.31 127.973 1130.72 127.973C1131.13 127.973 1131.46 128.304 1131.46 128.714C1131.46 129.123 1131.13 129.455 1130.72 129.455C1130.31 129.455 1129.98 129.123 1129.98 128.714Z" fill="#1090CB"/>
<path d="M1126.28 132.421C1126.28 132.011 1126.61 131.679 1127.02 131.679C1127.43 131.679 1127.76 132.011 1127.76 132.421C1127.76 132.83 1127.43 133.162 1127.02 133.162C1126.61 133.162 1126.28 132.83 1126.28 132.421Z" fill="#1090CB"/>
<path d="M1122.57 136.311C1122.57 135.902 1122.9 135.57 1123.31 135.57C1123.72 135.57 1124.05 135.902 1124.05 136.311C1124.05 136.721 1123.72 137.053 1123.31 137.053C1122.9 137.053 1122.57 136.721 1122.57 136.311Z" fill="#1090CB"/>
<path d="M1118.86 140.018C1118.86 139.609 1119.2 139.277 1119.6 139.277C1120.01 139.277 1120.35 139.609 1120.35 140.018C1120.35 140.428 1120.01 140.76 1119.6 140.76C1119.2 140.76 1118.86 140.428 1118.86 140.018Z" fill="#1090CB"/>
<path d="M1115.16 143.909C1115.16 143.5 1115.49 143.168 1115.9 143.168C1116.31 143.168 1116.64 143.5 1116.64 143.909C1116.64 144.318 1116.31 144.65 1115.9 144.65C1115.49 144.65 1115.16 144.318 1115.16 143.909Z" fill="#1090CB"/>
<path d="M1111.45 147.616C1111.45 147.207 1111.78 146.875 1112.19 146.875C1112.6 146.875 1112.94 147.207 1112.94 147.616C1112.94 148.025 1112.6 148.357 1112.19 148.357C1111.78 148.357 1111.45 148.025 1111.45 147.616Z" fill="#1090CB"/>
<path d="M1107.75 151.507C1107.75 151.097 1108.08 150.766 1108.49 150.766C1108.9 150.766 1109.23 151.097 1109.23 151.507C1109.23 151.916 1108.9 152.248 1108.49 152.248C1108.08 152.248 1107.75 151.916 1107.75 151.507Z" fill="#1090CB"/>
<path d="M1104.04 155.214C1104.04 154.804 1104.37 154.472 1104.78 154.472C1105.19 154.472 1105.52 154.804 1105.52 155.214C1105.52 155.623 1105.19 155.955 1104.78 155.955C1104.37 155.955 1104.04 155.623 1104.04 155.214Z" fill="#1090CB"/>
<path d="M1100.15 159.104C1100.15 158.695 1100.48 158.363 1100.89 158.363C1101.3 158.363 1101.63 158.695 1101.63 159.104C1101.63 159.514 1101.3 159.846 1100.89 159.846C1100.48 159.846 1100.15 159.514 1100.15 159.104Z" fill="#1090CB"/>
<path d="M1147.77 101.472C1147.77 101.062 1148.11 100.73 1148.51 100.73C1148.92 100.73 1149.26 101.062 1149.26 101.472C1149.26 101.881 1148.92 102.213 1148.51 102.213C1148.11 102.213 1147.77 101.881 1147.77 101.472Z" fill="#1090CB"/>
<path d="M1144.07 105.366C1144.07 104.957 1144.4 104.625 1144.81 104.625C1145.22 104.625 1145.55 104.957 1145.55 105.366C1145.55 105.775 1145.22 106.107 1144.81 106.107C1144.4 106.107 1144.07 105.775 1144.07 105.366Z" fill="#1090CB"/>
<path d="M1140.36 109.069C1140.36 108.66 1140.69 108.328 1141.1 108.328C1141.51 108.328 1141.84 108.66 1141.84 109.069C1141.84 109.479 1141.51 109.81 1141.1 109.81C1140.69 109.81 1140.36 109.479 1140.36 109.069Z" fill="#1090CB"/>
<path d="M1136.66 112.964C1136.66 112.554 1136.99 112.223 1137.4 112.223C1137.81 112.223 1138.14 112.554 1138.14 112.964C1138.14 113.373 1137.81 113.705 1137.4 113.705C1136.99 113.705 1136.66 113.373 1136.66 112.964Z" fill="#1090CB"/>
<path d="M1132.95 116.667C1132.95 116.258 1133.28 115.926 1133.69 115.926C1134.1 115.926 1134.43 116.258 1134.43 116.667C1134.43 117.076 1134.1 117.408 1133.69 117.408C1133.28 117.408 1132.95 117.076 1132.95 116.667Z" fill="#1090CB"/>
<path d="M1129.24 120.558C1129.24 120.148 1129.57 119.816 1129.98 119.816C1130.39 119.816 1130.72 120.148 1130.72 120.558C1130.72 120.967 1130.39 121.299 1129.98 121.299C1129.57 121.299 1129.24 120.967 1129.24 120.558Z" fill="#1090CB"/>
<path d="M1125.54 124.265C1125.54 123.855 1125.87 123.523 1126.28 123.523C1126.69 123.523 1127.02 123.855 1127.02 124.265C1127.02 124.674 1126.69 125.006 1126.28 125.006C1125.87 125.006 1125.54 124.674 1125.54 124.265Z" fill="#1090CB"/>
<path d="M1121.83 128.155C1121.83 127.746 1122.16 127.414 1122.57 127.414C1122.98 127.414 1123.31 127.746 1123.31 128.155C1123.31 128.565 1122.98 128.896 1122.57 128.896C1122.16 128.896 1121.83 128.565 1121.83 128.155Z" fill="#1090CB"/>
<path d="M1118.12 131.862C1118.12 131.453 1118.46 131.121 1118.87 131.121C1119.28 131.121 1119.61 131.453 1119.61 131.862C1119.61 132.272 1119.28 132.603 1118.87 132.603C1118.46 132.603 1118.12 132.272 1118.12 131.862Z" fill="#1090CB"/>
<path d="M1114.42 135.753C1114.42 135.343 1114.75 135.012 1115.16 135.012C1115.57 135.012 1115.9 135.343 1115.9 135.753C1115.9 136.162 1115.57 136.494 1115.16 136.494C1114.75 136.494 1114.42 136.162 1114.42 135.753Z" fill="#1090CB"/>
<path d="M1110.71 139.46C1110.71 139.05 1111.04 138.719 1111.45 138.719C1111.86 138.719 1112.19 139.05 1112.19 139.46C1112.19 139.869 1111.86 140.201 1111.45 140.201C1111.04 140.201 1110.71 139.869 1110.71 139.46Z" fill="#1090CB"/>
<path d="M1107.01 143.35C1107.01 142.941 1107.34 142.609 1107.75 142.609C1108.16 142.609 1108.49 142.941 1108.49 143.35C1108.49 143.76 1108.16 144.092 1107.75 144.092C1107.34 144.092 1107.01 143.76 1107.01 143.35Z" fill="#1090CB"/>
<path d="M1103.11 147.057C1103.11 146.648 1103.45 146.316 1103.85 146.316C1104.26 146.316 1104.6 146.648 1104.6 147.057C1104.6 147.467 1104.26 147.799 1103.85 147.799C1103.45 147.799 1103.11 147.467 1103.11 147.057Z" fill="#1090CB"/>
<path d="M1099.41 150.948C1099.41 150.539 1099.74 150.207 1100.15 150.207C1100.56 150.207 1100.89 150.539 1100.89 150.948C1100.89 151.357 1100.56 151.689 1100.15 151.689C1099.74 151.689 1099.41 151.357 1099.41 150.948Z" fill="#1090CB"/>
<path d="M1095.7 154.655C1095.7 154.246 1096.03 153.914 1096.44 153.914C1096.85 153.914 1097.19 154.246 1097.19 154.655C1097.19 155.065 1096.85 155.396 1096.44 155.396C1096.03 155.396 1095.7 155.065 1095.7 154.655Z" fill="#1090CB"/>
<path d="M1143.32 97.0261C1143.32 96.6167 1143.66 96.2849 1144.07 96.2849C1144.47 96.2849 1144.81 96.6167 1144.81 97.0261C1144.81 97.4354 1144.47 97.7673 1144.07 97.7673C1143.66 97.7673 1143.32 97.4354 1143.32 97.0261Z" fill="#1090CB"/>
<path d="M1139.62 100.917C1139.62 100.508 1139.95 100.176 1140.36 100.176C1140.77 100.176 1141.1 100.508 1141.1 100.917C1141.1 101.326 1140.77 101.658 1140.36 101.658C1139.95 101.658 1139.62 101.326 1139.62 100.917Z" fill="#1090CB"/>
<path d="M1135.91 104.624C1135.91 104.215 1136.24 103.883 1136.65 103.883C1137.06 103.883 1137.39 104.215 1137.39 104.624C1137.39 105.033 1137.06 105.365 1136.65 105.365C1136.24 105.365 1135.91 105.033 1135.91 104.624Z" fill="#1090CB"/>
<path d="M1132.21 108.515C1132.21 108.105 1132.54 107.773 1132.95 107.773C1133.36 107.773 1133.69 108.105 1133.69 108.515C1133.69 108.924 1133.36 109.256 1132.95 109.256C1132.54 109.256 1132.21 108.924 1132.21 108.515Z" fill="#1090CB"/>
<path d="M1128.5 112.405C1128.5 111.996 1128.83 111.664 1129.24 111.664C1129.65 111.664 1129.98 111.996 1129.98 112.405C1129.98 112.815 1129.65 113.146 1129.24 113.146C1128.83 113.146 1128.5 112.815 1128.5 112.405Z" fill="#1090CB"/>
<path d="M1124.79 116.112C1124.79 115.703 1125.12 115.371 1125.53 115.371C1125.94 115.371 1126.28 115.703 1126.28 116.112C1126.28 116.522 1125.94 116.854 1125.53 116.854C1125.12 116.854 1124.79 116.522 1124.79 116.112Z" fill="#1090CB"/>
<path d="M1121.09 120.003C1121.09 119.593 1121.42 119.262 1121.83 119.262C1122.24 119.262 1122.57 119.593 1122.57 120.003C1122.57 120.412 1122.24 120.744 1121.83 120.744C1121.42 120.744 1121.09 120.412 1121.09 120.003Z" fill="#1090CB"/>
<path d="M1117.38 123.71C1117.38 123.3 1117.71 122.968 1118.12 122.968C1118.53 122.968 1118.87 123.3 1118.87 123.71C1118.87 124.119 1118.53 124.451 1118.12 124.451C1117.71 124.451 1117.38 124.119 1117.38 123.71Z" fill="#1090CB"/>
<path d="M1113.68 127.6C1113.68 127.191 1114.01 126.859 1114.42 126.859C1114.83 126.859 1115.16 127.191 1115.16 127.6C1115.16 128.01 1114.83 128.342 1114.42 128.342C1114.01 128.342 1113.68 128.01 1113.68 127.6Z" fill="#1090CB"/>
<path d="M1109.97 131.307C1109.97 130.898 1110.3 130.566 1110.71 130.566C1111.12 130.566 1111.45 130.898 1111.45 131.307C1111.45 131.717 1111.12 132.049 1110.71 132.049C1110.3 132.049 1109.97 131.717 1109.97 131.307Z" fill="#1090CB"/>
<path d="M1106.08 135.198C1106.08 134.789 1106.41 134.457 1106.82 134.457C1107.23 134.457 1107.56 134.789 1107.56 135.198C1107.56 135.607 1107.23 135.939 1106.82 135.939C1106.41 135.939 1106.08 135.607 1106.08 135.198Z" fill="#1090CB"/>
<path d="M1102.37 138.905C1102.37 138.496 1102.7 138.164 1103.11 138.164C1103.52 138.164 1103.85 138.496 1103.85 138.905C1103.85 139.315 1103.52 139.646 1103.11 139.646C1102.7 139.646 1102.37 139.315 1102.37 138.905Z" fill="#1090CB"/>
<path d="M1098.67 142.796C1098.67 142.386 1099 142.055 1099.41 142.055C1099.82 142.055 1100.15 142.386 1100.15 142.796C1100.15 143.205 1099.82 143.537 1099.41 143.537C1099 143.537 1098.67 143.205 1098.67 142.796Z" fill="#1090CB"/>
<path d="M1094.96 146.503C1094.96 146.093 1095.29 145.762 1095.7 145.762C1096.11 145.762 1096.44 146.093 1096.44 146.503C1096.44 146.912 1096.11 147.244 1095.7 147.244C1095.29 147.244 1094.96 146.912 1094.96 146.503Z" fill="#1090CB"/>
<path d="M1091.25 150.393C1091.25 149.984 1091.59 149.652 1092 149.652C1092.4 149.652 1092.74 149.984 1092.74 150.393C1092.74 150.803 1092.4 151.135 1092 151.135C1091.59 151.135 1091.25 150.803 1091.25 150.393Z" fill="#1090CB"/>
<path d="M1138.88 92.7645C1138.88 92.3552 1139.21 92.0233 1139.62 92.0233C1140.03 92.0233 1140.36 92.3552 1140.36 92.7645C1140.36 93.1739 1140.03 93.5057 1139.62 93.5057C1139.21 93.5057 1138.88 93.1739 1138.88 92.7645Z" fill="#1090CB"/>
<path d="M1135.17 96.4716C1135.17 96.0622 1135.5 95.7304 1135.91 95.7304C1136.32 95.7304 1136.65 96.0622 1136.65 96.4716C1136.65 96.8809 1136.32 97.2128 1135.91 97.2128C1135.5 97.2128 1135.17 96.8809 1135.17 96.4716Z" fill="#1090CB"/>
<path d="M1131.46 100.362C1131.46 99.9528 1131.8 99.621 1132.21 99.621C1132.62 99.621 1132.95 99.9528 1132.95 100.362C1132.95 100.772 1132.62 101.103 1132.21 101.103C1131.8 101.103 1131.46 100.772 1131.46 100.362Z" fill="#1090CB"/>
<path d="M1127.76 104.069C1127.76 103.66 1128.09 103.328 1128.5 103.328C1128.91 103.328 1129.24 103.66 1129.24 104.069C1129.24 104.479 1128.91 104.81 1128.5 104.81C1128.09 104.81 1127.76 104.479 1127.76 104.069Z" fill="#1090CB"/>
<path d="M1124.05 107.96C1124.05 107.55 1124.39 107.219 1124.8 107.219C1125.21 107.219 1125.54 107.55 1125.54 107.96C1125.54 108.369 1125.21 108.701 1124.8 108.701C1124.39 108.701 1124.05 108.369 1124.05 107.96Z" fill="#1090CB"/>
<path d="M1120.35 111.667C1120.35 111.258 1120.68 110.926 1121.09 110.926C1121.5 110.926 1121.83 111.258 1121.83 111.667C1121.83 112.076 1121.5 112.408 1121.09 112.408C1120.68 112.408 1120.35 112.076 1120.35 111.667Z" fill="#1090CB"/>
<path d="M1116.64 115.557C1116.64 115.148 1116.97 114.816 1117.38 114.816C1117.79 114.816 1118.12 115.148 1118.12 115.557C1118.12 115.967 1117.79 116.299 1117.38 116.299C1116.97 116.299 1116.64 115.967 1116.64 115.557Z" fill="#1090CB"/>
<path d="M1112.94 119.264C1112.94 118.855 1113.27 118.523 1113.68 118.523C1114.09 118.523 1114.42 118.855 1114.42 119.264C1114.42 119.674 1114.09 120.005 1113.68 120.005C1113.27 120.005 1112.94 119.674 1112.94 119.264Z" fill="#1090CB"/>
<path d="M1109.23 123.155C1109.23 122.746 1109.56 122.414 1109.97 122.414C1110.38 122.414 1110.71 122.746 1110.71 123.155C1110.71 123.565 1110.38 123.896 1109.97 123.896C1109.56 123.896 1109.23 123.565 1109.23 123.155Z" fill="#1090CB"/>
<path d="M1105.34 127.046C1105.34 126.636 1105.67 126.305 1106.08 126.305C1106.49 126.305 1106.82 126.636 1106.82 127.046C1106.82 127.455 1106.49 127.787 1106.08 127.787C1105.67 127.787 1105.34 127.455 1105.34 127.046Z" fill="#1090CB"/>
<path d="M1101.63 130.753C1101.63 130.343 1101.96 130.012 1102.37 130.012C1102.78 130.012 1103.12 130.343 1103.12 130.753C1103.12 131.162 1102.78 131.494 1102.37 131.494C1101.96 131.494 1101.63 131.162 1101.63 130.753Z" fill="#1090CB"/>
<path d="M1097.93 134.643C1097.93 134.234 1098.26 133.902 1098.67 133.902C1099.08 133.902 1099.41 134.234 1099.41 134.643C1099.41 135.053 1099.08 135.385 1098.67 135.385C1098.26 135.385 1097.93 135.053 1097.93 134.643Z" fill="#1090CB"/>
<path d="M1094.22 138.35C1094.22 137.941 1094.55 137.609 1094.96 137.609C1095.37 137.609 1095.7 137.941 1095.7 138.35C1095.7 138.76 1095.37 139.092 1094.96 139.092C1094.55 139.092 1094.22 138.76 1094.22 138.35Z" fill="#1090CB"/>
<path d="M1090.52 142.241C1090.52 141.832 1090.85 141.5 1091.26 141.5C1091.67 141.5 1092 141.832 1092 142.241C1092 142.65 1091.67 142.982 1091.26 142.982C1090.85 142.982 1090.52 142.65 1090.52 142.241Z" fill="#1090CB"/>
<path d="M1086.81 145.948C1086.81 145.539 1087.14 145.207 1087.55 145.207C1087.96 145.207 1088.29 145.539 1088.29 145.948C1088.29 146.357 1087.96 146.689 1087.55 146.689C1087.14 146.689 1086.81 146.357 1086.81 145.948Z" fill="#1090CB"/>
<path d="M1134.43 88.3153C1134.43 87.906 1134.76 87.5741 1135.17 87.5741C1135.58 87.5741 1135.91 87.906 1135.91 88.3153C1135.91 88.7247 1135.58 89.0565 1135.17 89.0565C1134.76 89.0565 1134.43 88.7247 1134.43 88.3153Z" fill="#1090CB"/>
<path d="M1130.72 92.2098C1130.72 91.8005 1131.05 91.4686 1131.46 91.4686C1131.87 91.4686 1132.21 91.8005 1132.21 92.2098C1132.21 92.6192 1131.87 92.951 1131.46 92.951C1131.05 92.951 1130.72 92.6192 1130.72 92.2098Z" fill="#1090CB"/>
<path d="M1127.02 95.913C1127.02 95.5036 1127.35 95.1717 1127.76 95.1717C1128.17 95.1717 1128.5 95.5036 1128.5 95.913C1128.5 96.3223 1128.17 96.6542 1127.76 96.6542C1127.35 96.6542 1127.02 96.3223 1127.02 95.913Z" fill="#1090CB"/>
<path d="M1123.31 99.8074C1123.31 99.3981 1123.64 99.0662 1124.05 99.0662C1124.46 99.0662 1124.79 99.3981 1124.79 99.8074C1124.79 100.217 1124.46 100.549 1124.05 100.549C1123.64 100.549 1123.31 100.217 1123.31 99.8074Z" fill="#1090CB"/>
<path d="M1119.61 103.511C1119.61 103.101 1119.94 102.769 1120.35 102.769C1120.76 102.769 1121.09 103.101 1121.09 103.511C1121.09 103.92 1120.76 104.252 1120.35 104.252C1119.94 104.252 1119.61 103.92 1119.61 103.511Z" fill="#1090CB"/>
<path d="M1115.9 107.401C1115.9 106.992 1116.23 106.66 1116.64 106.66C1117.05 106.66 1117.38 106.992 1117.38 107.401C1117.38 107.811 1117.05 108.142 1116.64 108.142C1116.23 108.142 1115.9 107.811 1115.9 107.401Z" fill="#1090CB"/>
<path d="M1112.19 111.108C1112.19 110.699 1112.52 110.367 1112.93 110.367C1113.34 110.367 1113.67 110.699 1113.67 111.108C1113.67 111.518 1113.34 111.849 1112.93 111.849C1112.52 111.849 1112.19 111.518 1112.19 111.108Z" fill="#1090CB"/>
<path d="M1108.3 114.999C1108.3 114.59 1108.63 114.258 1109.04 114.258C1109.45 114.258 1109.78 114.59 1109.78 114.999C1109.78 115.408 1109.45 115.74 1109.04 115.74C1108.63 115.74 1108.3 115.408 1108.3 114.999Z" fill="#1090CB"/>
<path d="M1104.6 118.706C1104.6 118.297 1104.93 117.965 1105.34 117.965C1105.75 117.965 1106.08 118.297 1106.08 118.706C1106.08 119.115 1105.75 119.447 1105.34 119.447C1104.93 119.447 1104.6 119.115 1104.6 118.706Z" fill="#1090CB"/>
<path d="M1100.89 122.597C1100.89 122.187 1101.22 121.855 1101.63 121.855C1102.04 121.855 1102.37 122.187 1102.37 122.597C1102.37 123.006 1102.04 123.338 1101.63 123.338C1101.22 123.338 1100.89 123.006 1100.89 122.597Z" fill="#1090CB"/>
<path d="M1097.18 126.304C1097.18 125.894 1097.52 125.562 1097.92 125.562C1098.33 125.562 1098.67 125.894 1098.67 126.304C1098.67 126.713 1098.33 127.045 1097.92 127.045C1097.52 127.045 1097.18 126.713 1097.18 126.304Z" fill="#1090CB"/>
<path d="M1093.48 130.194C1093.48 129.785 1093.81 129.453 1094.22 129.453C1094.63 129.453 1094.96 129.785 1094.96 130.194C1094.96 130.604 1094.63 130.935 1094.22 130.935C1093.81 130.935 1093.48 130.604 1093.48 130.194Z" fill="#1090CB"/>
<path d="M1089.77 133.901C1089.77 133.492 1090.11 133.16 1090.51 133.16C1090.92 133.16 1091.26 133.492 1091.26 133.901C1091.26 134.311 1090.92 134.643 1090.51 134.643C1090.11 134.643 1089.77 134.311 1089.77 133.901Z" fill="#1090CB"/>
<path d="M1086.07 137.792C1086.07 137.382 1086.4 137.051 1086.81 137.051C1087.22 137.051 1087.55 137.382 1087.55 137.792C1087.55 138.201 1087.22 138.533 1086.81 138.533C1086.4 138.533 1086.07 138.201 1086.07 137.792Z" fill="#1090CB"/>
<path d="M1082.36 141.499C1082.36 141.089 1082.69 140.758 1083.1 140.758C1083.51 140.758 1083.84 141.089 1083.84 141.499C1083.84 141.908 1083.51 142.24 1083.1 142.24C1082.69 142.24 1082.36 141.908 1082.36 141.499Z" fill="#1090CB"/>
<path d="M1129.98 84.0535C1129.98 83.6442 1130.32 83.3123 1130.73 83.3123C1131.13 83.3123 1131.47 83.6442 1131.47 84.0535C1131.47 84.4629 1131.13 84.7948 1130.73 84.7948C1130.32 84.7948 1129.98 84.4629 1129.98 84.0535Z" fill="#1090CB"/>
<path d="M1126.28 87.7606C1126.28 87.3512 1126.61 87.0194 1127.02 87.0194C1127.43 87.0194 1127.76 87.3512 1127.76 87.7606C1127.76 88.1699 1127.43 88.5018 1127.02 88.5018C1126.61 88.5018 1126.28 88.1699 1126.28 87.7606Z" fill="#1090CB"/>
<path d="M1122.57 91.6513C1122.57 91.2419 1122.9 90.9101 1123.31 90.9101C1123.72 90.9101 1124.05 91.2419 1124.05 91.6513C1124.05 92.0606 1123.72 92.3925 1123.31 92.3925C1122.9 92.3925 1122.57 92.0606 1122.57 91.6513Z" fill="#1090CB"/>
<path d="M1118.87 95.3583C1118.87 94.9489 1119.2 94.6171 1119.61 94.6171C1120.02 94.6171 1120.35 94.9489 1120.35 95.3583C1120.35 95.7676 1120.02 96.0995 1119.61 96.0995C1119.2 96.0995 1118.87 95.7676 1118.87 95.3583Z" fill="#1090CB"/>
<path d="M1115.16 99.2489C1115.16 98.8395 1115.49 98.5077 1115.9 98.5077C1116.31 98.5077 1116.64 98.8395 1116.64 99.2489C1116.64 99.6583 1116.31 99.9901 1115.9 99.9901C1115.49 99.9901 1115.16 99.6583 1115.16 99.2489Z" fill="#1090CB"/>
<path d="M1111.27 102.956C1111.27 102.547 1111.6 102.215 1112.01 102.215C1112.42 102.215 1112.75 102.547 1112.75 102.956C1112.75 103.365 1112.42 103.697 1112.01 103.697C1111.6 103.697 1111.27 103.365 1111.27 102.956Z" fill="#1090CB"/>
<path d="M1107.56 106.847C1107.56 106.437 1107.89 106.105 1108.3 106.105C1108.71 106.105 1109.04 106.437 1109.04 106.847C1109.04 107.256 1108.71 107.588 1108.3 107.588C1107.89 107.588 1107.56 107.256 1107.56 106.847Z" fill="#1090CB"/>
<path d="M1103.86 110.554C1103.86 110.144 1104.19 109.812 1104.6 109.812C1105.01 109.812 1105.34 110.144 1105.34 110.554C1105.34 110.963 1105.01 111.295 1104.6 111.295C1104.19 111.295 1103.86 110.963 1103.86 110.554Z" fill="#1090CB"/>
<path d="M1100.15 114.444C1100.15 114.035 1100.48 113.703 1100.89 113.703C1101.3 113.703 1101.63 114.035 1101.63 114.444C1101.63 114.854 1101.3 115.185 1100.89 115.185C1100.48 115.185 1100.15 114.854 1100.15 114.444Z" fill="#1090CB"/>
<path d="M1096.45 118.151C1096.45 117.742 1096.78 117.41 1097.19 117.41C1097.6 117.41 1097.93 117.742 1097.93 118.151C1097.93 118.561 1097.6 118.892 1097.19 118.892C1096.78 118.892 1096.45 118.561 1096.45 118.151Z" fill="#1090CB"/>
<path d="M1092.74 122.042C1092.74 121.632 1093.07 121.301 1093.48 121.301C1093.89 121.301 1094.22 121.632 1094.22 122.042C1094.22 122.451 1093.89 122.783 1093.48 122.783C1093.07 122.783 1092.74 122.451 1092.74 122.042Z" fill="#1090CB"/>
<path d="M1089.03 125.749C1089.03 125.339 1089.36 125.008 1089.77 125.008C1090.18 125.008 1090.51 125.339 1090.51 125.749C1090.51 126.158 1090.18 126.49 1089.77 126.49C1089.36 126.49 1089.03 126.158 1089.03 125.749Z" fill="#1090CB"/>
<path d="M1085.33 129.64C1085.33 129.23 1085.66 128.899 1086.07 128.899C1086.48 128.899 1086.81 129.23 1086.81 129.64C1086.81 130.049 1086.48 130.381 1086.07 130.381C1085.66 130.381 1085.33 130.049 1085.33 129.64Z" fill="#1090CB"/>
<path d="M1081.62 133.347C1081.62 132.937 1081.95 132.605 1082.36 132.605C1082.77 132.605 1083.1 132.937 1083.1 133.347C1083.1 133.756 1082.77 134.088 1082.36 134.088C1081.95 134.088 1081.62 133.756 1081.62 133.347Z" fill="#1090CB"/>
<path d="M1077.91 137.237C1077.91 136.828 1078.25 136.496 1078.66 136.496C1079.06 136.496 1079.4 136.828 1079.4 137.237C1079.4 137.647 1079.06 137.978 1078.66 137.978C1078.25 137.978 1077.91 137.647 1077.91 137.237Z" fill="#1090CB"/>
<path d="M1125.54 79.6083C1125.54 79.1989 1125.87 78.8671 1126.28 78.8671C1126.69 78.8671 1127.02 79.1989 1127.02 79.6083C1127.02 80.0176 1126.69 80.3495 1126.28 80.3495C1125.87 80.3495 1125.54 80.0176 1125.54 79.6083Z" fill="#1090CB"/>
<path d="M1121.83 83.3153C1121.83 82.906 1122.16 82.5741 1122.57 82.5741C1122.98 82.5741 1123.31 82.906 1123.31 83.3153C1123.31 83.7247 1122.98 84.0565 1122.57 84.0565C1122.16 84.0565 1121.83 83.7247 1121.83 83.3153Z" fill="#1090CB"/>
<path d="M1118.12 87.2059C1118.12 86.7966 1118.45 86.4647 1118.86 86.4647C1119.27 86.4647 1119.6 86.7966 1119.6 87.2059C1119.6 87.6153 1119.27 87.9471 1118.86 87.9471C1118.45 87.9471 1118.12 87.6153 1118.12 87.2059Z" fill="#1090CB"/>
<path d="M1114.23 90.913C1114.23 90.5036 1114.56 90.1718 1114.97 90.1718C1115.38 90.1718 1115.71 90.5036 1115.71 90.913C1115.71 91.3223 1115.38 91.6542 1114.97 91.6542C1114.56 91.6542 1114.23 91.3223 1114.23 90.913Z" fill="#1090CB"/>
<path d="M1110.53 94.8036C1110.53 94.3942 1110.86 94.0624 1111.27 94.0624C1111.68 94.0624 1112.01 94.3942 1112.01 94.8036C1112.01 95.213 1111.68 95.5448 1111.27 95.5448C1110.86 95.5448 1110.53 95.213 1110.53 94.8036Z" fill="#1090CB"/>
<path d="M1106.82 98.6942C1106.82 98.2849 1107.15 97.953 1107.56 97.953C1107.97 97.953 1108.3 98.2849 1108.3 98.6942C1108.3 99.1036 1107.97 99.4354 1107.56 99.4354C1107.15 99.4354 1106.82 99.1036 1106.82 98.6942Z" fill="#1090CB"/>
<path d="M1103.11 102.401C1103.11 101.992 1103.45 101.66 1103.85 101.66C1104.26 101.66 1104.6 101.992 1104.6 102.401C1104.6 102.811 1104.26 103.142 1103.85 103.142C1103.45 103.142 1103.11 102.811 1103.11 102.401Z" fill="#1090CB"/>
<path d="M1099.41 106.292C1099.41 105.882 1099.74 105.551 1100.15 105.551C1100.56 105.551 1100.89 105.882 1100.89 106.292C1100.89 106.701 1100.56 107.033 1100.15 107.033C1099.74 107.033 1099.41 106.701 1099.41 106.292Z" fill="#1090CB"/>
<path d="M1095.7 109.999C1095.7 109.589 1096.03 109.258 1096.44 109.258C1096.85 109.258 1097.19 109.589 1097.19 109.999C1097.19 110.408 1096.85 110.74 1096.44 110.74C1096.03 110.74 1095.7 110.408 1095.7 109.999Z" fill="#1090CB"/>
<path d="M1092 113.89C1092 113.48 1092.33 113.148 1092.74 113.148C1093.15 113.148 1093.48 113.48 1093.48 113.89C1093.48 114.299 1093.15 114.631 1092.74 114.631C1092.33 114.631 1092 114.299 1092 113.89Z" fill="#1090CB"/>
<path d="M1088.29 117.597C1088.29 117.187 1088.62 116.855 1089.03 116.855C1089.44 116.855 1089.77 117.187 1089.77 117.597C1089.77 118.006 1089.44 118.338 1089.03 118.338C1088.62 118.338 1088.29 118.006 1088.29 117.597Z" fill="#1090CB"/>
<path d="M1084.58 121.487C1084.58 121.078 1084.91 120.746 1085.32 120.746C1085.73 120.746 1086.06 121.078 1086.06 121.487C1086.06 121.897 1085.73 122.228 1085.32 122.228C1084.91 122.228 1084.58 121.897 1084.58 121.487Z" fill="#1090CB"/>
<path d="M1080.87 125.194C1080.87 124.785 1081.21 124.453 1081.62 124.453C1082.03 124.453 1082.36 124.785 1082.36 125.194C1082.36 125.604 1082.03 125.935 1081.62 125.935C1081.21 125.935 1080.87 125.604 1080.87 125.194Z" fill="#1090CB"/>
<path d="M1077.17 129.085C1077.17 128.675 1077.5 128.344 1077.91 128.344C1078.32 128.344 1078.65 128.675 1078.65 129.085C1078.65 129.494 1078.32 129.826 1077.91 129.826C1077.5 129.826 1077.17 129.494 1077.17 129.085Z" fill="#1090CB"/>
<path d="M1073.46 132.792C1073.46 132.383 1073.8 132.051 1074.21 132.051C1074.62 132.051 1074.95 132.383 1074.95 132.792C1074.95 133.201 1074.62 133.533 1074.21 133.533C1073.8 133.533 1073.46 133.201 1073.46 132.792Z" fill="#1090CB"/>
<path d="M1121.09 75.1628C1121.09 74.7535 1121.42 74.4216 1121.83 74.4216C1122.24 74.4216 1122.57 74.7535 1122.57 75.1628C1122.57 75.5722 1122.24 75.9041 1121.83 75.9041C1121.42 75.9041 1121.09 75.5722 1121.09 75.1628Z" fill="#1090CB"/>
<path d="M1117.2 79.0536C1117.2 78.6442 1117.53 78.3124 1117.94 78.3124C1118.35 78.3124 1118.68 78.6442 1118.68 79.0536C1118.68 79.463 1118.35 79.7948 1117.94 79.7948C1117.53 79.7948 1117.2 79.463 1117.2 79.0536Z" fill="#1090CB"/>
<path d="M1113.49 82.7606C1113.49 82.3513 1113.82 82.0194 1114.23 82.0194C1114.64 82.0194 1114.97 82.3513 1114.97 82.7606C1114.97 83.17 1114.64 83.5018 1114.23 83.5018C1113.82 83.5018 1113.49 83.17 1113.49 82.7606Z" fill="#1090CB"/>
<path d="M1109.78 86.6513C1109.78 86.2419 1110.11 85.91 1110.52 85.91C1110.93 85.91 1111.26 86.2419 1111.26 86.6513C1111.26 87.0606 1110.93 87.3925 1110.52 87.3925C1110.11 87.3925 1109.78 87.0606 1109.78 86.6513Z" fill="#1090CB"/>
<path d="M1106.08 90.3583C1106.08 89.9489 1106.41 89.617 1106.82 89.617C1107.23 89.617 1107.56 89.9489 1107.56 90.3583C1107.56 90.7676 1107.23 91.0995 1106.82 91.0995C1106.41 91.0995 1106.08 90.7676 1106.08 90.3583Z" fill="#1090CB"/>
<path d="M1102.37 94.249C1102.37 93.8396 1102.7 93.5078 1103.11 93.5078C1103.52 93.5078 1103.85 93.8396 1103.85 94.249C1103.85 94.6583 1103.52 94.9902 1103.11 94.9902C1102.7 94.9902 1102.37 94.6583 1102.37 94.249Z" fill="#1090CB"/>
<path d="M1098.66 97.9559C1098.66 97.5465 1099 97.2147 1099.41 97.2147C1099.81 97.2147 1100.15 97.5465 1100.15 97.9559C1100.15 98.3652 1099.81 98.6971 1099.41 98.6971C1099 98.6971 1098.66 98.3652 1098.66 97.9559Z" fill="#1090CB"/>
<path d="M1094.96 101.847C1094.96 101.437 1095.29 101.105 1095.7 101.105C1096.11 101.105 1096.44 101.437 1096.44 101.847C1096.44 102.256 1096.11 102.588 1095.7 102.588C1095.29 102.588 1094.96 102.256 1094.96 101.847Z" fill="#1090CB"/>
<path d="M1091.25 105.554C1091.25 105.144 1091.59 104.812 1092 104.812C1092.4 104.812 1092.74 105.144 1092.74 105.554C1092.74 105.963 1092.4 106.295 1092 106.295C1091.59 106.295 1091.25 105.963 1091.25 105.554Z" fill="#1090CB"/>
<path d="M1087.55 109.444C1087.55 109.035 1087.88 108.703 1088.29 108.703C1088.7 108.703 1089.03 109.035 1089.03 109.444C1089.03 109.854 1088.7 110.185 1088.29 110.185C1087.88 110.185 1087.55 109.854 1087.55 109.444Z" fill="#1090CB"/>
<path d="M1083.84 113.335C1083.84 112.925 1084.17 112.594 1084.58 112.594C1084.99 112.594 1085.32 112.925 1085.32 113.335C1085.32 113.744 1084.99 114.076 1084.58 114.076C1084.17 114.076 1083.84 113.744 1083.84 113.335Z" fill="#1090CB"/>
<path d="M1080.13 117.042C1080.13 116.633 1080.46 116.301 1080.87 116.301C1081.28 116.301 1081.62 116.633 1081.62 117.042C1081.62 117.451 1081.28 117.783 1080.87 117.783C1080.46 117.783 1080.13 117.451 1080.13 117.042Z" fill="#1090CB"/>
<path d="M1076.43 120.933C1076.43 120.523 1076.76 120.191 1077.17 120.191C1077.58 120.191 1077.91 120.523 1077.91 120.933C1077.91 121.342 1077.58 121.674 1077.17 121.674C1076.76 121.674 1076.43 121.342 1076.43 120.933Z" fill="#1090CB"/>
<path d="M1072.72 124.64C1072.72 124.23 1073.05 123.898 1073.46 123.898C1073.87 123.898 1074.21 124.23 1074.21 124.64C1074.21 125.049 1073.87 125.381 1073.46 125.381C1073.05 125.381 1072.72 125.049 1072.72 124.64Z" fill="#1090CB"/>
<path d="M1069.02 128.53C1069.02 128.121 1069.35 127.789 1069.76 127.789C1070.17 127.789 1070.5 128.121 1070.5 128.53C1070.5 128.939 1070.17 129.271 1069.76 129.271C1069.35 129.271 1069.02 128.939 1069.02 128.53Z" fill="#1090CB"/>
<path d="M1116.46 70.8973C1116.46 70.488 1116.79 70.1561 1117.2 70.1561C1117.61 70.1561 1117.94 70.488 1117.94 70.8973C1117.94 71.3067 1117.61 71.6385 1117.2 71.6385C1116.79 71.6385 1116.46 71.3067 1116.46 70.8973Z" fill="#1090CB"/>
<path d="M1112.75 74.6044C1112.75 74.195 1113.08 73.8631 1113.49 73.8631C1113.9 73.8631 1114.23 74.195 1114.23 74.6044C1114.23 75.0137 1113.9 75.3456 1113.49 75.3456C1113.08 75.3456 1112.75 75.0137 1112.75 74.6044Z" fill="#1090CB"/>
<path d="M1109.04 78.4949C1109.04 78.0856 1109.37 77.7537 1109.78 77.7537C1110.19 77.7537 1110.53 78.0856 1110.53 78.4949C1110.53 78.9043 1110.19 79.2362 1109.78 79.2362C1109.37 79.2362 1109.04 78.9043 1109.04 78.4949Z" fill="#1090CB"/>
<path d="M1105.34 82.202C1105.34 81.7926 1105.67 81.4608 1106.08 81.4608C1106.49 81.4608 1106.82 81.7926 1106.82 82.202C1106.82 82.6113 1106.49 82.9432 1106.08 82.9432C1105.67 82.9432 1105.34 82.6113 1105.34 82.202Z" fill="#1090CB"/>
<path d="M1101.63 86.0927C1101.63 85.6833 1101.96 85.3515 1102.37 85.3515C1102.78 85.3515 1103.11 85.6833 1103.11 86.0927C1103.11 86.502 1102.78 86.8339 1102.37 86.8339C1101.96 86.8339 1101.63 86.502 1101.63 86.0927Z" fill="#1090CB"/>
<path d="M1097.93 89.7998C1097.93 89.3905 1098.26 89.0586 1098.67 89.0586C1099.08 89.0586 1099.41 89.3905 1099.41 89.7998C1099.41 90.2092 1099.08 90.541 1098.67 90.541C1098.26 90.541 1097.93 90.2092 1097.93 89.7998Z" fill="#1090CB"/>
<path d="M1094.22 93.6903C1094.22 93.281 1094.55 92.9491 1094.96 92.9491C1095.37 92.9491 1095.7 93.281 1095.7 93.6903C1095.7 94.0997 1095.37 94.4315 1094.96 94.4315C1094.55 94.4315 1094.22 94.0997 1094.22 93.6903Z" fill="#1090CB"/>
<path d="M1090.52 97.3973C1090.52 96.988 1090.85 96.6561 1091.26 96.6561C1091.67 96.6561 1092 96.988 1092 97.3973C1092 97.8067 1091.67 98.1385 1091.26 98.1385C1090.85 98.1385 1090.52 97.8067 1090.52 97.3973Z" fill="#1090CB"/>
<path d="M1086.81 101.288C1086.81 100.879 1087.14 100.547 1087.55 100.547C1087.96 100.547 1088.29 100.879 1088.29 101.288C1088.29 101.697 1087.96 102.029 1087.55 102.029C1087.14 102.029 1086.81 101.697 1086.81 101.288Z" fill="#1090CB"/>
<path d="M1083.1 104.995C1083.1 104.586 1083.43 104.254 1083.84 104.254C1084.25 104.254 1084.58 104.586 1084.58 104.995C1084.58 105.404 1084.25 105.736 1083.84 105.736C1083.43 105.736 1083.1 105.404 1083.1 104.995Z" fill="#1090CB"/>
<path d="M1079.39 108.886C1079.39 108.476 1079.73 108.144 1080.14 108.144C1080.55 108.144 1080.88 108.476 1080.88 108.886C1080.88 109.295 1080.55 109.627 1080.14 109.627C1079.73 109.627 1079.39 109.295 1079.39 108.886Z" fill="#1090CB"/>
<path d="M1075.69 112.593C1075.69 112.183 1076.02 111.851 1076.43 111.851C1076.84 111.851 1077.17 112.183 1077.17 112.593C1077.17 113.002 1076.84 113.334 1076.43 113.334C1076.02 113.334 1075.69 113.002 1075.69 112.593Z" fill="#1090CB"/>
<path d="M1071.98 116.483C1071.98 116.074 1072.32 115.742 1072.73 115.742C1073.13 115.742 1073.47 116.074 1073.47 116.483C1073.47 116.893 1073.13 117.224 1072.73 117.224C1072.32 117.224 1071.98 116.893 1071.98 116.483Z" fill="#1090CB"/>
<path d="M1068.28 120.19C1068.28 119.781 1068.61 119.449 1069.02 119.449C1069.43 119.449 1069.76 119.781 1069.76 120.19C1069.76 120.6 1069.43 120.932 1069.02 120.932C1068.61 120.932 1068.28 120.6 1068.28 120.19Z" fill="#1090CB"/>
<path d="M1064.57 124.081C1064.57 123.672 1064.9 123.34 1065.31 123.34C1065.72 123.34 1066.05 123.672 1066.05 124.081C1066.05 124.49 1065.72 124.822 1065.31 124.822C1064.9 124.822 1064.57 124.49 1064.57 124.081Z" fill="#1090CB"/>
<path d="M1112.01 66.452C1112.01 66.0426 1112.34 65.7108 1112.75 65.7108C1113.16 65.7108 1113.49 66.0426 1113.49 66.452C1113.49 66.8613 1113.16 67.1932 1112.75 67.1932C1112.34 67.1932 1112.01 66.8613 1112.01 66.452Z" fill="#1090CB"/>
<path d="M1108.3 70.3466C1108.3 69.9372 1108.63 69.6054 1109.04 69.6054C1109.45 69.6054 1109.78 69.9372 1109.78 70.3466C1109.78 70.7559 1109.45 71.0878 1109.04 71.0878C1108.63 71.0878 1108.3 70.7559 1108.3 70.3466Z" fill="#1090CB"/>
<path d="M1104.59 74.0497C1104.59 73.6403 1104.93 73.3085 1105.33 73.3085C1105.74 73.3085 1106.08 73.6403 1106.08 74.0497C1106.08 74.4591 1105.74 74.7909 1105.33 74.7909C1104.93 74.7909 1104.59 74.4591 1104.59 74.0497Z" fill="#1090CB"/>
<path d="M1100.89 77.9442C1100.89 77.5349 1101.22 77.203 1101.63 77.203C1102.04 77.203 1102.37 77.5349 1102.37 77.9442C1102.37 78.3536 1102.04 78.6854 1101.63 78.6854C1101.22 78.6854 1100.89 78.3536 1100.89 77.9442Z" fill="#1090CB"/>
<path d="M1097.18 81.6473C1097.18 81.238 1097.52 80.9061 1097.92 80.9061C1098.33 80.9061 1098.67 81.238 1098.67 81.6473C1098.67 82.0567 1098.33 82.3885 1097.92 82.3885C1097.52 82.3885 1097.18 82.0567 1097.18 81.6473Z" fill="#1090CB"/>
<path d="M1093.48 85.538C1093.48 85.1286 1093.81 84.7968 1094.22 84.7968C1094.63 84.7968 1094.96 85.1286 1094.96 85.538C1094.96 85.9473 1094.63 86.2792 1094.22 86.2792C1093.81 86.2792 1093.48 85.9473 1093.48 85.538Z" fill="#1090CB"/>
<path d="M1089.77 89.245C1089.77 88.8356 1090.1 88.5038 1090.51 88.5038C1090.92 88.5038 1091.25 88.8356 1091.25 89.245C1091.25 89.6544 1090.92 89.9862 1090.51 89.9862C1090.1 89.9862 1089.77 89.6544 1089.77 89.245Z" fill="#1090CB"/>
<path d="M1086.07 93.1356C1086.07 92.7263 1086.4 92.3944 1086.81 92.3944C1087.22 92.3944 1087.55 92.7263 1087.55 93.1356C1087.55 93.545 1087.22 93.8768 1086.81 93.8768C1086.4 93.8768 1086.07 93.545 1086.07 93.1356Z" fill="#1090CB"/>
<path d="M1082.36 96.8427C1082.36 96.4333 1082.69 96.1014 1083.1 96.1014C1083.51 96.1014 1083.84 96.4333 1083.84 96.8427C1083.84 97.252 1083.51 97.5839 1083.1 97.5839C1082.69 97.5839 1082.36 97.252 1082.36 96.8427Z" fill="#1090CB"/>
<path d="M1078.65 100.733C1078.65 100.324 1078.98 99.992 1079.39 99.992C1079.8 99.992 1080.13 100.324 1080.13 100.733C1080.13 101.143 1079.8 101.474 1079.39 101.474C1078.98 101.474 1078.65 101.143 1078.65 100.733Z" fill="#1090CB"/>
<path d="M1074.95 104.44C1074.95 104.031 1075.28 103.699 1075.69 103.699C1076.1 103.699 1076.43 104.031 1076.43 104.44C1076.43 104.85 1076.1 105.182 1075.69 105.182C1075.28 105.182 1074.95 104.85 1074.95 104.44Z" fill="#1090CB"/>
<path d="M1071.24 108.331C1071.24 107.922 1071.57 107.59 1071.98 107.59C1072.39 107.59 1072.72 107.922 1072.72 108.331C1072.72 108.74 1072.39 109.072 1071.98 109.072C1071.57 109.072 1071.24 108.74 1071.24 108.331Z" fill="#1090CB"/>
<path d="M1067.54 112.038C1067.54 111.629 1067.87 111.297 1068.28 111.297C1068.69 111.297 1069.02 111.629 1069.02 112.038C1069.02 112.447 1068.69 112.779 1068.28 112.779C1067.87 112.779 1067.54 112.447 1067.54 112.038Z" fill="#1090CB"/>
<path d="M1063.64 115.929C1063.64 115.519 1063.98 115.187 1064.39 115.187C1064.8 115.187 1065.13 115.519 1065.13 115.929C1065.13 116.338 1064.8 116.67 1064.39 116.67C1063.98 116.67 1063.64 116.338 1063.64 115.929Z" fill="#1090CB"/>
<path d="M1059.94 119.636C1059.94 119.226 1060.27 118.894 1060.68 118.894C1061.09 118.894 1061.42 119.226 1061.42 119.636C1061.42 120.045 1061.09 120.377 1060.68 120.377C1060.27 120.377 1059.94 120.045 1059.94 119.636Z" fill="#1090CB"/>
<path d="M1107.56 62.0067C1107.56 61.5974 1107.89 61.2655 1108.3 61.2655C1108.71 61.2655 1109.04 61.5974 1109.04 62.0067C1109.04 62.4161 1108.71 62.7479 1108.3 62.7479C1107.89 62.7479 1107.56 62.4161 1107.56 62.0067Z" fill="#1090CB"/>
<path d="M1103.86 65.8973C1103.86 65.488 1104.19 65.1561 1104.6 65.1561C1105.01 65.1561 1105.34 65.488 1105.34 65.8973C1105.34 66.3067 1105.01 66.6385 1104.6 66.6385C1104.19 66.6385 1103.86 66.3067 1103.86 65.8973Z" fill="#1090CB"/>
<path d="M1100.15 69.6044C1100.15 69.195 1100.48 68.8632 1100.89 68.8632C1101.3 68.8632 1101.63 69.195 1101.63 69.6044C1101.63 70.0137 1101.3 70.3456 1100.89 70.3456C1100.48 70.3456 1100.15 70.0137 1100.15 69.6044Z" fill="#1090CB"/>
<path d="M1096.45 73.495C1096.45 73.0856 1096.78 72.7538 1097.19 72.7538C1097.6 72.7538 1097.93 73.0856 1097.93 73.495C1097.93 73.9044 1097.6 74.2362 1097.19 74.2362C1096.78 74.2362 1096.45 73.9044 1096.45 73.495Z" fill="#1090CB"/>
<path d="M1092.74 77.202C1092.74 76.7927 1093.07 76.4608 1093.48 76.4608C1093.89 76.4608 1094.22 76.7927 1094.22 77.202C1094.22 77.6114 1093.89 77.9432 1093.48 77.9432C1093.07 77.9432 1092.74 77.6114 1092.74 77.202Z" fill="#1090CB"/>
<path d="M1089.03 81.0928C1089.03 80.6834 1089.36 80.3515 1089.77 80.3515C1090.18 80.3515 1090.51 80.6834 1090.51 81.0928C1090.51 81.5021 1090.18 81.834 1089.77 81.834C1089.36 81.834 1089.03 81.5021 1089.03 81.0928Z" fill="#1090CB"/>
<path d="M1085.32 84.9832C1085.32 84.5739 1085.66 84.242 1086.07 84.242C1086.47 84.242 1086.81 84.5739 1086.81 84.9832C1086.81 85.3926 1086.47 85.7245 1086.07 85.7245C1085.66 85.7245 1085.32 85.3926 1085.32 84.9832Z" fill="#1090CB"/>
<path d="M1081.62 88.6901C1081.62 88.2808 1081.95 87.9489 1082.36 87.9489C1082.77 87.9489 1083.1 88.2808 1083.1 88.6901C1083.1 89.0995 1082.77 89.4314 1082.36 89.4314C1081.95 89.4314 1081.62 89.0995 1081.62 88.6901Z" fill="#1090CB"/>
<path d="M1077.91 92.5809C1077.91 92.1716 1078.25 91.8397 1078.66 91.8397C1079.06 91.8397 1079.4 92.1716 1079.4 92.5809C1079.4 92.9903 1079.06 93.3221 1078.66 93.3221C1078.25 93.3221 1077.91 92.9903 1077.91 92.5809Z" fill="#1090CB"/>
<path d="M1074.21 96.288C1074.21 95.8786 1074.54 95.5468 1074.95 95.5468C1075.36 95.5468 1075.69 95.8786 1075.69 96.288C1075.69 96.6973 1075.36 97.0292 1074.95 97.0292C1074.54 97.0292 1074.21 96.6973 1074.21 96.288Z" fill="#1090CB"/>
<path d="M1070.5 100.179C1070.5 99.7692 1070.83 99.4374 1071.24 99.4374C1071.65 99.4374 1071.98 99.7692 1071.98 100.179C1071.98 100.588 1071.65 100.92 1071.24 100.92C1070.83 100.92 1070.5 100.588 1070.5 100.179Z" fill="#1090CB"/>
<path d="M1066.61 103.886C1066.61 103.476 1066.94 103.144 1067.35 103.144C1067.76 103.144 1068.09 103.476 1068.09 103.886C1068.09 104.295 1067.76 104.627 1067.35 104.627C1066.94 104.627 1066.61 104.295 1066.61 103.886Z" fill="#1090CB"/>
<path d="M1062.9 107.776C1062.9 107.367 1063.23 107.035 1063.64 107.035C1064.05 107.035 1064.38 107.367 1064.38 107.776C1064.38 108.186 1064.05 108.517 1063.64 108.517C1063.23 108.517 1062.9 108.186 1062.9 107.776Z" fill="#1090CB"/>
<path d="M1059.2 111.483C1059.2 111.074 1059.53 110.742 1059.94 110.742C1060.35 110.742 1060.68 111.074 1060.68 111.483C1060.68 111.893 1060.35 112.224 1059.94 112.224C1059.53 112.224 1059.2 111.893 1059.2 111.483Z" fill="#1090CB"/>
<path d="M1055.49 115.374C1055.49 114.965 1055.82 114.633 1056.23 114.633C1056.64 114.633 1056.97 114.965 1056.97 115.374C1056.97 115.783 1056.64 116.115 1056.23 116.115C1055.82 116.115 1055.49 115.783 1055.49 115.374Z" fill="#1090CB"/>
<path d="M1103.11 57.7411C1103.11 57.3317 1103.45 56.9999 1103.85 56.9999C1104.26 56.9999 1104.6 57.3317 1104.6 57.7411C1104.6 58.1505 1104.26 58.4823 1103.85 58.4823C1103.45 58.4823 1103.11 58.1505 1103.11 57.7411Z" fill="#1090CB"/>
<path d="M1099.41 61.4481C1099.41 61.0388 1099.74 60.7069 1100.15 60.7069C1100.56 60.7069 1100.89 61.0388 1100.89 61.4481C1100.89 61.8575 1100.56 62.1893 1100.15 62.1893C1099.74 62.1893 1099.41 61.8575 1099.41 61.4481Z" fill="#1090CB"/>
<path d="M1095.7 65.3388C1095.7 64.9294 1096.03 64.5975 1096.44 64.5975C1096.85 64.5975 1097.18 64.9294 1097.18 65.3388C1097.18 65.7481 1096.85 66.08 1096.44 66.08C1096.03 66.08 1095.7 65.7481 1095.7 65.3388Z" fill="#1090CB"/>
<path d="M1092 69.0459C1092 68.6365 1092.33 68.3046 1092.74 68.3046C1093.15 68.3046 1093.48 68.6365 1093.48 69.0459C1093.48 69.4553 1093.15 69.7871 1092.74 69.7871C1092.33 69.7871 1092 69.4553 1092 69.0459Z" fill="#1090CB"/>
<path d="M1088.29 72.9364C1088.29 72.527 1088.62 72.1951 1089.03 72.1951C1089.44 72.1951 1089.77 72.527 1089.77 72.9364C1089.77 73.3457 1089.44 73.6776 1089.03 73.6776C1088.62 73.6776 1088.29 73.3457 1088.29 72.9364Z" fill="#1090CB"/>
<path d="M1084.58 76.6434C1084.58 76.234 1084.91 75.9022 1085.32 75.9022C1085.73 75.9022 1086.06 76.234 1086.06 76.6434C1086.06 77.0527 1085.73 77.3846 1085.32 77.3846C1084.91 77.3846 1084.58 77.0527 1084.58 76.6434Z" fill="#1090CB"/>
<path d="M1080.87 80.5341C1080.87 80.1247 1081.21 79.7929 1081.62 79.7929C1082.03 79.7929 1082.36 80.1247 1082.36 80.5341C1082.36 80.9434 1082.03 81.2753 1081.62 81.2753C1081.21 81.2753 1080.87 80.9434 1080.87 80.5341Z" fill="#1090CB"/>
<path d="M1077.17 84.2411C1077.17 83.8317 1077.5 83.4999 1077.91 83.4999C1078.32 83.4999 1078.65 83.8317 1078.65 84.2411C1078.65 84.6505 1078.32 84.9823 1077.91 84.9823C1077.5 84.9823 1077.17 84.6505 1077.17 84.2411Z" fill="#1090CB"/>
<path d="M1073.46 88.1317C1073.46 87.7224 1073.8 87.3905 1074.21 87.3905C1074.62 87.3905 1074.95 87.7224 1074.95 88.1317C1074.95 88.5411 1074.62 88.8729 1074.21 88.8729C1073.8 88.8729 1073.46 88.5411 1073.46 88.1317Z" fill="#1090CB"/>
<path d="M1069.57 91.8388C1069.57 91.4294 1069.91 91.0976 1070.32 91.0976C1070.72 91.0976 1071.06 91.4294 1071.06 91.8388C1071.06 92.2481 1070.72 92.58 1070.32 92.58C1069.91 92.58 1069.57 92.2481 1069.57 91.8388Z" fill="#1090CB"/>
<path d="M1065.87 95.7294C1065.87 95.32 1066.2 94.9882 1066.61 94.9882C1067.02 94.9882 1067.35 95.32 1067.35 95.7294C1067.35 96.1387 1067.02 96.4706 1066.61 96.4706C1066.2 96.4706 1065.87 96.1387 1065.87 95.7294Z" fill="#1090CB"/>
<path d="M1062.16 99.62C1062.16 99.2106 1062.49 98.8787 1062.9 98.8787C1063.31 98.8787 1063.64 99.2106 1063.64 99.62C1063.64 100.029 1063.31 100.361 1062.9 100.361C1062.49 100.361 1062.16 100.029 1062.16 99.62Z" fill="#1090CB"/>
<path d="M1058.46 103.327C1058.46 102.918 1058.79 102.586 1059.2 102.586C1059.61 102.586 1059.94 102.918 1059.94 103.327C1059.94 103.736 1059.61 104.068 1059.2 104.068C1058.79 104.068 1058.46 103.736 1058.46 103.327Z" fill="#1090CB"/>
<path d="M1054.75 107.218C1054.75 106.808 1055.08 106.476 1055.49 106.476C1055.9 106.476 1056.23 106.808 1056.23 107.218C1056.23 107.627 1055.9 107.959 1055.49 107.959C1055.08 107.959 1054.75 107.627 1054.75 107.218Z" fill="#1090CB"/>
<path d="M1051.04 110.925C1051.04 110.515 1051.37 110.183 1051.78 110.183C1052.19 110.183 1052.53 110.515 1052.53 110.925C1052.53 111.334 1052.19 111.666 1051.78 111.666C1051.37 111.666 1051.04 111.334 1051.04 110.925Z" fill="#1090CB"/>
<path d="M981.629 169.586C981.306 167.699 982.574 165.908 984.461 165.586C986.347 165.263 988.138 166.531 988.461 168.417C988.783 170.304 987.516 172.095 985.629 172.417C983.743 172.74 981.952 171.472 981.629 169.586Z" fill="#43DC77"/>
<path d="M624.844 84.9985L625.85 85.7704L617.23 96.9985L616.225 96.2266L624.844 84.9985Z" fill="#09E6DF"/>
<path d="M615.817 86.237L627.045 94.8563L626.273 95.8618L615.045 87.2425L615.817 86.237Z" fill="#09E6DF"/>
<path d="M934.844 -0.00149115L935.85 0.770386L927.23 11.9985L926.225 11.2266L934.844 -0.00149115Z" fill="#1090CB"/>
<path d="M925.817 1.23705L937.045 9.85632L936.273 10.8618L925.045 2.24255L925.817 1.23705Z" fill="#1090CB"/>
</svg>
