<svg width="185" height="55" viewBox="0 0 185 55" fill="none" xmlns="http://www.w3.org/2000/svg">
<g clip-path="url(#clip0_89_1851)">
<path d="M178.148 0H6.85185C3.06768 0 0 3.07804 0 6.875V48.125C0 51.922 3.06768 55 6.85185 55H178.148C181.932 55 185 51.922 185 48.125V6.875C185 3.07804 181.932 0 178.148 0Z" fill="white"/>
<path d="M178.148 1.1C179.675 1.1 181.139 1.70844 182.218 2.79146C183.297 3.87448 183.904 5.34337 183.904 6.875V48.125C183.904 49.6566 183.297 51.1255 182.218 52.2085C181.139 53.2916 179.675 53.9 178.148 53.9H6.85185C5.32538 53.9 3.86144 53.2916 2.78206 52.2085C1.70268 51.1255 1.0963 49.6566 1.0963 48.125V6.875C1.0963 5.34337 1.70268 3.87448 2.78206 2.79146C3.86144 1.70844 5.32538 1.1 6.85185 1.1H178.148ZM178.148 0H6.85185C5.03463 0 3.29183 0.724328 2.00686 2.01364C0.721889 3.30295 0 5.05164 0 6.875V48.125C0 49.9484 0.721889 51.697 2.00686 52.9864C3.29183 54.2757 5.03463 55 6.85185 55H178.148C179.965 55 181.708 54.2757 182.993 52.9864C184.278 51.697 185 49.9484 185 48.125V6.875C185 5.05164 184.278 3.30295 182.993 2.01364C181.708 0.724328 179.965 0 178.148 0Z" fill="black"/>
<path d="M93.377 29.9062C92.2224 29.9089 91.0945 30.2551 90.136 30.901C89.1775 31.5469 88.4314 32.4635 87.992 33.5348C87.5527 34.6062 87.4398 35.7842 87.6678 36.9199C87.8957 38.0556 88.4541 39.098 89.2724 39.9153C90.0908 40.7325 91.1323 41.288 92.2652 41.5113C93.3982 41.7346 94.5717 41.6159 95.6373 41.17C96.703 40.7242 97.613 39.9713 98.2522 39.0065C98.8914 38.0417 99.2311 36.9085 99.2284 35.75C99.2396 34.9771 99.0957 34.2099 98.8052 33.4941C98.5148 32.7782 98.0837 32.1283 97.5377 31.583C96.9918 31.0378 96.342 30.6083 95.6272 30.3203C94.9124 30.0322 94.1471 29.8914 93.377 29.9062V29.9062ZM93.377 39.2975C92.6693 39.3471 91.9631 39.182 91.3501 38.8236C90.7372 38.4652 90.2459 37.9301 89.9401 37.2878C89.6343 36.6455 89.5281 35.9258 89.6354 35.2222C89.7427 34.5185 90.0584 33.8636 90.5416 33.3424C91.0248 32.8212 91.6531 32.4579 92.3448 32.2998C93.0364 32.1416 93.7595 32.1959 94.4201 32.4556C95.0806 32.7152 95.648 33.1683 96.0485 33.7558C96.449 34.3433 96.6641 35.0381 96.6658 35.75C96.6879 36.201 96.6198 36.6519 96.4654 37.076C96.311 37.5002 96.0736 37.8891 95.7671 38.2197C95.4605 38.5503 95.0911 38.816 94.6807 39.0011C94.2702 39.1862 93.8269 39.287 93.377 39.2975ZM80.6051 29.9062C79.4505 29.9089 78.3226 30.2551 77.3641 30.901C76.4056 31.5469 75.6595 32.4635 75.2202 33.5348C74.7808 34.6062 74.668 35.7842 74.8959 36.9199C75.1238 38.0556 75.6822 39.098 76.5006 39.9153C77.3189 40.7325 78.3604 41.288 79.4934 41.5113C80.6263 41.7346 81.7998 41.6159 82.8655 41.17C83.9312 40.7242 84.8411 39.9713 85.4804 39.0065C86.1196 38.0417 86.4593 36.9085 86.4566 35.75C86.4677 34.9771 86.3238 34.2099 86.0334 33.4941C85.7429 32.7782 85.3119 32.1283 84.7659 31.583C84.2199 31.0378 83.5702 30.6083 82.8554 30.3203C82.1406 30.0322 81.3753 29.8914 80.6051 29.9062V29.9062ZM80.6051 39.2975C79.8974 39.3471 79.1912 39.182 78.5783 38.8236C77.9653 38.4652 77.474 37.9301 77.1682 37.2878C76.8624 36.6455 76.7563 35.9258 76.8635 35.2222C76.9708 34.5185 77.2866 33.8636 77.7698 33.3424C78.2529 32.8212 78.8812 32.4579 79.5729 32.2998C80.2646 32.1416 80.9877 32.1959 81.6482 32.4556C82.3087 32.7152 82.8761 33.1683 83.2766 33.7558C83.6772 34.3433 83.8923 35.0381 83.894 35.75C83.9161 36.201 83.8479 36.6519 83.6935 37.076C83.5392 37.5002 83.3017 37.8891 82.9952 38.2197C82.6887 38.5503 82.3193 38.816 81.9088 39.0011C81.4983 39.1862 81.055 39.287 80.6051 39.2975ZM65.4214 31.7075V34.1825H71.3414C71.2486 35.3482 70.7656 36.4482 69.971 37.3037C69.3772 37.9108 68.6629 38.386 67.8745 38.6987C67.0861 39.0113 66.241 39.1544 65.394 39.1187C63.6495 39.1187 61.9764 38.4234 60.7428 37.1856C59.5092 35.9479 58.8162 34.2691 58.8162 32.5187C58.8162 30.7683 59.5092 29.0895 60.7428 27.8518C61.9764 26.6141 63.6495 25.9187 65.394 25.9187C67.0665 25.8937 68.6814 26.531 69.8888 27.6925L71.6292 25.9462C70.8124 25.1357 69.8426 24.4968 68.7767 24.0671C67.7107 23.6374 66.57 23.4254 65.4214 23.4437C64.2031 23.3961 62.9878 23.5958 61.8483 24.0308C60.7088 24.4658 59.6685 25.1271 58.7898 25.9751C57.9111 26.8231 57.2121 27.8404 56.7346 28.966C56.2571 30.0916 56.011 31.3023 56.011 32.5256C56.011 33.7489 56.2571 34.9596 56.7346 36.0852C57.2121 37.2108 57.9111 38.228 58.7898 39.0761C59.6685 39.9241 60.7088 40.5854 61.8483 41.0204C62.9878 41.4553 64.2031 41.655 65.4214 41.6075C66.5936 41.6544 67.7625 41.4521 68.8513 41.0137C69.9401 40.5753 70.9241 39.9107 71.7388 39.0637C73.1779 37.4775 73.9446 35.3913 73.8766 33.2475C73.8815 32.7315 73.8402 32.2161 73.7532 31.7075H65.4214ZM127.513 33.6325C127.156 32.5775 126.487 31.6563 125.596 30.9909C124.706 30.3255 123.635 29.9472 122.525 29.9062C121.775 29.9047 121.033 30.0575 120.345 30.3552C119.656 30.6528 119.036 31.089 118.522 31.6367C118.009 32.1844 117.612 32.832 117.358 33.5395C117.103 34.247 116.996 34.9993 117.043 35.75C117.032 37.0051 117.425 38.2304 118.164 39.2428C118.904 40.2552 119.95 41.0004 121.146 41.367C122.343 41.7337 123.625 41.7021 124.803 41.2771C125.98 40.852 126.988 40.0563 127.677 39.0087L125.69 37.6337C125.394 38.1291 124.974 38.5382 124.472 38.8204C123.969 39.1026 123.402 39.2481 122.826 39.2425C122.232 39.2671 121.645 39.1108 121.141 38.7942C120.637 38.4777 120.241 38.0156 120.003 37.4687L127.801 34.2375L127.513 33.6325ZM119.565 35.585C119.537 35.1579 119.594 34.7295 119.734 34.3249C119.873 33.9204 120.091 33.5478 120.376 33.2289C120.66 32.9101 121.006 32.6514 121.391 32.4681C121.776 32.2847 122.195 32.1804 122.621 32.1612C123.062 32.1342 123.502 32.2385 123.885 32.461C124.267 32.6836 124.576 33.0146 124.772 33.4125L119.565 35.585ZM113.234 41.25H115.796V24.0625H113.234V41.25ZM109.04 31.2125H108.944C108.562 30.775 108.089 30.4257 107.559 30.1884C107.03 29.9511 106.455 29.8314 105.875 29.8375C104.377 29.9103 102.965 30.5585 101.931 31.6478C100.897 32.737 100.32 34.1837 100.32 35.6881C100.32 37.1925 100.897 38.6392 101.931 39.7284C102.965 40.8176 104.377 41.4658 105.875 41.5387C106.456 41.5504 107.032 41.4332 107.563 41.1955C108.093 40.9578 108.565 40.6055 108.944 40.1637H109.04V41.0025C109.04 43.2437 107.848 44.44 105.93 44.44C105.289 44.4258 104.666 44.2209 104.142 43.8512C103.617 43.4816 103.214 42.9638 102.983 42.3637L100.763 43.285C101.174 44.3193 101.887 45.2043 102.81 45.823C103.732 46.4417 104.82 46.7649 105.93 46.75C108.931 46.75 111.411 44.9762 111.411 40.6587V30.25H109.04V31.2125ZM106.094 39.2975C105.196 39.2413 104.353 38.8438 103.737 38.186C103.121 37.5282 102.778 36.6595 102.778 35.7568C102.778 34.8542 103.121 33.9855 103.737 33.3277C104.353 32.6698 105.196 32.2724 106.094 32.2162C106.533 32.2352 106.963 32.3426 107.36 32.532C107.757 32.7213 108.111 32.9888 108.403 33.3185C108.694 33.6482 108.917 34.0334 109.057 34.4511C109.197 34.8688 109.252 35.3105 109.218 35.75C109.256 36.1909 109.204 36.6349 109.065 37.055C108.927 37.4752 108.705 37.8628 108.413 38.1944C108.121 38.526 107.764 38.7948 107.366 38.9843C106.967 39.1739 106.535 39.2805 106.094 39.2975V39.2975ZM139.517 24.0625H133.378V41.25H135.941V34.7325H139.517C140.248 34.7851 140.981 34.6862 141.672 34.442C142.362 34.1977 142.995 33.8133 143.531 33.3128C144.067 32.8122 144.495 32.2062 144.787 31.5326C145.079 30.859 145.23 30.1322 145.23 29.3975C145.23 28.6628 145.079 27.9359 144.787 27.2623C144.495 26.5887 144.067 25.9827 143.531 25.4822C142.995 24.9816 142.362 24.5972 141.672 24.353C140.981 24.1087 140.248 24.0098 139.517 24.0625V24.0625ZM139.517 32.3125H135.941V26.455H139.572C139.957 26.455 140.339 26.5311 140.694 26.6789C141.05 26.8268 141.373 27.0436 141.646 27.3168C141.918 27.59 142.134 27.9144 142.282 28.2714C142.429 28.6284 142.505 29.011 142.505 29.3975C142.505 29.7839 142.429 30.1665 142.282 30.5235C142.134 30.8805 141.918 31.2049 141.646 31.4781C141.373 31.7514 141.05 31.9681 140.694 32.116C140.339 32.2638 139.957 32.34 139.572 32.34L139.517 32.3125ZM155.331 29.8512C154.398 29.7935 153.469 30.0115 152.658 30.4782C151.846 30.945 151.19 31.6401 150.768 32.4775L153.029 33.4262C153.258 33.0129 153.601 32.6748 154.016 32.4527C154.432 32.2307 154.903 32.1342 155.373 32.175C155.698 32.1368 156.027 32.1641 156.342 32.2552C156.657 32.3462 156.95 32.4992 157.205 32.7053C157.461 32.9114 157.672 33.1664 157.828 33.4554C157.984 33.7444 158.081 34.0617 158.113 34.3887V34.5537C157.289 34.1191 156.372 33.8926 155.441 33.8937C153.002 33.8937 150.508 35.2687 150.508 37.7712C150.532 38.3031 150.662 38.8247 150.891 39.3051C151.12 39.7854 151.443 40.2147 151.841 40.5674C152.238 40.9201 152.702 41.1891 153.205 41.3583C153.709 41.5275 154.24 41.5935 154.77 41.5525C155.413 41.5881 156.054 41.4516 156.627 41.1568C157.2 40.862 157.684 40.4196 158.031 39.875H158.113V41.25H160.58V34.6362C160.58 31.625 158.305 29.8787 155.386 29.8787L155.331 29.8512ZM155.016 39.27C154.18 39.27 153.015 38.8437 153.015 37.8125C153.015 36.4375 154.468 35.97 155.756 35.97C156.57 35.9498 157.375 36.1492 158.086 36.5475C158 37.2942 157.647 37.9843 157.093 38.4899C156.538 38.9956 155.82 39.2825 155.071 39.2975L155.016 39.27ZM169.57 30.25L166.637 37.7025H166.555L163.513 30.25H160.772L165.335 40.6725L162.731 46.4612H165.404L172.42 30.25H169.57ZM146.547 41.25H149.096V24.0625H146.547V41.25Z" fill="black"/>
<path d="M14.3067 10.3675C13.8551 10.9032 13.6247 11.5919 13.6626 12.2925V42.7075C13.616 43.4093 13.8475 44.1011 14.3067 44.6325L14.4026 44.7425L31.3815 27.7062V27.2937L14.4026 10.2712L14.3067 10.3675Z" fill="url(#paint0_linear_89_1851)"/>
<path d="M37.0001 33.385L31.3816 27.7062V27.2937L37.0001 21.615L37.1234 21.6975L43.852 25.52C45.7705 26.6062 45.7705 28.3937 43.852 29.4937L37.1508 33.3162L37.0001 33.385Z" fill="url(#paint1_linear_89_1851)"/>
<path d="M37.1644 33.3025L31.3815 27.5L14.3066 44.6325C14.6939 44.9783 15.1895 45.1773 15.7076 45.1949C16.2258 45.2125 16.7337 45.0476 17.1433 44.7287L37.1644 33.3025" fill="url(#paint2_linear_89_1851)"/>
<path d="M37.1644 21.6975L17.1433 10.285C16.7363 9.96177 16.2288 9.79285 15.71 9.80794C15.1912 9.82303 14.6943 10.0212 14.3066 10.3675L31.3815 27.5L37.1644 21.6975Z" fill="url(#paint3_linear_89_1851)"/>
<path opacity="0.2" d="M37 33.1788L17.1433 44.5225C16.7486 44.8214 16.2675 44.9832 15.7729 44.9832C15.2784 44.9832 14.7973 44.8214 14.4026 44.5225V44.5225L14.3066 44.6188L14.4026 44.7288C14.7973 45.0277 15.2784 45.1894 15.7729 45.1894C16.2675 45.1894 16.7486 45.0277 17.1433 44.7288L37.1644 33.3025L37 33.1788Z" fill="black"/>
<path opacity="0.12" d="M14.3066 44.44C13.8665 43.8947 13.6507 43.2011 13.7037 42.5013V42.7075C13.657 43.4093 13.8885 44.1012 14.3477 44.6325L14.4437 44.5363L14.3066 44.44Z" fill="black"/>
<path opacity="0.12" d="M43.8519 29.2875L37 33.1788L37.1233 33.3025L43.8519 29.48C44.249 29.3115 44.5936 29.0387 44.8492 28.6902C45.1048 28.3418 45.2621 27.9306 45.3044 27.5C45.2188 27.8913 45.0427 28.2569 44.7904 28.5674C44.5381 28.8779 44.2166 29.1245 43.8519 29.2875Z" fill="black"/>
<path opacity="0.25" d="M17.1433 10.4775L43.8519 25.7125C44.2166 25.8755 44.5381 26.1222 44.7904 26.4327C45.0427 26.7431 45.2188 27.1088 45.3045 27.5C45.2621 27.0694 45.1048 26.6583 44.8492 26.3098C44.5936 25.9614 44.249 25.6885 43.8519 25.52L17.1433 10.285C15.2385 9.18503 13.6626 10.0925 13.6626 12.2925V12.4988C13.7037 10.2988 15.2385 9.39128 17.1433 10.4775Z" fill="white"/>
<path d="M58.5796 18.965C57.8194 18.5335 57.1915 17.9012 56.7641 17.137C56.3305 16.3492 56.103 15.4639 56.103 14.564C56.103 13.6641 56.3305 12.7788 56.7641 11.991C57.1915 11.2268 57.8194 10.5945 58.5796 10.163C59.3586 9.7228 60.2402 9.49828 61.1341 9.51241C61.8081 9.49668 62.4773 9.63052 63.0937 9.90436C63.7102 10.1782 64.2587 10.5853 64.7002 11.0965L63.6595 12.1114C63.3559 11.7378 62.977 11.433 62.5476 11.2169C62.1089 11.0091 61.629 10.9034 61.1439 10.9079C60.5162 10.8994 59.8972 11.0552 59.3479 11.36C58.8026 11.6631 58.3532 12.1139 58.0512 12.6611C57.7424 13.2522 57.5812 13.9096 57.5812 14.577C57.5812 15.2444 57.7424 15.9018 58.0512 16.4929C58.3529 17.0403 58.8024 17.4912 59.3479 17.794C59.897 18.0998 60.516 18.2567 61.1439 18.2494C61.6792 18.2526 62.2078 18.1304 62.6879 17.8927C63.1679 17.655 63.5861 17.3082 63.9092 16.88L64.9757 17.9111C64.5151 18.463 63.9397 18.9071 63.29 19.2122C62.542 19.5479 61.7265 19.7044 60.9078 19.6693C60.0892 19.6343 59.2899 19.4088 58.5731 19.0106L58.5796 18.965Z" fill="black"/>
<path d="M66.655 9.71411H68.1398V14.4144H68.2208L72.0657 9.71411H73.9297V9.79543L69.8418 14.6453L74.1307 19.3294V19.4107H72.1856L68.2079 14.9706H68.1268V19.4107H66.655V9.71411Z" fill="black"/>
<path d="M78.7081 9.71411H80.3939L84.0507 19.4107H82.4297L81.5382 16.919H77.5864L76.7047 19.4107H75.0837L78.7081 9.71411ZM81.0422 15.5399L79.9627 12.5668L79.5996 11.4544H79.5186L79.1522 12.5668L78.0727 15.5399H81.0422Z" fill="black"/>
<path d="M89.6396 15.091C89.0217 15.632 88.2224 15.9179 87.4028 15.8912C86.8532 15.8994 86.3097 15.7756 85.8175 15.5301C85.3562 15.2965 84.9723 14.9338 84.712 14.486C84.4335 14.001 84.2933 13.4484 84.3068 12.8888V9.71411H85.8078V12.6416C85.7917 12.8918 85.8291 13.1425 85.9174 13.377C86.0058 13.6115 86.143 13.8243 86.32 14.0013C86.6972 14.3372 87.1908 14.5113 87.6945 14.486C88.0675 14.493 88.437 14.4135 88.7743 14.2539C89.1117 14.0942 89.4078 13.8586 89.6396 13.5654V9.71411H91.1114V19.4107H89.6396V15.091Z" fill="black"/>
<path d="M96.0618 9.71411H97.7508L101.408 19.4107H99.7866L98.8984 16.919H94.9433L94.0518 19.4107H92.4309L96.0618 9.71411ZM98.3991 15.5399L97.3196 12.5668L96.9533 11.4544H96.8722L96.5091 12.5668L95.4296 15.5399H98.3991Z" fill="black"/>
<path d="M103.917 11.1226H101.207V9.71411H108.102V11.1226H105.401V19.4107H103.917V11.1226Z" fill="black"/>
<path d="M109.639 9.71411H111.127V13.1848H113.176C113.755 13.1792 114.329 13.3072 114.852 13.5589C115.232 13.7549 115.568 14.0276 115.838 14.36C116.109 14.6925 116.308 15.0774 116.423 15.4907C116.538 15.904 116.567 16.3367 116.507 16.7616C116.448 17.1865 116.301 17.5945 116.077 17.9599C115.774 18.4254 115.351 18.7988 114.852 19.0399C114.329 19.2926 113.756 19.4217 113.176 19.4172H109.639V9.71411ZM113.286 18.0152C113.612 18.0216 113.934 17.9372 114.216 17.7713C114.478 17.6159 114.693 17.3908 114.835 17.1207C114.978 16.8612 115.053 16.5697 115.053 16.2734C115.053 15.9771 114.978 15.6856 114.835 15.426C114.691 15.1571 114.477 14.9323 114.216 14.7755C113.937 14.6035 113.614 14.5155 113.286 14.5217H111.127V18.0022L113.286 18.0152Z" fill="black"/>
<path d="M121.316 9.71411H122.784V15.078L122.703 16.9451H122.784L127.119 9.71411H128.804V19.4107H127.333V13.9135L127.414 12.0431H127.333L122.933 19.4107H121.312L121.316 9.71411Z" fill="black"/>
<path d="M131.712 19.0041C131.086 18.5636 130.643 17.9088 130.464 17.163L131.816 16.623C131.908 17.0837 132.147 17.5017 132.497 17.8135C132.828 18.1001 133.253 18.2542 133.69 18.2462C134.156 18.2559 134.61 18.09 134.961 17.781C135.128 17.6389 135.262 17.4613 135.353 17.2611C135.443 17.0609 135.489 16.843 135.486 16.623C135.486 16.3299 135.397 16.0436 135.23 15.8033C135.052 15.5477 134.809 15.3444 134.526 15.2146C134.223 15.0668 133.89 14.9922 133.554 14.9966H132.789V13.6955H133.505C133.943 13.7107 134.372 13.5701 134.717 13.2987C134.875 13.1663 134.999 12.9989 135.081 12.8097C135.163 12.6205 135.199 12.4148 135.187 12.209C135.189 12.0226 135.15 11.8382 135.071 11.6693C134.993 11.5004 134.877 11.3514 134.734 11.2331C134.419 10.9658 134.017 10.8254 133.605 10.8396C133.231 10.8283 132.865 10.9583 132.581 11.2039C132.311 11.4338 132.11 11.7345 132.001 12.0724L130.704 11.5292C130.912 10.9717 131.269 10.4823 131.735 10.1142C132.275 9.69076 132.947 9.47294 133.631 9.49941C134.171 9.48841 134.706 9.60661 135.191 9.84421C135.625 10.0572 135.994 10.3843 136.257 10.7908C136.515 11.1977 136.649 11.6714 136.643 12.1537C136.66 12.583 136.553 13.0082 136.335 13.378C136.117 13.7479 135.798 14.0468 135.414 14.2387V14.32C135.86 14.5189 136.246 14.8319 136.533 15.2276C136.83 15.6501 136.983 16.1581 136.967 16.6751C136.973 17.2071 136.825 17.7293 136.539 18.1779C136.255 18.6332 135.851 19.0011 135.372 19.2415C134.858 19.5032 134.289 19.6361 133.712 19.6286C132.997 19.6333 132.298 19.4151 131.712 19.0041Z" fill="black"/>
</g>
<defs>
<linearGradient id="paint0_linear_89_1851" x1="29.8741" y1="11.9762" x2="6.80175" y2="34.9709" gradientUnits="userSpaceOnUse">
<stop stop-color="#00A0FF"/>
<stop offset="0.01" stop-color="#00A1FF"/>
<stop offset="0.26" stop-color="#00BEFF"/>
<stop offset="0.51" stop-color="#00D2FF"/>
<stop offset="0.76" stop-color="#00DFFF"/>
<stop offset="1" stop-color="#00E3FF"/>
</linearGradient>
<linearGradient id="paint1_linear_89_1851" x1="46.3597" y1="27.5" x2="13.2105" y2="27.5" gradientUnits="userSpaceOnUse">
<stop stop-color="#FFE000"/>
<stop offset="0.41" stop-color="#FFBD00"/>
<stop offset="0.78" stop-color="#FFA500"/>
<stop offset="1" stop-color="#FF9C00"/>
</linearGradient>
<linearGradient id="paint2_linear_89_1851" x1="34.0263" y1="30.6625" x2="2.73149" y2="61.8382" gradientUnits="userSpaceOnUse">
<stop stop-color="#FF3A44"/>
<stop offset="1" stop-color="#C31162"/>
</linearGradient>
<linearGradient id="paint3_linear_89_1851" x1="10.0037" y1="0.247521" x2="23.9736" y2="14.1704" gradientUnits="userSpaceOnUse">
<stop stop-color="#32A071"/>
<stop offset="0.07" stop-color="#2DA771"/>
<stop offset="0.48" stop-color="#15CF74"/>
<stop offset="0.8" stop-color="#06E775"/>
<stop offset="1" stop-color="#00F076"/>
</linearGradient>
<clipPath id="clip0_89_1851">
<rect width="185" height="55" fill="white"/>
</clipPath>
</defs>
</svg>
