<svg width="210" height="62" viewBox="0 0 210 62" fill="none" xmlns="http://www.w3.org/2000/svg">
<g clip-path="url(#clip0_89_995)">
<path d="M202.222 0H7.77778C3.48223 0 0 3.46979 0 7.75V54.25C0 58.5302 3.48223 62 7.77778 62H202.222C206.518 62 210 58.5302 210 54.25V7.75C210 3.46979 206.518 0 202.222 0Z" fill="black"/>
<path d="M202.222 1.24C203.955 1.24 205.617 1.92587 206.842 3.14673C208.067 4.3676 208.756 6.02344 208.756 7.75V54.25C208.756 55.9766 208.067 57.6324 206.842 58.8533C205.617 60.0741 203.955 60.76 202.222 60.76H7.77778C6.04503 60.76 4.38325 60.0741 3.15801 58.8533C1.93278 57.6324 1.24444 55.9766 1.24444 54.25V7.75C1.24444 6.02344 1.93278 4.3676 3.15801 3.14673C4.38325 1.92587 6.04503 1.24 7.77778 1.24H202.222ZM202.222 0H7.77778C5.71498 0 3.73667 0.816515 2.27806 2.26992C0.819442 3.72333 0 5.69457 0 7.75V54.25C0 56.3054 0.819442 58.2767 2.27806 59.7301C3.73667 61.1835 5.71498 62 7.77778 62H202.222C204.285 62 206.263 61.1835 207.722 59.7301C209.181 58.2767 210 56.3054 210 54.25V7.75C210 5.69457 209.181 3.72333 207.722 2.26992C206.263 0.816515 204.285 0 202.222 0Z" fill="#A6A6A6"/>
<path d="M105.997 33.7125C104.687 33.7155 103.407 34.1058 102.319 34.8339C101.23 35.562 100.384 36.5952 99.8848 37.8029C99.3861 39.0106 99.258 40.3386 99.5167 41.6188C99.7755 42.8991 100.409 44.0741 101.338 44.9954C102.267 45.9167 103.449 46.5428 104.735 46.7946C106.022 47.0463 107.354 46.9125 108.563 46.4099C109.773 45.9073 110.806 45.0585 111.532 43.971C112.257 42.8834 112.643 41.6059 112.64 40.3C112.652 39.4288 112.489 38.5639 112.159 37.7569C111.83 36.95 111.34 36.2173 110.721 35.6027C110.101 34.988 109.363 34.5039 108.552 34.1792C107.74 33.8545 106.872 33.6957 105.997 33.7125ZM105.997 44.299C105.194 44.3549 104.392 44.1688 103.697 43.7648C103.001 43.3608 102.443 42.7576 102.096 42.0335C101.749 41.3095 101.629 40.4982 101.75 39.705C101.872 38.9118 102.23 38.1735 102.779 37.586C103.327 36.9985 104.041 36.5889 104.826 36.4107C105.611 36.2324 106.432 36.2936 107.182 36.5863C107.931 36.879 108.575 37.3897 109.03 38.052C109.485 38.7143 109.729 39.4976 109.731 40.3C109.756 40.8084 109.678 41.3167 109.503 41.7948C109.328 42.273 109.059 42.7113 108.711 43.084C108.363 43.4567 107.943 43.7563 107.477 43.9649C107.011 44.1736 106.508 44.2872 105.997 44.299ZM91.4997 33.7125C90.189 33.7155 88.9088 34.1058 87.8207 34.8339C86.7327 35.562 85.8858 36.5952 85.3871 37.8029C84.8884 39.0106 84.7603 40.3386 85.019 41.6188C85.2777 42.8991 85.9116 44.0741 86.8405 44.9954C87.7694 45.9167 88.9517 46.5428 90.2377 46.7946C91.5237 47.0463 92.8558 46.9125 94.0655 46.4099C95.2752 45.9073 96.3082 45.0585 97.0337 43.971C97.7593 42.8834 98.145 41.6059 98.1419 40.3C98.1546 39.4288 97.9912 38.5639 97.6615 37.7569C97.3318 36.95 96.8425 36.2173 96.2227 35.6027C95.603 34.988 94.8654 34.5039 94.054 34.1792C93.2426 33.8545 92.3739 33.6957 91.4997 33.7125ZM91.4997 44.299C90.6964 44.3549 89.8947 44.1688 89.199 43.7648C88.5032 43.3608 87.9455 42.7576 87.5984 42.0335C87.2512 41.3095 87.1307 40.4982 87.2525 39.705C87.3743 38.9118 87.7327 38.1735 88.2812 37.586C88.8297 36.9985 89.5428 36.5889 90.328 36.4107C91.1131 36.2324 91.934 36.2936 92.6837 36.5863C93.4335 36.879 94.0776 37.3897 94.5322 38.052C94.9869 38.7143 95.231 39.4976 95.233 40.3C95.2581 40.8084 95.1807 41.3167 95.0055 41.7948C94.8303 42.273 94.5607 42.7113 94.2128 43.084C93.8648 43.4567 93.4455 43.7563 92.9795 43.9649C92.5136 44.1736 92.0104 44.2872 91.4997 44.299ZM74.2641 35.743V38.533H80.9841C80.8787 39.8471 80.3305 41.087 79.4286 42.0515C78.7545 42.7358 77.9437 43.2715 77.0487 43.624C76.1538 43.9764 75.1945 44.1377 74.233 44.0975C72.2527 44.0975 70.3535 43.3136 68.9533 41.9183C67.553 40.5231 66.7663 38.6307 66.7663 36.6575C66.7663 34.6843 67.553 32.7919 68.9533 31.3966C70.3535 30.0013 72.2527 29.2175 74.233 29.2175C76.1315 29.1893 77.9646 29.9077 79.3352 31.217L81.3108 29.2485C80.3836 28.3347 79.2828 27.6146 78.0728 27.1302C76.8628 26.6458 75.568 26.4069 74.2641 26.4275C72.8812 26.3738 71.5017 26.5989 70.2082 27.0893C68.9147 27.5796 67.7338 28.3251 66.7364 29.281C65.739 30.237 64.9455 31.3837 64.4034 32.6526C63.8614 33.9214 63.582 35.2862 63.582 36.6652C63.582 38.0442 63.8614 39.409 64.4034 40.6779C64.9455 41.9467 65.739 43.0934 66.7364 44.0494C67.7338 45.0053 68.9147 45.7508 70.2082 46.2412C71.5017 46.7315 72.8812 46.9566 74.2641 46.903C75.5948 46.9559 76.9216 46.7278 78.1575 46.2336C79.3934 45.7394 80.5104 44.9903 81.4352 44.0355C83.0687 42.2474 83.9391 39.8957 83.8619 37.479C83.8675 36.8973 83.8206 36.3163 83.7219 35.743H74.2641ZM144.746 37.913C144.341 36.7237 143.582 35.6853 142.571 34.9352C141.56 34.1851 140.344 33.7587 139.084 33.7125C138.233 33.7108 137.391 33.8831 136.61 34.2186C135.828 34.5541 135.124 35.0458 134.541 35.6632C133.958 36.2806 133.508 37.0106 133.219 37.8082C132.93 38.6057 132.809 39.4538 132.862 40.3C132.849 41.7149 133.295 43.0961 134.135 44.2374C134.974 45.3786 136.162 46.2186 137.52 46.6319C138.878 47.0452 140.334 47.0097 141.67 46.5305C143.006 46.0514 144.151 45.1543 144.933 43.9735L142.677 42.4235C142.341 42.9819 141.864 43.443 141.294 43.7611C140.724 44.0793 140.08 44.2433 139.426 44.237C138.752 44.2647 138.085 44.0886 137.513 43.7317C136.941 43.3748 136.491 42.854 136.222 42.2375L145.073 38.595L144.746 37.913ZM135.724 40.114C135.693 39.6325 135.758 39.1496 135.916 38.6936C136.074 38.2375 136.322 37.8175 136.645 37.4581C136.968 37.0987 137.36 36.8071 137.797 36.6004C138.235 36.3937 138.709 36.2761 139.193 36.2545C139.694 36.224 140.193 36.3416 140.628 36.5925C141.062 36.8434 141.413 37.2165 141.635 37.665L135.724 40.114ZM128.537 46.5H131.446V27.125H128.537V46.5ZM123.777 35.185H123.669C123.234 34.6918 122.698 34.2981 122.096 34.0305C121.495 33.763 120.843 33.6281 120.184 33.635C118.484 33.7171 116.881 34.4478 115.707 35.6757C114.533 36.9035 113.878 38.5344 113.878 40.2302C113.878 41.9261 114.533 43.5569 115.707 44.7848C116.881 46.0126 118.484 46.7433 120.184 46.8255C120.844 46.8386 121.498 46.7065 122.1 46.4386C122.703 46.1707 123.238 45.7735 123.669 45.2755H123.777V46.221C123.777 48.7475 122.424 50.096 120.246 50.096C119.519 50.08 118.813 49.849 118.217 49.4323C117.622 49.0156 117.164 48.4319 116.902 47.7555L114.382 48.794C114.848 49.9599 115.658 50.9576 116.705 51.655C117.752 52.3524 118.987 52.7168 120.246 52.7C123.653 52.7 126.469 50.7005 126.469 45.8335V34.1H123.777V35.185ZM120.433 44.299C119.414 44.2356 118.457 43.7876 117.758 43.046C117.059 42.3045 116.669 41.3252 116.669 40.3077C116.669 39.2902 117.059 38.3109 117.758 37.5694C118.457 36.8278 119.414 36.3798 120.433 36.3165C120.931 36.3379 121.42 36.4589 121.87 36.6724C122.32 36.8859 122.723 37.1874 123.054 37.5591C123.385 37.9307 123.637 38.3649 123.796 38.8358C123.955 39.3066 124.018 39.8046 123.98 40.3C124.022 40.797 123.963 41.2975 123.806 41.7711C123.648 42.2448 123.396 42.6817 123.065 43.0555C122.733 43.4293 122.329 43.7323 121.877 43.946C121.424 44.1597 120.933 44.2798 120.433 44.299ZM158.373 27.125H151.404V46.5H154.313V39.153H158.373C159.202 39.2123 160.034 39.1008 160.818 38.8255C161.602 38.5501 162.321 38.1168 162.929 37.5526C163.538 36.9883 164.023 36.3052 164.355 35.5459C164.687 34.7865 164.858 33.9672 164.858 33.139C164.858 32.3108 164.687 31.4914 164.355 30.7321C164.023 29.9727 163.538 29.2896 162.929 28.7253C162.321 28.1611 161.602 27.7278 160.818 27.4524C160.034 27.1771 159.202 27.0656 158.373 27.125ZM158.373 36.425H154.313V29.822H158.435C158.872 29.822 159.305 29.9078 159.709 30.0744C160.113 30.2411 160.48 30.4855 160.789 30.7935C161.098 31.1015 161.343 31.4672 161.511 31.8696C161.678 32.272 161.764 32.7034 161.764 33.139C161.764 33.5746 161.678 34.0059 161.511 34.4083C161.343 34.8108 161.098 35.1764 160.789 35.4844C160.48 35.7924 160.113 36.0368 159.709 36.2035C159.305 36.3702 158.872 36.456 158.435 36.456L158.373 36.425ZM176.324 33.6505C175.265 33.5854 174.21 33.8311 173.289 34.3573C172.368 34.8835 171.623 35.667 171.144 36.611L173.711 37.6805C173.97 37.2145 174.359 36.8334 174.831 36.5831C175.303 36.3328 175.838 36.224 176.371 36.27C176.74 36.227 177.114 36.2577 177.471 36.3604C177.829 36.463 178.162 36.6355 178.451 36.8678C178.741 37.1001 178.981 37.3875 179.158 37.7134C179.335 38.0392 179.445 38.3968 179.482 38.7655V38.9515C178.546 38.4615 177.505 38.2062 176.449 38.2075C173.68 38.2075 170.849 39.7575 170.849 42.5785C170.876 43.1781 171.024 43.7661 171.284 44.3076C171.544 44.849 171.91 45.333 172.362 45.7306C172.813 46.1282 173.34 46.4313 173.911 46.6221C174.482 46.8128 175.086 46.8873 175.686 46.841C176.416 46.8812 177.144 46.7273 177.794 46.395C178.445 46.0627 178.995 45.564 179.389 44.95H179.482V46.5H182.282V39.0445C182.282 35.65 179.7 33.6815 176.386 33.6815L176.324 33.6505ZM175.966 44.268C175.017 44.268 173.695 43.7875 173.695 42.625C173.695 41.075 175.344 40.548 176.806 40.548C177.73 40.5252 178.644 40.7501 179.451 41.199C179.353 42.0407 178.953 42.8187 178.323 43.3887C177.694 43.9587 176.879 44.2821 176.029 44.299L175.966 44.268ZM192.486 34.1L189.157 42.501H189.064L185.611 34.1H182.5L187.68 45.849L184.724 52.3745H187.757L195.722 34.1H192.486ZM166.353 46.5H169.246V27.125H166.353V46.5Z" fill="white"/>
<path d="M16.2417 11.687C15.7291 12.2909 15.4676 13.0672 15.5106 13.857V48.143C15.4577 48.9341 15.7204 49.714 16.2417 50.313L16.3506 50.437L35.6239 31.2325V30.7675L16.3506 11.5785L16.2417 11.687Z" fill="url(#paint0_linear_89_995)"/>
<path d="M41.9989 37.634L35.6211 31.2325V30.7675L41.9989 24.366L42.1389 24.459L49.7766 28.768C51.9544 29.9925 51.9544 32.0075 49.7766 33.2475L42.17 37.5565L41.9989 37.634Z" fill="url(#paint1_linear_89_995)"/>
<path d="M42.1849 37.541L35.6205 31L16.2383 50.313C16.6778 50.7029 17.2405 50.9272 17.8286 50.947C18.4167 50.9668 18.9933 50.7809 19.4583 50.4215L42.1849 37.541Z" fill="url(#paint2_linear_89_995)"/>
<path opacity="0.2" d="M41.9983 37.4015L19.4583 50.189C19.0102 50.526 18.4641 50.7082 17.9027 50.7082C17.3413 50.7082 16.7953 50.526 16.3472 50.189L16.2383 50.2975L16.3472 50.4215C16.7953 50.7585 17.3413 50.9408 17.9027 50.9408C18.4641 50.9408 19.0102 50.7585 19.4583 50.4215L42.1849 37.541L41.9983 37.4015Z" fill="black"/>
<path opacity="0.12" d="M16.2402 50.096C15.7406 49.4812 15.4957 48.6994 15.5558 47.9105V48.143C15.5029 48.9341 15.7656 49.714 16.2869 50.313L16.3958 50.2045L16.2402 50.096Z" fill="black"/>
<path d="M42.1849 24.459L19.4583 11.594C18.9963 11.2296 18.4202 11.0392 17.8313 11.0562C17.2423 11.0732 16.6783 11.2966 16.2383 11.687L35.6205 31L42.1849 24.459Z" fill="url(#paint3_linear_89_995)"/>
<path opacity="0.12" d="M49.7778 33.015L42 37.4015L42.14 37.541L49.7778 33.232C50.2286 33.042 50.6197 32.7345 50.9099 32.3417C51.2001 31.9489 51.3786 31.4854 51.4267 31C51.3294 31.4411 51.1295 31.8532 50.8431 32.2032C50.5567 32.5532 50.1918 32.8313 49.7778 33.015Z" fill="black"/>
<path opacity="0.25" d="M19.4589 11.811L49.7767 28.985C50.1907 29.1688 50.5556 29.4468 50.842 29.7968C51.1285 30.1468 51.3283 30.559 51.4256 31C51.3775 30.5147 51.199 30.0512 50.9088 29.6584C50.6187 29.2656 50.2276 28.958 49.7767 28.768L19.4589 11.594C17.2967 10.354 15.5078 11.377 15.5078 13.857V14.0895C15.5545 11.6095 17.2967 10.5865 19.4589 11.811Z" fill="white"/>
<path d="M66.4948 21.5959C65.6319 21.1094 64.9192 20.3967 64.4341 19.5352C63.9418 18.6471 63.6836 17.6492 63.6836 16.6347C63.6836 15.6202 63.9418 14.6223 64.4341 13.7343C64.9192 12.8727 65.6319 12.1601 66.4948 11.6736C67.3791 11.1774 68.3799 10.9243 69.3946 10.9402C70.1597 10.9225 70.9192 11.0733 71.619 11.382C72.3187 11.6907 72.9414 12.1496 73.4425 12.7259L72.2613 13.87C71.9166 13.4489 71.4865 13.1052 70.999 12.8616C70.501 12.6273 69.9563 12.5083 69.4056 12.5133C68.6932 12.5037 67.9905 12.6794 67.367 13.0229C66.7479 13.3646 66.2379 13.8729 65.895 14.4897C65.5446 15.156 65.3615 15.8971 65.3615 16.6494C65.3615 17.4017 65.5446 18.1428 65.895 18.8091C66.2375 19.4262 66.7477 19.9345 67.367 20.2758C67.9902 20.6205 68.6929 20.7974 69.4056 20.7892C70.0133 20.7928 70.6134 20.6551 71.1583 20.3871C71.7032 20.1191 72.1779 19.7282 72.5446 19.2455L73.7553 20.4078C73.2325 21.03 72.5793 21.5306 71.8417 21.8746C70.9927 22.2529 70.067 22.4293 69.1377 22.3899C68.2085 22.3504 67.3011 22.0962 66.4875 21.6472L66.4948 21.5959Z" fill="white"/>
<path d="M75.6602 11.1675H77.3456V16.466H77.4376L81.802 11.1675H83.9179V11.2592L79.2775 16.7264L84.1461 22.0066V22.0982H81.9381L77.4228 17.0931H77.3308V22.0982H75.6602V11.1675Z" fill="white"/>
<path d="M89.3446 11.1675H91.2582L95.4091 22.0982H93.5692L92.5572 19.2895H88.0714L87.0704 22.0982H85.2305L89.3446 11.1675ZM91.9942 17.7347L90.7688 14.3833L90.3566 13.1293H90.2646L89.8488 14.3833L88.6234 17.7347H91.9942Z" fill="white"/>
<path d="M101.754 17.2287C101.052 17.8386 100.145 18.1609 99.2146 18.1308C98.5907 18.14 97.9737 18.0005 97.4151 17.7237C96.8915 17.4604 96.4556 17.0516 96.1602 16.5467C95.8441 16 95.6849 15.3771 95.7002 14.7463V11.1675H97.404V14.4676C97.3858 14.7496 97.4282 15.0323 97.5285 15.2966C97.6288 15.561 97.7846 15.8009 97.9855 16.0004C98.4137 16.3791 98.9739 16.5752 99.5457 16.5467C99.9691 16.5546 100.389 16.4651 100.771 16.2851C101.154 16.1051 101.491 15.8395 101.754 15.509V11.1675H103.424V22.0982H101.754V17.2287Z" fill="white"/>
<path d="M109.043 11.1675H110.961L115.112 22.0982H113.272L112.263 19.2895H107.774L106.762 22.0982H104.922L109.043 11.1675ZM111.697 17.7347L110.471 14.3833L110.055 13.1293H109.963L109.551 14.3833L108.326 17.7347H111.697Z" fill="white"/>
<path d="M117.959 12.7553H114.883V11.1675H122.71V12.7553H119.645V22.0982H117.959V12.7553Z" fill="white"/>
<path d="M124.453 11.1675H126.142V15.08H128.468C129.126 15.0737 129.777 15.2179 130.37 15.5017C130.802 15.7226 131.184 16.03 131.491 16.4048C131.798 16.7795 132.023 17.2135 132.154 17.6793C132.285 18.1452 132.317 18.633 132.25 19.112C132.182 19.591 132.016 20.0509 131.761 20.4628C131.418 20.9875 130.937 21.4085 130.37 21.6802C129.777 21.9651 129.126 22.1106 128.468 22.1056H124.453V11.1675ZM128.593 20.5252C128.964 20.5324 129.329 20.4372 129.649 20.2502C129.947 20.075 130.19 19.8212 130.352 19.5168C130.514 19.2242 130.599 18.8956 130.599 18.5616C130.599 18.2276 130.514 17.899 130.352 17.6064C130.188 17.3032 129.946 17.0498 129.649 16.8731C129.332 16.6792 128.965 16.58 128.593 16.587H126.142V20.5105L128.593 20.5252Z" fill="white"/>
<path d="M137.711 11.1675H139.378V17.2141L139.286 19.3188H139.378L144.298 11.1675H146.211V22.0982H144.541V15.9014L144.633 13.793H144.541L139.547 22.0982H137.707L137.711 11.1675Z" fill="white"/>
<path d="M149.511 21.6399C148.8 21.1433 148.296 20.4053 148.094 19.5645L149.628 18.9558C149.732 19.4751 150.004 19.9463 150.401 20.2978C150.777 20.6209 151.259 20.7945 151.755 20.7855C152.285 20.7965 152.8 20.6094 153.198 20.2612C153.388 20.1009 153.54 19.9008 153.643 19.6751C153.746 19.4494 153.797 19.2037 153.794 18.9558C153.795 18.6253 153.693 18.3026 153.503 18.0318C153.301 17.7436 153.025 17.5144 152.705 17.3681C152.361 17.2015 151.983 17.1174 151.601 17.1224H150.732V15.6557H151.546C152.043 15.6728 152.53 15.5143 152.922 15.2083C153.101 15.0591 153.242 14.8704 153.335 14.6571C153.427 14.4438 153.469 14.212 153.455 13.98C153.458 13.7699 153.412 13.562 153.323 13.3716C153.234 13.1812 153.103 13.0132 152.94 12.8799C152.584 12.5785 152.127 12.4203 151.66 12.4362C151.234 12.4236 150.819 12.5701 150.497 12.8469C150.19 13.1061 149.962 13.4451 149.838 13.826L148.366 13.2136C148.602 12.5852 149.007 12.0335 149.536 11.6186C150.149 11.1412 150.912 10.8957 151.689 10.9255C152.302 10.9131 152.908 11.0464 153.459 11.3142C153.952 11.5543 154.37 11.9231 154.67 12.3812C154.963 12.84 155.115 13.3739 155.108 13.9176C155.127 14.4016 155.006 14.8809 154.758 15.2978C154.511 15.7147 154.148 16.0516 153.713 16.268V16.3597C154.219 16.5839 154.657 16.9367 154.983 17.3827C155.32 17.8591 155.493 18.4317 155.476 19.0145C155.483 19.6142 155.314 20.2029 154.99 20.7085C154.667 21.2218 154.209 21.6366 153.665 21.9075C153.082 22.2026 152.435 22.3523 151.781 22.3439C150.969 22.3492 150.176 22.1032 149.511 21.6399Z" fill="white"/>
</g>
<defs>
<linearGradient id="paint0_linear_89_995" x1="33.9128" y1="13.5005" x2="7.90399" y2="39.6026" gradientUnits="userSpaceOnUse">
<stop stop-color="#00A0FF"/>
<stop offset="0.01" stop-color="#00A1FF"/>
<stop offset="0.26" stop-color="#00BEFF"/>
<stop offset="0.51" stop-color="#00D2FF"/>
<stop offset="0.76" stop-color="#00DFFF"/>
<stop offset="1" stop-color="#00E3FF"/>
</linearGradient>
<linearGradient id="paint1_linear_89_995" x1="52.6233" y1="31" x2="14.9944" y2="31" gradientUnits="userSpaceOnUse">
<stop stop-color="#FFE000"/>
<stop offset="0.41" stop-color="#FFBD00"/>
<stop offset="0.78" stop-color="#FFA500"/>
<stop offset="1" stop-color="#FF9C00"/>
</linearGradient>
<linearGradient id="paint2_linear_89_995" x1="38.6227" y1="34.565" x2="3.34489" y2="69.9537" gradientUnits="userSpaceOnUse">
<stop stop-color="#FF3A44"/>
<stop offset="1" stop-color="#C31162"/>
</linearGradient>
<linearGradient id="paint3_linear_89_995" x1="11.3538" y1="0.279028" x2="27.1017" y2="16.0834" gradientUnits="userSpaceOnUse">
<stop stop-color="#32A071"/>
<stop offset="0.07" stop-color="#2DA771"/>
<stop offset="0.48" stop-color="#15CF74"/>
<stop offset="0.8" stop-color="#06E775"/>
<stop offset="1" stop-color="#00F076"/>
</linearGradient>
<clipPath id="clip0_89_995">
<rect width="210" height="62" fill="white"/>
</clipPath>
</defs>
</svg>
