<svg width="83" height="83" viewBox="0 0 83 83" fill="none" xmlns="http://www.w3.org/2000/svg">
<rect width="83" height="83" rx="20" fill="#ECFFDA"/>
<path d="M36.125 46.5002C34.9514 46.5002 34 47.4516 34 48.6253C34 49.7989 34.9514 50.7503 36.125 50.7503C37.2986 50.7503 38.25 49.7989 38.25 48.6253C38.25 47.4516 37.2986 46.5002 36.125 46.5002Z" fill="#5FC300"/>
<path d="M46.75 48.6253C46.75 47.4516 47.7014 46.5002 48.875 46.5002C50.0487 46.5002 51 47.4516 51 48.6253C51 49.7989 50.0487 50.7503 48.875 50.7503C47.7014 50.7503 46.75 49.7989 46.75 48.6253Z" fill="#5FC300"/>
<path fill-rule="evenodd" clip-rule="evenodd" d="M42.5002 16.75C40.1529 16.75 38.2501 18.6528 38.2501 21.0001C38.2501 22.5732 39.1048 23.9467 40.3752 24.6815V29.5001H29.7501C26.2292 29.5001 23.375 32.3544 23.375 35.8752V57.1254C23.375 60.6463 26.2292 63.5004 29.7501 63.5004H55.2503C58.7712 63.5004 61.6253 60.6463 61.6253 57.1254V35.8752C61.6253 32.3544 58.7712 29.5001 55.2503 29.5001H44.6252V24.6815C45.8955 23.9467 46.7502 22.5732 46.7502 21.0001C46.7502 18.6528 44.8475 16.75 42.5002 16.75ZM27.625 35.8752C27.625 34.7016 28.5765 33.7502 29.7501 33.7502H32.6868L35.7621 39.9008C36.482 41.3407 37.9537 42.2503 39.5634 42.2503H45.4369C47.0466 42.2503 48.5182 41.3407 49.2382 39.9008L52.3135 33.7502H55.2503C56.4239 33.7502 57.3753 34.7016 57.3753 35.8752V57.1254C57.3753 58.299 56.4239 59.2504 55.2503 59.2504H29.7501C28.5765 59.2504 27.625 58.299 27.625 57.1254V35.8752ZM45.4369 38.0002L47.562 33.7502H37.4384L39.5634 38.0002H45.4369Z" fill="#5FC300"/>
<path d="M19.125 44.3752C17.9514 44.3752 17 45.3266 17 46.5002V50.7502C17 51.9239 17.9514 52.8753 19.125 52.8753C20.2986 52.8753 21.25 51.9239 21.25 50.7502V46.5002C21.25 45.3266 20.2986 44.3752 19.125 44.3752Z" fill="#5FC300"/>
<path d="M63.75 46.5002C63.75 45.3266 64.7014 44.3752 65.875 44.3752C67.0487 44.3752 68 45.3266 68 46.5002V50.7502C68 51.9239 67.0487 52.8753 65.875 52.8753C64.7014 52.8753 63.75 51.9239 63.75 50.7502V46.5002Z" fill="#5FC300"/>
</svg>
