<svg width="1042" height="1049" viewBox="0 0 1042 1049" fill="none" xmlns="http://www.w3.org/2000/svg">
<g opacity="0.7">
<g filter="url(#filter0_f_89_1081)">
<path d="M612.354 398.318C647.761 432.846 668.002 480.025 668.624 529.477C669.246 578.929 650.197 626.603 615.669 662.01C581.141 697.417 533.961 717.658 484.509 718.28C435.057 718.902 387.384 699.853 351.976 665.325L482.165 531.821L612.354 398.318Z" fill="#AC6AFF"/>
</g>
<g filter="url(#filter1_f_89_1081)">
<path d="M306.238 687.692C270.901 653.092 250.757 605.871 250.237 556.418C249.716 506.964 268.862 459.33 303.463 423.994C338.064 388.657 385.285 368.513 434.738 367.993C484.191 367.472 531.825 386.618 567.162 421.219L436.7 554.456L306.238 687.692Z" fill="#FF82CD"/>
</g>
<g filter="url(#filter2_f_89_1081)">
<path d="M531.085 569.935C495.749 535.335 475.605 488.114 475.084 438.661C474.564 389.208 493.71 341.573 528.311 306.237C562.911 270.9 610.132 250.756 659.585 250.236C709.039 249.715 756.673 268.862 792.009 303.462L661.547 436.699L531.085 569.935Z" fill="#5AF899" fill-opacity="0.7"/>
</g>
<g filter="url(#filter3_f_89_1081)">
<path d="M334.882 792.623C299.546 758.022 279.401 710.801 278.881 661.348C278.361 611.895 297.507 564.261 332.108 528.924C366.708 493.588 413.929 473.443 463.382 472.923C512.835 472.403 560.47 491.549 595.806 526.15L465.344 659.386L334.882 792.623Z" fill="#FFDF6C"/>
</g>
</g>
<path d="M309.415 815.416C311.302 815.738 313.093 814.471 313.415 812.584C313.738 810.698 312.47 808.907 310.584 808.584C308.697 808.262 306.906 809.529 306.584 811.416C306.261 813.302 307.529 815.093 309.415 815.416Z" fill="#1090CB" fill-opacity="0.33"/>
<path d="M848.002 746.2L847.23 745.194L836.002 753.813L836.774 754.819L848.002 746.2Z" fill="#09E6DF"/>
<path d="M846.764 755.228L838.145 744L837.139 744.772L845.758 756L846.764 755.228Z" fill="#09E6DF"/>
<path d="M182.1 675C180.7 675 179.3 674.2 178.1 673.5C176.2 672.5 175 671.9 174 672.5L173 671C175 669.7 177.1 670.9 178.9 671.9C180.8 672.9 182 673.5 183 672.9C184 672.2 184 670.9 183.7 668.8C183.5 666.7 183.3 664.3 185.2 663C187.2 661.7 189.3 662.9 191.1 663.9C193 664.9 194.2 665.5 195.2 664.9C196.2 664.2 196.2 662.9 195.9 660.8C195.7 658.7 195.5 656.3 197.4 655C199.4 653.7 201.5 654.9 203.3 655.9C205.2 656.9 206.4 657.5 207.4 656.9C208.4 656.2 208.4 654.9 208.1 652.8C207.9 650.7 207.7 648.3 209.6 647C211.6 645.7 213.7 646.9 215.5 647.9C217.4 648.9 218.6 649.5 219.6 648.9C220.6 648.2 220.6 646.9 220.3 644.8C220.1 642.7 219.9 640.3 221.8 639C223.8 637.7 225.9 638.9 227.7 639.9C229.6 640.9 230.8 641.5 231.8 640.9C232.8 640.2 232.8 638.9 232.6 636.8C232.4 634.7 232.2 632.3 234.1 631L235.1 632.5C234.1 633.2 234.1 634.5 234.3 636.6C234.5 638.7 234.7 641.1 232.8 642.4C230.8 643.7 228.7 642.5 226.9 641.5C225 640.5 223.8 639.9 222.8 640.5C221.8 641.2 221.8 642.5 222.1 644.6C222.3 646.7 222.5 649.1 220.6 650.4C218.6 651.7 216.5 650.5 214.7 649.5C212.8 648.5 211.6 647.9 210.6 648.5C209.6 649.2 209.6 650.5 209.9 652.6C210.1 654.7 210.3 657.1 208.4 658.4C206.4 659.7 204.3 658.5 202.5 657.5C200.6 656.5 199.4 655.9 198.4 656.5C197.4 657.2 197.4 658.5 197.7 660.6C197.9 662.7 198.1 665.1 196.2 666.4C194.2 667.7 192.1 666.5 190.3 665.5C188.4 664.5 187.2 663.9 186.2 664.5C185.2 665.2 185.2 666.5 185.5 668.6C185.7 670.7 185.9 673.1 184 674.4C183.3 674.8 182.7 675 182.1 675Z" fill="#1090CB" fill-opacity="0.33"/>
<path d="M241.1 1049C239.7 1049 238.3 1048.2 237.1 1047.5C235.2 1046.5 234 1045.9 233 1046.5L232 1045C234 1043.7 236.1 1044.9 237.9 1045.9C239.8 1046.9 241 1047.5 242 1046.9C243 1046.2 243 1044.9 242.7 1042.8C242.5 1040.7 242.3 1038.3 244.2 1037C246.2 1035.7 248.3 1036.9 250.1 1037.9C252 1038.9 253.2 1039.5 254.2 1038.9C255.2 1038.2 255.2 1036.9 254.9 1034.8C254.7 1032.7 254.5 1030.3 256.4 1029C258.4 1027.7 260.5 1028.9 262.3 1029.9C264.2 1030.9 265.4 1031.5 266.4 1030.9C267.4 1030.2 267.4 1028.9 267.1 1026.8C266.9 1024.7 266.7 1022.3 268.6 1021C270.6 1019.7 272.7 1020.9 274.5 1021.9C276.4 1022.9 277.6 1023.5 278.6 1022.9C279.6 1022.2 279.6 1020.9 279.3 1018.8C279.1 1016.7 278.9 1014.3 280.8 1013C282.8 1011.7 284.9 1012.9 286.7 1013.9C288.6 1014.9 289.8 1015.5 290.8 1014.9C291.8 1014.2 291.8 1012.9 291.6 1010.8C291.4 1008.7 291.2 1006.3 293.1 1005L294.1 1006.5C293.1 1007.2 293.1 1008.5 293.3 1010.6C293.5 1012.7 293.7 1015.1 291.8 1016.4C289.8 1017.7 287.7 1016.5 285.9 1015.5C284 1014.5 282.8 1013.9 281.8 1014.5C280.8 1015.2 280.8 1016.5 281.1 1018.6C281.3 1020.7 281.5 1023.1 279.6 1024.4C277.6 1025.7 275.5 1024.5 273.7 1023.5C271.8 1022.5 270.6 1021.9 269.6 1022.5C268.6 1023.2 268.6 1024.5 268.9 1026.6C269.1 1028.7 269.3 1031.1 267.4 1032.4C265.4 1033.7 263.3 1032.5 261.5 1031.5C259.6 1030.5 258.4 1029.9 257.4 1030.5C256.4 1031.2 256.4 1032.5 256.7 1034.6C256.9 1036.7 257.1 1039.1 255.2 1040.4C253.2 1041.7 251.1 1040.5 249.3 1039.5C247.4 1038.5 246.2 1037.9 245.2 1038.5C244.2 1039.2 244.2 1040.5 244.5 1042.6C244.7 1044.7 244.9 1047.1 243 1048.4C242.3 1048.8 241.7 1049 241.1 1049Z" fill="#1090CB" fill-opacity="0.33"/>
<path d="M739.1 628C737.7 628 736.3 627.2 735.1 626.5C733.2 625.5 732 624.9 731 625.5L730 624C732 622.7 734.1 623.9 735.9 624.9C737.8 625.9 739 626.5 740 625.9C741 625.2 741 623.9 740.7 621.8C740.5 619.7 740.3 617.3 742.2 616C744.2 614.7 746.3 615.9 748.1 616.9C750 617.9 751.2 618.5 752.2 617.9C753.2 617.2 753.2 615.9 752.9 613.8C752.7 611.7 752.5 609.3 754.4 608C756.4 606.7 758.5 607.9 760.3 608.9C762.2 609.9 763.4 610.5 764.4 609.9C765.4 609.2 765.4 607.9 765.1 605.8C764.9 603.7 764.7 601.3 766.6 600C768.6 598.7 770.7 599.9 772.5 600.9C774.4 601.9 775.6 602.5 776.6 601.9C777.6 601.2 777.6 599.9 777.3 597.8C777.1 595.7 776.9 593.3 778.8 592C780.8 590.7 782.9 591.9 784.7 592.9C786.6 593.9 787.8 594.5 788.8 593.9C789.8 593.2 789.8 591.9 789.6 589.8C789.4 587.7 789.2 585.3 791.1 584L792.1 585.5C791.1 586.2 791.1 587.5 791.3 589.6C791.5 591.7 791.7 594.1 789.8 595.4C787.8 596.7 785.7 595.5 783.9 594.5C782 593.5 780.8 592.9 779.8 593.5C778.8 594.2 778.8 595.5 779.1 597.6C779.3 599.7 779.5 602.1 777.6 603.4C775.6 604.7 773.5 603.5 771.7 602.5C769.8 601.5 768.6 600.9 767.6 601.5C766.6 602.2 766.6 603.5 766.9 605.6C767.1 607.7 767.3 610.1 765.4 611.4C763.4 612.7 761.3 611.5 759.5 610.5C757.6 609.5 756.4 608.9 755.4 609.5C754.4 610.2 754.4 611.5 754.7 613.6C754.9 615.7 755.1 618.1 753.2 619.4C751.2 620.7 749.1 619.5 747.3 618.5C745.4 617.5 744.2 616.9 743.2 617.5C742.2 618.2 742.2 619.5 742.5 621.6C742.7 623.7 742.9 626.1 741 627.4C740.3 627.8 739.7 628 739.1 628Z" fill="white"/>
<path d="M933.002 436.2L932.23 435.194L921.002 443.813L921.774 444.819L933.002 436.2Z" fill="#1090CB"/>
<path d="M931.764 445.228L923.145 434L922.139 434.772L930.758 446L931.764 445.228Z" fill="#1090CB"/>
<path d="M763.415 389.416C765.302 389.738 767.093 388.471 767.415 386.584C767.738 384.698 766.47 382.907 764.584 382.584C762.697 382.262 760.906 383.529 760.584 385.416C760.261 387.302 761.529 389.093 763.415 389.416Z" fill="#43DC77"/>
<path d="M707.1 359C705.7 359 704.3 358.2 703.1 357.5C701.2 356.5 700 355.9 699 356.5L698 355C700 353.7 702.1 354.9 703.9 355.9C705.8 356.9 707 357.5 708 356.9C709 356.2 709 354.9 708.7 352.8C708.5 350.7 708.3 348.3 710.2 347C712.2 345.7 714.3 346.9 716.1 347.9C718 348.9 719.2 349.5 720.2 348.9C721.2 348.2 721.2 346.9 720.9 344.8C720.7 342.7 720.5 340.3 722.4 339C724.4 337.7 726.5 338.9 728.3 339.9C730.2 340.9 731.4 341.5 732.4 340.9C733.4 340.2 733.4 338.9 733.1 336.8C732.9 334.7 732.7 332.3 734.6 331C736.6 329.7 738.7 330.9 740.5 331.9C742.4 332.9 743.6 333.5 744.6 332.9C745.6 332.2 745.6 330.9 745.3 328.8C745.1 326.7 744.9 324.3 746.8 323C748.8 321.7 750.9 322.9 752.7 323.9C754.6 324.9 755.8 325.5 756.8 324.9C757.8 324.2 757.8 322.9 757.6 320.8C757.4 318.7 757.2 316.3 759.1 315L760.1 316.5C759.1 317.2 759.1 318.5 759.3 320.6C759.5 322.7 759.7 325.1 757.8 326.4C755.8 327.7 753.7 326.5 751.9 325.5C750 324.5 748.8 323.9 747.8 324.5C746.8 325.2 746.8 326.5 747.1 328.6C747.3 330.7 747.5 333.1 745.6 334.4C743.6 335.7 741.5 334.5 739.7 333.5C737.8 332.5 736.6 331.9 735.6 332.5C734.6 333.2 734.6 334.5 734.9 336.6C735.1 338.7 735.3 341.1 733.4 342.4C731.4 343.7 729.3 342.5 727.5 341.5C725.6 340.5 724.4 339.9 723.4 340.5C722.4 341.2 722.4 342.5 722.7 344.6C722.9 346.7 723.1 349.1 721.2 350.4C719.2 351.7 717.1 350.5 715.3 349.5C713.4 348.5 712.2 347.9 711.2 348.5C710.2 349.2 710.2 350.5 710.5 352.6C710.7 354.7 710.9 357.1 709 358.4C708.3 358.8 707.7 359 707.1 359Z" fill="white"/>
<path d="M901.925 312.482C902.334 312.482 902.666 312.151 902.666 311.741C902.666 311.332 902.334 311 901.925 311C901.515 311 901.184 311.332 901.184 311.741C901.184 312.151 901.515 312.482 901.925 312.482Z" fill="#1090CB"/>
<path d="M898.218 316.188C898.627 316.188 898.959 315.857 898.959 315.447C898.959 315.038 898.627 314.706 898.218 314.706C897.808 314.706 897.477 315.038 897.477 315.447C897.477 315.857 897.808 316.188 898.218 316.188Z" fill="#1090CB"/>
<path d="M894.327 319.895C894.737 319.895 895.068 319.563 895.068 319.153C895.068 318.744 894.737 318.412 894.327 318.412C893.918 318.412 893.586 318.744 893.586 319.153C893.586 319.563 893.918 319.895 894.327 319.895Z" fill="#1090CB"/>
<path d="M890.62 323.601C891.03 323.601 891.361 323.269 891.361 322.859C891.361 322.45 891.03 322.118 890.62 322.118C890.211 322.118 889.879 322.45 889.879 322.859C889.879 323.269 890.211 323.601 890.62 323.601Z" fill="#1090CB"/>
<path d="M886.729 327.492C887.139 327.492 887.471 327.16 887.471 326.751C887.471 326.341 887.139 326.01 886.729 326.01C886.32 326.01 885.988 326.341 885.988 326.751C885.988 327.16 886.32 327.492 886.729 327.492Z" fill="#1090CB"/>
<path d="M883.022 331.198C883.432 331.198 883.764 330.866 883.764 330.457C883.764 330.048 883.432 329.716 883.022 329.716C882.613 329.716 882.281 330.048 882.281 330.457C882.281 330.866 882.613 331.198 883.022 331.198Z" fill="#1090CB"/>
<path d="M879.132 334.904C879.541 334.904 879.873 334.572 879.873 334.163C879.873 333.754 879.541 333.422 879.132 333.422C878.722 333.422 878.391 333.754 878.391 334.163C878.391 334.572 878.722 334.904 879.132 334.904Z" fill="#1090CB"/>
<path d="M875.425 338.61C875.834 338.61 876.166 338.278 876.166 337.869C876.166 337.46 875.834 337.128 875.425 337.128C875.015 337.128 874.684 337.46 874.684 337.869C874.684 338.278 875.015 338.61 875.425 338.61Z" fill="#1090CB"/>
<path d="M871.534 342.316C871.944 342.316 872.275 341.984 872.275 341.575C872.275 341.166 871.944 340.834 871.534 340.834C871.125 340.834 870.793 341.166 870.793 341.575C870.793 341.984 871.125 342.316 871.534 342.316Z" fill="#1090CB"/>
<path d="M867.827 346.022C868.237 346.022 868.568 345.69 868.568 345.281C868.568 344.872 868.237 344.54 867.827 344.54C867.418 344.54 867.086 344.872 867.086 345.281C867.086 345.69 867.418 346.022 867.827 346.022Z" fill="#1090CB"/>
<path d="M863.937 349.728C864.346 349.728 864.678 349.397 864.678 348.987C864.678 348.578 864.346 348.246 863.937 348.246C863.527 348.246 863.195 348.578 863.195 348.987C863.195 349.397 863.527 349.728 863.937 349.728Z" fill="#1090CB"/>
<path d="M860.229 353.435C860.639 353.435 860.971 353.103 860.971 352.693C860.971 352.284 860.639 351.952 860.229 351.952C859.82 351.952 859.488 352.284 859.488 352.693C859.488 353.103 859.82 353.435 860.229 353.435Z" fill="#1090CB"/>
<path d="M856.339 357.141C856.748 357.141 857.08 356.809 857.08 356.399C857.08 355.99 856.748 355.658 856.339 355.658C855.93 355.658 855.598 355.99 855.598 356.399C855.598 356.809 855.93 357.141 856.339 357.141Z" fill="#1090CB"/>
<path d="M852.632 360.847C853.041 360.847 853.373 360.515 853.373 360.105C853.373 359.696 853.041 359.364 852.632 359.364C852.223 359.364 851.891 359.696 851.891 360.105C851.891 360.515 852.223 360.847 852.632 360.847Z" fill="#1090CB"/>
<path d="M848.741 364.553C849.151 364.553 849.482 364.221 849.482 363.812C849.482 363.402 849.151 363.07 848.741 363.07C848.332 363.07 848 363.402 848 363.812C848 364.221 848.332 364.553 848.741 364.553Z" fill="#1090CB"/>
<path d="M906.37 316.93C906.78 316.93 907.111 316.598 907.111 316.188C907.111 315.779 906.78 315.447 906.37 315.447C905.961 315.447 905.629 315.779 905.629 316.188C905.629 316.598 905.961 316.93 906.37 316.93Z" fill="#1090CB"/>
<path d="M902.663 320.636C903.072 320.636 903.404 320.304 903.404 319.895C903.404 319.485 903.072 319.153 902.663 319.153C902.254 319.153 901.922 319.485 901.922 319.895C901.922 320.304 902.254 320.636 902.663 320.636Z" fill="#1090CB"/>
<path d="M898.772 324.527C899.182 324.527 899.514 324.195 899.514 323.786C899.514 323.377 899.182 323.045 898.772 323.045C898.363 323.045 898.031 323.377 898.031 323.786C898.031 324.195 898.363 324.527 898.772 324.527Z" fill="#1090CB"/>
<path d="M894.882 328.233C895.291 328.233 895.623 327.901 895.623 327.492C895.623 327.083 895.291 326.751 894.882 326.751C894.472 326.751 894.141 327.083 894.141 327.492C894.141 327.901 894.472 328.233 894.882 328.233Z" fill="#1090CB"/>
<path d="M891.175 331.939C891.584 331.939 891.916 331.607 891.916 331.198C891.916 330.789 891.584 330.457 891.175 330.457C890.765 330.457 890.434 330.789 890.434 331.198C890.434 331.607 890.765 331.939 891.175 331.939Z" fill="#1090CB"/>
<path d="M887.284 335.645C887.694 335.645 888.025 335.314 888.025 334.904C888.025 334.495 887.694 334.163 887.284 334.163C886.875 334.163 886.543 334.495 886.543 334.904C886.543 335.314 886.875 335.645 887.284 335.645Z" fill="#1090CB"/>
<path d="M883.577 339.351C883.987 339.351 884.318 339.02 884.318 338.61C884.318 338.201 883.987 337.869 883.577 337.869C883.168 337.869 882.836 338.201 882.836 338.61C882.836 339.02 883.168 339.351 883.577 339.351Z" fill="#1090CB"/>
<path d="M879.687 343.057C880.096 343.057 880.428 342.726 880.428 342.316C880.428 341.907 880.096 341.575 879.687 341.575C879.277 341.575 878.945 341.907 878.945 342.316C878.945 342.726 879.277 343.057 879.687 343.057Z" fill="#1090CB"/>
<path d="M875.979 346.764C876.389 346.764 876.721 346.432 876.721 346.022C876.721 345.613 876.389 345.281 875.979 345.281C875.57 345.281 875.238 345.613 875.238 346.022C875.238 346.432 875.57 346.764 875.979 346.764Z" fill="#1090CB"/>
<path d="M872.089 350.47C872.498 350.47 872.83 350.138 872.83 349.728C872.83 349.319 872.498 348.987 872.089 348.987C871.68 348.987 871.348 349.319 871.348 349.728C871.348 350.138 871.68 350.47 872.089 350.47Z" fill="#1090CB"/>
<path d="M868.382 354.176C868.791 354.176 869.123 353.844 869.123 353.435C869.123 353.025 868.791 352.693 868.382 352.693C867.973 352.693 867.641 353.025 867.641 353.435C867.641 353.844 867.973 354.176 868.382 354.176Z" fill="#1090CB"/>
<path d="M864.491 357.882C864.901 357.882 865.232 357.55 865.232 357.141C865.232 356.731 864.901 356.399 864.491 356.399C864.082 356.399 863.75 356.731 863.75 357.141C863.75 357.55 864.082 357.882 864.491 357.882Z" fill="#1090CB"/>
<path d="M860.784 361.588C861.193 361.588 861.525 361.256 861.525 360.847C861.525 360.437 861.193 360.105 860.784 360.105C860.375 360.105 860.043 360.437 860.043 360.847C860.043 361.256 860.375 361.588 860.784 361.588Z" fill="#1090CB"/>
<path d="M856.894 365.294C857.303 365.294 857.635 364.962 857.635 364.553C857.635 364.143 857.303 363.812 856.894 363.812C856.484 363.812 856.152 364.143 856.152 364.553C856.152 364.962 856.484 365.294 856.894 365.294Z" fill="#1090CB"/>
<path d="M853.187 369C853.596 369 853.928 368.668 853.928 368.259C853.928 367.849 853.596 367.518 853.187 367.518C852.777 367.518 852.445 367.849 852.445 368.259C852.445 368.668 852.777 369 853.187 369Z" fill="#1090CB"/>
<path d="M910.819 321.562C911.229 321.562 911.561 321.23 911.561 320.821C911.561 320.412 911.229 320.08 910.819 320.08C910.41 320.08 910.078 320.412 910.078 320.821C910.078 321.23 910.41 321.562 910.819 321.562Z" fill="#1090CB"/>
<path d="M906.929 325.268C907.338 325.268 907.67 324.936 907.67 324.527C907.67 324.118 907.338 323.786 906.929 323.786C906.519 323.786 906.188 324.118 906.188 324.527C906.188 324.936 906.519 325.268 906.929 325.268Z" fill="#1090CB"/>
<path d="M903.222 328.974C903.631 328.974 903.963 328.643 903.963 328.233C903.963 327.824 903.631 327.492 903.222 327.492C902.812 327.492 902.48 327.824 902.48 328.233C902.48 328.643 902.812 328.974 903.222 328.974Z" fill="#1090CB"/>
<path d="M899.331 332.68C899.74 332.68 900.072 332.349 900.072 331.939C900.072 331.53 899.74 331.198 899.331 331.198C898.922 331.198 898.59 331.53 898.59 331.939C898.59 332.349 898.922 332.68 899.331 332.68Z" fill="#1090CB"/>
<path d="M895.624 336.387C896.033 336.387 896.365 336.055 896.365 335.645C896.365 335.236 896.033 334.904 895.624 334.904C895.215 334.904 894.883 335.236 894.883 335.645C894.883 336.055 895.215 336.387 895.624 336.387Z" fill="#1090CB"/>
<path d="M891.733 340.093C892.143 340.093 892.475 339.761 892.475 339.351C892.475 338.942 892.143 338.61 891.733 338.61C891.324 338.61 890.992 338.942 890.992 339.351C890.992 339.761 891.324 340.093 891.733 340.093Z" fill="#1090CB"/>
<path d="M888.026 343.799C888.436 343.799 888.768 343.467 888.768 343.057C888.768 342.648 888.436 342.316 888.026 342.316C887.617 342.316 887.285 342.648 887.285 343.057C887.285 343.467 887.617 343.799 888.026 343.799Z" fill="#1090CB"/>
<path d="M884.136 347.505C884.545 347.505 884.877 347.173 884.877 346.764C884.877 346.354 884.545 346.022 884.136 346.022C883.726 346.022 883.395 346.354 883.395 346.764C883.395 347.173 883.726 347.505 884.136 347.505Z" fill="#1090CB"/>
<path d="M880.245 351.211C880.654 351.211 880.986 350.879 880.986 350.47C880.986 350.06 880.654 349.728 880.245 349.728C879.836 349.728 879.504 350.06 879.504 350.47C879.504 350.879 879.836 351.211 880.245 351.211Z" fill="#1090CB"/>
<path d="M876.538 354.917C876.947 354.917 877.279 354.585 877.279 354.176C877.279 353.766 876.947 353.434 876.538 353.434C876.129 353.434 875.797 353.766 875.797 354.176C875.797 354.585 876.129 354.917 876.538 354.917Z" fill="#1090CB"/>
<path d="M872.647 358.623C873.057 358.623 873.389 358.291 873.389 357.882C873.389 357.472 873.057 357.141 872.647 357.141C872.238 357.141 871.906 357.472 871.906 357.882C871.906 358.291 872.238 358.623 872.647 358.623Z" fill="#1090CB"/>
<path d="M868.94 362.329C869.35 362.329 869.682 361.997 869.682 361.588C869.682 361.179 869.35 360.847 868.94 360.847C868.531 360.847 868.199 361.179 868.199 361.588C868.199 361.997 868.531 362.329 868.94 362.329Z" fill="#1090CB"/>
<path d="M865.05 366.035C865.459 366.035 865.791 365.703 865.791 365.294C865.791 364.885 865.459 364.553 865.05 364.553C864.64 364.553 864.308 364.885 864.308 365.294C864.308 365.703 864.64 366.035 865.05 366.035Z" fill="#1090CB"/>
<path d="M861.343 369.741C861.752 369.741 862.084 369.409 862.084 369C862.084 368.591 861.752 368.259 861.343 368.259C860.933 368.259 860.602 368.591 860.602 369C860.602 369.409 860.933 369.741 861.343 369.741Z" fill="#1090CB"/>
<path d="M857.452 373.447C857.862 373.447 858.193 373.115 858.193 372.706C858.193 372.297 857.862 371.965 857.452 371.965C857.043 371.965 856.711 372.297 856.711 372.706C856.711 373.115 857.043 373.447 857.452 373.447Z" fill="#1090CB"/>
<path d="M915.081 326.01C915.49 326.01 915.822 325.678 915.822 325.268C915.822 324.859 915.49 324.527 915.081 324.527C914.672 324.527 914.34 324.859 914.34 325.268C914.34 325.678 914.672 326.01 915.081 326.01Z" fill="#1090CB"/>
<path d="M911.374 329.716C911.783 329.716 912.115 329.384 912.115 328.974C912.115 328.565 911.783 328.233 911.374 328.233C910.965 328.233 910.633 328.565 910.633 328.974C910.633 329.384 910.965 329.716 911.374 329.716Z" fill="#1090CB"/>
<path d="M907.483 333.422C907.893 333.422 908.225 333.09 908.225 332.68C908.225 332.271 907.893 331.939 907.483 331.939C907.074 331.939 906.742 332.271 906.742 332.68C906.742 333.09 907.074 333.422 907.483 333.422Z" fill="#1090CB"/>
<path d="M903.776 337.128C904.185 337.128 904.517 336.796 904.517 336.387C904.517 335.977 904.185 335.645 903.776 335.645C903.367 335.645 903.035 335.977 903.035 336.387C903.035 336.796 903.367 337.128 903.776 337.128Z" fill="#1090CB"/>
<path d="M899.886 340.834C900.295 340.834 900.627 340.502 900.627 340.093C900.627 339.683 900.295 339.351 899.886 339.351C899.476 339.351 899.145 339.683 899.145 340.093C899.145 340.502 899.476 340.834 899.886 340.834Z" fill="#1090CB"/>
<path d="M896.179 344.54C896.588 344.54 896.92 344.208 896.92 343.799C896.92 343.389 896.588 343.057 896.179 343.057C895.769 343.057 895.438 343.389 895.438 343.799C895.438 344.208 895.769 344.54 896.179 344.54Z" fill="#1090CB"/>
<path d="M892.288 348.246C892.697 348.246 893.029 347.914 893.029 347.505C893.029 347.095 892.697 346.764 892.288 346.764C891.879 346.764 891.547 347.095 891.547 347.505C891.547 347.914 891.879 348.246 892.288 348.246Z" fill="#1090CB"/>
<path d="M888.581 351.952C888.991 351.952 889.322 351.62 889.322 351.211C889.322 350.801 888.991 350.47 888.581 350.47C888.172 350.47 887.84 350.801 887.84 351.211C887.84 351.62 888.172 351.952 888.581 351.952Z" fill="#1090CB"/>
<path d="M884.69 355.658C885.1 355.658 885.432 355.326 885.432 354.917C885.432 354.508 885.1 354.176 884.69 354.176C884.281 354.176 883.949 354.508 883.949 354.917C883.949 355.326 884.281 355.658 884.69 355.658Z" fill="#1090CB"/>
<path d="M880.983 359.364C881.393 359.364 881.725 359.032 881.725 358.623C881.725 358.214 881.393 357.882 880.983 357.882C880.574 357.882 880.242 358.214 880.242 358.623C880.242 359.032 880.574 359.364 880.983 359.364Z" fill="#1090CB"/>
<path d="M877.093 363.07C877.502 363.07 877.834 362.738 877.834 362.329C877.834 361.92 877.502 361.588 877.093 361.588C876.683 361.588 876.352 361.92 876.352 362.329C876.352 362.738 876.683 363.07 877.093 363.07Z" fill="#1090CB"/>
<path d="M873.386 366.776C873.795 366.776 874.127 366.445 874.127 366.035C874.127 365.626 873.795 365.294 873.386 365.294C872.976 365.294 872.645 365.626 872.645 366.035C872.645 366.445 872.976 366.776 873.386 366.776Z" fill="#1090CB"/>
<path d="M869.495 370.482C869.904 370.482 870.236 370.151 870.236 369.741C870.236 369.332 869.904 369 869.495 369C869.086 369 868.754 369.332 868.754 369.741C868.754 370.151 869.086 370.482 869.495 370.482Z" fill="#1090CB"/>
<path d="M865.788 374.189C866.197 374.189 866.529 373.857 866.529 373.447C866.529 373.038 866.197 372.706 865.788 372.706C865.379 372.706 865.047 373.038 865.047 373.447C865.047 373.857 865.379 374.189 865.788 374.189Z" fill="#1090CB"/>
<path d="M861.898 378.08C862.307 378.08 862.639 377.748 862.639 377.339C862.639 376.929 862.307 376.597 861.898 376.597C861.488 376.597 861.156 376.929 861.156 377.339C861.156 377.748 861.488 378.08 861.898 378.08Z" fill="#1090CB"/>
<path d="M919.53 330.457C919.94 330.457 920.272 330.125 920.272 329.716C920.272 329.306 919.94 328.974 919.53 328.974C919.121 328.974 918.789 329.306 918.789 329.716C918.789 330.125 919.121 330.457 919.53 330.457Z" fill="#1090CB"/>
<path d="M915.636 334.163C916.045 334.163 916.377 333.831 916.377 333.422C916.377 333.012 916.045 332.68 915.636 332.68C915.226 332.68 914.895 333.012 914.895 333.422C914.895 333.831 915.226 334.163 915.636 334.163Z" fill="#1090CB"/>
<path d="M911.933 337.869C912.342 337.869 912.674 337.537 912.674 337.128C912.674 336.718 912.342 336.386 911.933 336.386C911.523 336.386 911.191 336.718 911.191 337.128C911.191 337.537 911.523 337.869 911.933 337.869Z" fill="#1090CB"/>
<path d="M908.038 341.575C908.447 341.575 908.779 341.243 908.779 340.834C908.779 340.424 908.447 340.093 908.038 340.093C907.629 340.093 907.297 340.424 907.297 340.834C907.297 341.243 907.629 341.575 908.038 341.575Z" fill="#1090CB"/>
<path d="M904.335 345.281C904.744 345.281 905.076 344.949 905.076 344.54C905.076 344.131 904.744 343.799 904.335 343.799C903.926 343.799 903.594 344.131 903.594 344.54C903.594 344.949 903.926 345.281 904.335 345.281Z" fill="#1090CB"/>
<path d="M900.444 348.987C900.854 348.987 901.186 348.655 901.186 348.246C901.186 347.837 900.854 347.505 900.444 347.505C900.035 347.505 899.703 347.837 899.703 348.246C899.703 348.655 900.035 348.987 900.444 348.987Z" fill="#1090CB"/>
<path d="M896.737 352.693C897.147 352.693 897.478 352.361 897.478 351.952C897.478 351.543 897.147 351.211 896.737 351.211C896.328 351.211 895.996 351.543 895.996 351.952C895.996 352.361 896.328 352.693 896.737 352.693Z" fill="#1090CB"/>
<path d="M892.847 356.399C893.256 356.399 893.588 356.067 893.588 355.658C893.588 355.249 893.256 354.917 892.847 354.917C892.437 354.917 892.105 355.249 892.105 355.658C892.105 356.067 892.437 356.399 892.847 356.399Z" fill="#1090CB"/>
<path d="M889.14 360.105C889.549 360.105 889.881 359.774 889.881 359.364C889.881 358.955 889.549 358.623 889.14 358.623C888.73 358.623 888.398 358.955 888.398 359.364C888.398 359.774 888.73 360.105 889.14 360.105Z" fill="#1090CB"/>
<path d="M885.249 363.811C885.658 363.811 885.99 363.48 885.99 363.07C885.99 362.661 885.658 362.329 885.249 362.329C884.84 362.329 884.508 362.661 884.508 363.07C884.508 363.48 884.84 363.811 885.249 363.811Z" fill="#1090CB"/>
<path d="M881.542 367.517C881.951 367.517 882.283 367.186 882.283 366.776C882.283 366.367 881.951 366.035 881.542 366.035C881.133 366.035 880.801 366.367 880.801 366.776C880.801 367.186 881.133 367.517 881.542 367.517Z" fill="#1090CB"/>
<path d="M877.651 371.224C878.061 371.224 878.393 370.892 878.393 370.482C878.393 370.073 878.061 369.741 877.651 369.741C877.242 369.741 876.91 370.073 876.91 370.482C876.91 370.892 877.242 371.224 877.651 371.224Z" fill="#1090CB"/>
<path d="M873.944 375.115C874.354 375.115 874.686 374.783 874.686 374.374C874.686 373.964 874.354 373.633 873.944 373.633C873.535 373.633 873.203 373.964 873.203 374.374C873.203 374.783 873.535 375.115 873.944 375.115Z" fill="#1090CB"/>
<path d="M870.054 378.821C870.463 378.821 870.795 378.489 870.795 378.08C870.795 377.67 870.463 377.339 870.054 377.339C869.644 377.339 869.312 377.67 869.312 378.08C869.312 378.489 869.644 378.821 870.054 378.821Z" fill="#1090CB"/>
<path d="M866.347 382.527C866.756 382.527 867.088 382.195 867.088 381.786C867.088 381.377 866.756 381.045 866.347 381.045C865.937 381.045 865.605 381.377 865.605 381.786C865.605 382.195 865.937 382.527 866.347 382.527Z" fill="#1090CB"/>
<path d="M923.976 334.904C924.385 334.904 924.717 334.572 924.717 334.163C924.717 333.754 924.385 333.422 923.976 333.422C923.566 333.422 923.234 333.754 923.234 334.163C923.234 334.572 923.566 334.904 923.976 334.904Z" fill="#1090CB"/>
<path d="M920.085 338.61C920.494 338.61 920.826 338.278 920.826 337.869C920.826 337.46 920.494 337.128 920.085 337.128C919.676 337.128 919.344 337.46 919.344 337.869C919.344 338.278 919.676 338.61 920.085 338.61Z" fill="#1090CB"/>
<path d="M916.378 342.316C916.787 342.316 917.119 341.984 917.119 341.575C917.119 341.166 916.787 340.834 916.378 340.834C915.969 340.834 915.637 341.166 915.637 341.575C915.637 341.984 915.969 342.316 916.378 342.316Z" fill="#1090CB"/>
<path d="M912.487 346.022C912.897 346.022 913.228 345.69 913.228 345.281C913.228 344.872 912.897 344.54 912.487 344.54C912.078 344.54 911.746 344.872 911.746 345.281C911.746 345.69 912.078 346.022 912.487 346.022Z" fill="#1090CB"/>
<path d="M908.597 349.728C909.006 349.728 909.338 349.397 909.338 348.987C909.338 348.578 909.006 348.246 908.597 348.246C908.187 348.246 907.855 348.578 907.855 348.987C907.855 349.397 908.187 349.728 908.597 349.728Z" fill="#1090CB"/>
<path d="M904.89 353.434C905.299 353.434 905.631 353.103 905.631 352.693C905.631 352.284 905.299 351.952 904.89 351.952C904.48 351.952 904.148 352.284 904.148 352.693C904.148 353.103 904.48 353.434 904.89 353.434Z" fill="#1090CB"/>
<path d="M900.999 357.141C901.408 357.141 901.74 356.809 901.74 356.399C901.74 355.99 901.408 355.658 900.999 355.658C900.59 355.658 900.258 355.99 900.258 356.399C900.258 356.809 900.59 357.141 900.999 357.141Z" fill="#1090CB"/>
<path d="M897.292 360.847C897.701 360.847 898.033 360.515 898.033 360.105C898.033 359.696 897.701 359.364 897.292 359.364C896.883 359.364 896.551 359.696 896.551 360.105C896.551 360.515 896.883 360.847 897.292 360.847Z" fill="#1090CB"/>
<path d="M893.401 364.553C893.811 364.553 894.143 364.221 894.143 363.812C894.143 363.402 893.811 363.07 893.401 363.07C892.992 363.07 892.66 363.402 892.66 363.812C892.66 364.221 892.992 364.553 893.401 364.553Z" fill="#1090CB"/>
<path d="M889.694 368.259C890.104 368.259 890.436 367.927 890.436 367.518C890.436 367.108 890.104 366.776 889.694 366.776C889.285 366.776 888.953 367.108 888.953 367.518C888.953 367.927 889.285 368.259 889.694 368.259Z" fill="#1090CB"/>
<path d="M885.804 372.15C886.213 372.15 886.545 371.818 886.545 371.409C886.545 371 886.213 370.668 885.804 370.668C885.394 370.668 885.062 371 885.062 371.409C885.062 371.818 885.394 372.15 885.804 372.15Z" fill="#1090CB"/>
<path d="M882.097 375.856C882.506 375.856 882.838 375.524 882.838 375.115C882.838 374.706 882.506 374.374 882.097 374.374C881.687 374.374 881.355 374.706 881.355 375.115C881.355 375.524 881.687 375.856 882.097 375.856Z" fill="#1090CB"/>
<path d="M878.206 379.562C878.615 379.562 878.947 379.23 878.947 378.821C878.947 378.412 878.615 378.08 878.206 378.08C877.797 378.08 877.465 378.412 877.465 378.821C877.465 379.23 877.797 379.562 878.206 379.562Z" fill="#1090CB"/>
<path d="M874.499 383.268C874.908 383.268 875.24 382.937 875.24 382.527C875.24 382.118 874.908 381.786 874.499 381.786C874.09 381.786 873.758 382.118 873.758 382.527C873.758 382.937 874.09 383.268 874.499 383.268Z" fill="#1090CB"/>
<path d="M870.608 386.974C871.018 386.974 871.35 386.643 871.35 386.233C871.35 385.824 871.018 385.492 870.608 385.492C870.199 385.492 869.867 385.824 869.867 386.233C869.867 386.643 870.199 386.974 870.608 386.974Z" fill="#1090CB"/>
<path d="M928.237 339.351C928.647 339.351 928.978 339.02 928.978 338.61C928.978 338.201 928.647 337.869 928.237 337.869C927.828 337.869 927.496 338.201 927.496 338.61C927.496 339.02 927.828 339.351 928.237 339.351Z" fill="#1090CB"/>
<path d="M924.53 343.057C924.94 343.057 925.271 342.726 925.271 342.316C925.271 341.907 924.94 341.575 924.53 341.575C924.121 341.575 923.789 341.907 923.789 342.316C923.789 342.726 924.121 343.057 924.53 343.057Z" fill="#1090CB"/>
<path d="M920.64 346.764C921.049 346.764 921.381 346.432 921.381 346.022C921.381 345.613 921.049 345.281 920.64 345.281C920.23 345.281 919.898 345.613 919.898 346.022C919.898 346.432 920.23 346.764 920.64 346.764Z" fill="#1090CB"/>
<path d="M916.933 350.47C917.342 350.47 917.674 350.138 917.674 349.728C917.674 349.319 917.342 348.987 916.933 348.987C916.523 348.987 916.191 349.319 916.191 349.728C916.191 350.138 916.523 350.47 916.933 350.47Z" fill="#1090CB"/>
<path d="M913.042 354.176C913.451 354.176 913.783 353.844 913.783 353.434C913.783 353.025 913.451 352.693 913.042 352.693C912.633 352.693 912.301 353.025 912.301 353.434C912.301 353.844 912.633 354.176 913.042 354.176Z" fill="#1090CB"/>
<path d="M909.335 357.882C909.744 357.882 910.076 357.55 910.076 357.141C910.076 356.731 909.744 356.399 909.335 356.399C908.925 356.399 908.594 356.731 908.594 357.141C908.594 357.55 908.925 357.882 909.335 357.882Z" fill="#1090CB"/>
<path d="M905.444 361.588C905.854 361.588 906.186 361.256 906.186 360.847C906.186 360.437 905.854 360.105 905.444 360.105C905.035 360.105 904.703 360.437 904.703 360.847C904.703 361.256 905.035 361.588 905.444 361.588Z" fill="#1090CB"/>
<path d="M901.738 365.294C902.147 365.294 902.479 364.962 902.479 364.553C902.479 364.143 902.147 363.812 901.738 363.812C901.328 363.812 900.996 364.143 900.996 364.553C900.996 364.962 901.328 365.294 901.738 365.294Z" fill="#1090CB"/>
<path d="M897.847 369C898.256 369 898.588 368.668 898.588 368.259C898.588 367.849 898.256 367.518 897.847 367.518C897.437 367.518 897.105 367.849 897.105 368.259C897.105 368.668 897.437 369 897.847 369Z" fill="#1090CB"/>
<path d="M893.956 372.891C894.365 372.891 894.697 372.559 894.697 372.15C894.697 371.741 894.365 371.409 893.956 371.409C893.547 371.409 893.215 371.741 893.215 372.15C893.215 372.559 893.547 372.891 893.956 372.891Z" fill="#1090CB"/>
<path d="M890.249 376.597C890.658 376.597 890.99 376.266 890.99 375.856C890.99 375.447 890.658 375.115 890.249 375.115C889.84 375.115 889.508 375.447 889.508 375.856C889.508 376.266 889.84 376.597 890.249 376.597Z" fill="#1090CB"/>
<path d="M886.358 380.304C886.768 380.304 887.1 379.972 887.1 379.562C887.1 379.153 886.768 378.821 886.358 378.821C885.949 378.821 885.617 379.153 885.617 379.562C885.617 379.972 885.949 380.304 886.358 380.304Z" fill="#1090CB"/>
<path d="M882.651 384.01C883.061 384.01 883.393 383.678 883.393 383.268C883.393 382.859 883.061 382.527 882.651 382.527C882.242 382.527 881.91 382.859 881.91 383.268C881.91 383.678 882.242 384.01 882.651 384.01Z" fill="#1090CB"/>
<path d="M878.761 387.716C879.17 387.716 879.502 387.384 879.502 386.974C879.502 386.565 879.17 386.233 878.761 386.233C878.351 386.233 878.02 386.565 878.02 386.974C878.02 387.384 878.351 387.716 878.761 387.716Z" fill="#1090CB"/>
<path d="M875.054 391.422C875.463 391.422 875.795 391.09 875.795 390.681C875.795 390.271 875.463 389.939 875.054 389.939C874.644 389.939 874.312 390.271 874.312 390.681C874.312 391.09 874.644 391.422 875.054 391.422Z" fill="#1090CB"/>
<path d="M932.687 343.799C933.096 343.799 933.428 343.467 933.428 343.057C933.428 342.648 933.096 342.316 932.687 342.316C932.277 342.316 931.945 342.648 931.945 343.057C931.945 343.467 932.277 343.799 932.687 343.799Z" fill="#1090CB"/>
<path d="M928.792 347.505C929.201 347.505 929.533 347.173 929.533 346.764C929.533 346.354 929.201 346.022 928.792 346.022C928.383 346.022 928.051 346.354 928.051 346.764C928.051 347.173 928.383 347.505 928.792 347.505Z" fill="#1090CB"/>
<path d="M925.089 351.211C925.498 351.211 925.83 350.879 925.83 350.47C925.83 350.06 925.498 349.728 925.089 349.728C924.679 349.728 924.348 350.06 924.348 350.47C924.348 350.879 924.679 351.211 925.089 351.211Z" fill="#1090CB"/>
<path d="M921.194 354.917C921.604 354.917 921.936 354.585 921.936 354.176C921.936 353.766 921.604 353.434 921.194 353.434C920.785 353.434 920.453 353.766 920.453 354.176C920.453 354.585 920.785 354.917 921.194 354.917Z" fill="#1090CB"/>
<path d="M917.491 358.623C917.901 358.623 918.232 358.291 918.232 357.882C918.232 357.472 917.901 357.141 917.491 357.141C917.082 357.141 916.75 357.472 916.75 357.882C916.75 358.291 917.082 358.623 917.491 358.623Z" fill="#1090CB"/>
<path d="M913.601 362.329C914.01 362.329 914.342 361.997 914.342 361.588C914.342 361.179 914.01 360.847 913.601 360.847C913.191 360.847 912.859 361.179 912.859 361.588C912.859 361.997 913.191 362.329 913.601 362.329Z" fill="#1090CB"/>
<path d="M909.894 366.035C910.303 366.035 910.635 365.703 910.635 365.294C910.635 364.885 910.303 364.553 909.894 364.553C909.484 364.553 909.152 364.885 909.152 365.294C909.152 365.703 909.484 366.035 909.894 366.035Z" fill="#1090CB"/>
<path d="M906.003 369.926C906.412 369.926 906.744 369.595 906.744 369.185C906.744 368.776 906.412 368.444 906.003 368.444C905.594 368.444 905.262 368.776 905.262 369.185C905.262 369.595 905.594 369.926 906.003 369.926Z" fill="#1090CB"/>
<path d="M902.296 373.633C902.705 373.633 903.037 373.301 903.037 372.891C903.037 372.482 902.705 372.15 902.296 372.15C901.887 372.15 901.555 372.482 901.555 372.891C901.555 373.301 901.887 373.633 902.296 373.633Z" fill="#1090CB"/>
<path d="M898.405 377.339C898.815 377.339 899.146 377.007 899.146 376.597C899.146 376.188 898.815 375.856 898.405 375.856C897.996 375.856 897.664 376.188 897.664 376.597C897.664 377.007 897.996 377.339 898.405 377.339Z" fill="#1090CB"/>
<path d="M894.698 381.045C895.108 381.045 895.439 380.713 895.439 380.303C895.439 379.894 895.108 379.562 894.698 379.562C894.289 379.562 893.957 379.894 893.957 380.303C893.957 380.713 894.289 381.045 894.698 381.045Z" fill="#1090CB"/>
<path d="M890.808 384.751C891.217 384.751 891.549 384.419 891.549 384.01C891.549 383.6 891.217 383.268 890.808 383.268C890.398 383.268 890.066 383.6 890.066 384.01C890.066 384.419 890.398 384.751 890.808 384.751Z" fill="#1090CB"/>
<path d="M887.1 388.457C887.51 388.457 887.842 388.125 887.842 387.716C887.842 387.306 887.51 386.974 887.1 386.974C886.691 386.974 886.359 387.306 886.359 387.716C886.359 388.125 886.691 388.457 887.1 388.457Z" fill="#1090CB"/>
<path d="M883.21 392.163C883.619 392.163 883.951 391.831 883.951 391.422C883.951 391.012 883.619 390.681 883.21 390.681C882.801 390.681 882.469 391.012 882.469 391.422C882.469 391.831 882.801 392.163 883.21 392.163Z" fill="#1090CB"/>
<path d="M879.503 395.869C879.912 395.869 880.244 395.537 880.244 395.128C880.244 394.718 879.912 394.387 879.503 394.387C879.094 394.387 878.762 394.718 878.762 395.128C878.762 395.537 879.094 395.869 879.503 395.869Z" fill="#1090CB"/>
<path d="M936.948 348.246C937.358 348.246 937.689 347.914 937.689 347.505C937.689 347.095 937.358 346.764 936.948 346.764C936.539 346.764 936.207 347.095 936.207 347.505C936.207 347.914 936.539 348.246 936.948 348.246Z" fill="#1090CB"/>
<path d="M933.241 351.952C933.651 351.952 933.982 351.62 933.982 351.211C933.982 350.801 933.651 350.47 933.241 350.47C932.832 350.47 932.5 350.801 932.5 351.211C932.5 351.62 932.832 351.952 933.241 351.952Z" fill="#1090CB"/>
<path d="M929.351 355.658C929.76 355.658 930.092 355.326 930.092 354.917C930.092 354.508 929.76 354.176 929.351 354.176C928.941 354.176 928.609 354.508 928.609 354.917C928.609 355.326 928.941 355.658 929.351 355.658Z" fill="#1090CB"/>
<path d="M925.644 359.364C926.053 359.364 926.385 359.032 926.385 358.623C926.385 358.214 926.053 357.882 925.644 357.882C925.234 357.882 924.902 358.214 924.902 358.623C924.902 359.032 925.234 359.364 925.644 359.364Z" fill="#1090CB"/>
<path d="M921.753 363.07C922.162 363.07 922.494 362.738 922.494 362.329C922.494 361.92 922.162 361.588 921.753 361.588C921.344 361.588 921.012 361.92 921.012 362.329C921.012 362.738 921.344 363.07 921.753 363.07Z" fill="#1090CB"/>
<path d="M918.046 366.962C918.455 366.962 918.787 366.63 918.787 366.22C918.787 365.811 918.455 365.479 918.046 365.479C917.637 365.479 917.305 365.811 917.305 366.22C917.305 366.63 917.637 366.962 918.046 366.962Z" fill="#1090CB"/>
<path d="M914.155 370.668C914.565 370.668 914.896 370.336 914.896 369.927C914.896 369.517 914.565 369.185 914.155 369.185C913.746 369.185 913.414 369.517 913.414 369.927C913.414 370.336 913.746 370.668 914.155 370.668Z" fill="#1090CB"/>
<path d="M910.448 374.374C910.858 374.374 911.189 374.042 911.189 373.633C911.189 373.223 910.858 372.891 910.448 372.891C910.039 372.891 909.707 373.223 909.707 373.633C909.707 374.042 910.039 374.374 910.448 374.374Z" fill="#1090CB"/>
<path d="M906.558 378.08C906.967 378.08 907.299 377.748 907.299 377.339C907.299 376.929 906.967 376.597 906.558 376.597C906.148 376.597 905.816 376.929 905.816 377.339C905.816 377.748 906.148 378.08 906.558 378.08Z" fill="#1090CB"/>
<path d="M902.851 381.786C903.26 381.786 903.592 381.454 903.592 381.045C903.592 380.635 903.26 380.303 902.851 380.303C902.441 380.303 902.109 380.635 902.109 381.045C902.109 381.454 902.441 381.786 902.851 381.786Z" fill="#1090CB"/>
<path d="M898.96 385.492C899.369 385.492 899.701 385.16 899.701 384.751C899.701 384.341 899.369 384.01 898.96 384.01C898.551 384.01 898.219 384.341 898.219 384.751C898.219 385.16 898.551 385.492 898.96 385.492Z" fill="#1090CB"/>
<path d="M895.253 389.198C895.662 389.198 895.994 388.866 895.994 388.457C895.994 388.048 895.662 387.716 895.253 387.716C894.844 387.716 894.512 388.048 894.512 388.457C894.512 388.866 894.844 389.198 895.253 389.198Z" fill="#1090CB"/>
<path d="M891.362 392.904C891.771 392.904 892.103 392.572 892.103 392.163C892.103 391.754 891.771 391.422 891.362 391.422C890.953 391.422 890.621 391.754 890.621 392.163C890.621 392.572 890.953 392.904 891.362 392.904Z" fill="#1090CB"/>
<path d="M887.655 396.61C888.065 396.61 888.396 396.278 888.396 395.869C888.396 395.46 888.065 395.128 887.655 395.128C887.246 395.128 886.914 395.46 886.914 395.869C886.914 396.278 887.246 396.61 887.655 396.61Z" fill="#1090CB"/>
<path d="M883.765 400.316C884.174 400.316 884.506 399.984 884.506 399.575C884.506 399.166 884.174 398.834 883.765 398.834C883.355 398.834 883.023 399.166 883.023 399.575C883.023 399.984 883.355 400.316 883.765 400.316Z" fill="#1090CB"/>
<path d="M941.394 352.693C941.803 352.693 942.135 352.361 942.135 351.952C942.135 351.543 941.803 351.211 941.394 351.211C940.984 351.211 940.652 351.543 940.652 351.952C940.652 352.361 940.984 352.693 941.394 352.693Z" fill="#1090CB"/>
<path d="M937.687 356.399C938.096 356.399 938.428 356.067 938.428 355.658C938.428 355.249 938.096 354.917 937.687 354.917C937.277 354.917 936.945 355.249 936.945 355.658C936.945 356.067 937.277 356.399 937.687 356.399Z" fill="#1090CB"/>
<path d="M933.796 360.105C934.205 360.105 934.537 359.774 934.537 359.364C934.537 358.955 934.205 358.623 933.796 358.623C933.387 358.623 933.055 358.955 933.055 359.364C933.055 359.774 933.387 360.105 933.796 360.105Z" fill="#1090CB"/>
<path d="M930.089 363.997C930.498 363.997 930.83 363.665 930.83 363.256C930.83 362.846 930.498 362.514 930.089 362.514C929.679 362.514 929.348 362.846 929.348 363.256C929.348 363.665 929.679 363.997 930.089 363.997Z" fill="#1090CB"/>
<path d="M926.198 367.703C926.608 367.703 926.939 367.371 926.939 366.962C926.939 366.552 926.608 366.22 926.198 366.22C925.789 366.22 925.457 366.552 925.457 366.962C925.457 367.371 925.789 367.703 926.198 367.703Z" fill="#1090CB"/>
<path d="M922.308 371.409C922.717 371.409 923.049 371.077 923.049 370.668C923.049 370.258 922.717 369.927 922.308 369.927C921.898 369.927 921.566 370.258 921.566 370.668C921.566 371.077 921.898 371.409 922.308 371.409Z" fill="#1090CB"/>
<path d="M918.601 375.115C919.01 375.115 919.342 374.783 919.342 374.374C919.342 373.964 919.01 373.633 918.601 373.633C918.191 373.633 917.859 373.964 917.859 374.374C917.859 374.783 918.191 375.115 918.601 375.115Z" fill="#1090CB"/>
<path d="M914.71 378.821C915.119 378.821 915.451 378.489 915.451 378.08C915.451 377.67 915.119 377.339 914.71 377.339C914.301 377.339 913.969 377.67 913.969 378.08C913.969 378.489 914.301 378.821 914.71 378.821Z" fill="#1090CB"/>
<path d="M911.003 382.527C911.412 382.527 911.744 382.195 911.744 381.786C911.744 381.377 911.412 381.045 911.003 381.045C910.594 381.045 910.262 381.377 910.262 381.786C910.262 382.195 910.594 382.527 911.003 382.527Z" fill="#1090CB"/>
<path d="M907.112 386.233C907.522 386.233 907.853 385.901 907.853 385.492C907.853 385.083 907.522 384.751 907.112 384.751C906.703 384.751 906.371 385.083 906.371 385.492C906.371 385.901 906.703 386.233 907.112 386.233Z" fill="#1090CB"/>
<path d="M903.405 389.939C903.815 389.939 904.146 389.607 904.146 389.198C904.146 388.789 903.815 388.457 903.405 388.457C902.996 388.457 902.664 388.789 902.664 389.198C902.664 389.607 902.996 389.939 903.405 389.939Z" fill="#1090CB"/>
<path d="M899.515 393.645C899.924 393.645 900.256 393.314 900.256 392.904C900.256 392.495 899.924 392.163 899.515 392.163C899.105 392.163 898.773 392.495 898.773 392.904C898.773 393.314 899.105 393.645 899.515 393.645Z" fill="#1090CB"/>
<path d="M895.808 397.351C896.217 397.351 896.549 397.02 896.549 396.61C896.549 396.201 896.217 395.869 895.808 395.869C895.398 395.869 895.066 396.201 895.066 396.61C895.066 397.02 895.398 397.351 895.808 397.351Z" fill="#1090CB"/>
<path d="M891.917 401.058C892.326 401.058 892.658 400.726 892.658 400.316C892.658 399.907 892.326 399.575 891.917 399.575C891.508 399.575 891.176 399.907 891.176 400.316C891.176 400.726 891.508 401.058 891.917 401.058Z" fill="#1090CB"/>
<path d="M888.21 404.764C888.619 404.764 888.951 404.432 888.951 404.022C888.951 403.613 888.619 403.281 888.21 403.281C887.801 403.281 887.469 403.613 887.469 404.022C887.469 404.432 887.801 404.764 888.21 404.764Z" fill="#1090CB"/>
<path d="M945.839 357.141C946.248 357.141 946.58 356.809 946.58 356.399C946.58 355.99 946.248 355.658 945.839 355.658C945.43 355.658 945.098 355.99 945.098 356.399C945.098 356.809 945.43 357.141 945.839 357.141Z" fill="#1090CB"/>
<path d="M941.948 361.032C942.358 361.032 942.689 360.7 942.689 360.291C942.689 359.881 942.358 359.55 941.948 359.55C941.539 359.55 941.207 359.881 941.207 360.291C941.207 360.7 941.539 361.032 941.948 361.032Z" fill="#1090CB"/>
<path d="M938.241 364.738C938.651 364.738 938.982 364.406 938.982 363.997C938.982 363.588 938.651 363.256 938.241 363.256C937.832 363.256 937.5 363.588 937.5 363.997C937.5 364.406 937.832 364.738 938.241 364.738Z" fill="#1090CB"/>
<path d="M934.351 368.444C934.76 368.444 935.092 368.112 935.092 367.703C935.092 367.294 934.76 366.962 934.351 366.962C933.941 366.962 933.609 367.294 933.609 367.703C933.609 368.112 933.941 368.444 934.351 368.444Z" fill="#1090CB"/>
<path d="M930.644 372.15C931.053 372.15 931.385 371.818 931.385 371.409C931.385 371 931.053 370.668 930.644 370.668C930.234 370.668 929.902 371 929.902 371.409C929.902 371.818 930.234 372.15 930.644 372.15Z" fill="#1090CB"/>
<path d="M926.753 375.856C927.162 375.856 927.494 375.524 927.494 375.115C927.494 374.706 927.162 374.374 926.753 374.374C926.343 374.374 926.012 374.706 926.012 375.115C926.012 375.524 926.343 375.856 926.753 375.856Z" fill="#1090CB"/>
<path d="M923.046 379.562C923.455 379.562 923.787 379.23 923.787 378.821C923.787 378.412 923.455 378.08 923.046 378.08C922.637 378.08 922.305 378.412 922.305 378.821C922.305 379.23 922.637 379.562 923.046 379.562Z" fill="#1090CB"/>
<path d="M919.155 383.268C919.565 383.268 919.897 382.937 919.897 382.527C919.897 382.118 919.565 381.786 919.155 381.786C918.746 381.786 918.414 382.118 918.414 382.527C918.414 382.937 918.746 383.268 919.155 383.268Z" fill="#1090CB"/>
<path d="M915.448 386.975C915.858 386.975 916.189 386.643 916.189 386.233C916.189 385.824 915.858 385.492 915.448 385.492C915.039 385.492 914.707 385.824 914.707 386.233C914.707 386.643 915.039 386.975 915.448 386.975Z" fill="#1090CB"/>
<path d="M911.558 390.681C911.967 390.681 912.299 390.349 912.299 389.939C912.299 389.53 911.967 389.198 911.558 389.198C911.148 389.198 910.816 389.53 910.816 389.939C910.816 390.349 911.148 390.681 911.558 390.681Z" fill="#1090CB"/>
<path d="M907.667 394.387C908.076 394.387 908.408 394.055 908.408 393.645C908.408 393.236 908.076 392.904 907.667 392.904C907.258 392.904 906.926 393.236 906.926 393.645C906.926 394.055 907.258 394.387 907.667 394.387Z" fill="#1090CB"/>
<path d="M903.96 398.093C904.369 398.093 904.701 397.761 904.701 397.351C904.701 396.942 904.369 396.61 903.96 396.61C903.551 396.61 903.219 396.942 903.219 397.351C903.219 397.761 903.551 398.093 903.96 398.093Z" fill="#1090CB"/>
<path d="M900.069 401.799C900.478 401.799 900.81 401.467 900.81 401.058C900.81 400.648 900.478 400.316 900.069 400.316C899.66 400.316 899.328 400.648 899.328 401.058C899.328 401.467 899.66 401.799 900.069 401.799Z" fill="#1090CB"/>
<path d="M896.362 405.505C896.772 405.505 897.104 405.173 897.104 404.764C897.104 404.354 896.772 404.022 896.362 404.022C895.953 404.022 895.621 404.354 895.621 404.764C895.621 405.173 895.953 405.505 896.362 405.505Z" fill="#1090CB"/>
<path d="M892.472 409.211C892.881 409.211 893.213 408.879 893.213 408.47C893.213 408.06 892.881 407.728 892.472 407.728C892.062 407.728 891.73 408.06 891.73 408.47C891.73 408.879 892.062 409.211 892.472 409.211Z" fill="#1090CB"/>
<path d="M950.104 361.773C950.514 361.773 950.846 361.441 950.846 361.032C950.846 360.623 950.514 360.291 950.104 360.291C949.695 360.291 949.363 360.623 949.363 361.032C949.363 361.441 949.695 361.773 950.104 361.773Z" fill="#1090CB"/>
<path d="M946.397 365.479C946.807 365.479 947.139 365.147 947.139 364.738C947.139 364.329 946.807 363.997 946.397 363.997C945.988 363.997 945.656 364.329 945.656 364.738C945.656 365.147 945.988 365.479 946.397 365.479Z" fill="#1090CB"/>
<path d="M942.507 369.185C942.916 369.185 943.248 368.853 943.248 368.444C943.248 368.035 942.916 367.703 942.507 367.703C942.098 367.703 941.766 368.035 941.766 368.444C941.766 368.853 942.098 369.185 942.507 369.185Z" fill="#1090CB"/>
<path d="M938.8 372.891C939.209 372.891 939.541 372.559 939.541 372.15C939.541 371.741 939.209 371.409 938.8 371.409C938.39 371.409 938.059 371.741 938.059 372.15C938.059 372.559 938.39 372.891 938.8 372.891Z" fill="#1090CB"/>
<path d="M934.909 376.598C935.319 376.598 935.65 376.266 935.65 375.856C935.65 375.447 935.319 375.115 934.909 375.115C934.5 375.115 934.168 375.447 934.168 375.856C934.168 376.266 934.5 376.598 934.909 376.598Z" fill="#1090CB"/>
<path d="M931.202 380.304C931.611 380.304 931.943 379.972 931.943 379.562C931.943 379.153 931.611 378.821 931.202 378.821C930.793 378.821 930.461 379.153 930.461 379.562C930.461 379.972 930.793 380.304 931.202 380.304Z" fill="#1090CB"/>
<path d="M927.312 384.01C927.721 384.01 928.053 383.678 928.053 383.268C928.053 382.859 927.721 382.527 927.312 382.527C926.902 382.527 926.57 382.859 926.57 383.268C926.57 383.678 926.902 384.01 927.312 384.01Z" fill="#1090CB"/>
<path d="M923.604 387.716C924.014 387.716 924.346 387.384 924.346 386.974C924.346 386.565 924.014 386.233 923.604 386.233C923.195 386.233 922.863 386.565 922.863 386.974C922.863 387.384 923.195 387.716 923.604 387.716Z" fill="#1090CB"/>
<path d="M919.714 391.422C920.123 391.422 920.455 391.09 920.455 390.681C920.455 390.271 920.123 389.939 919.714 389.939C919.304 389.939 918.973 390.271 918.973 390.681C918.973 391.09 919.304 391.422 919.714 391.422Z" fill="#1090CB"/>
<path d="M916.007 395.128C916.416 395.128 916.748 394.796 916.748 394.387C916.748 393.977 916.416 393.645 916.007 393.645C915.597 393.645 915.266 393.977 915.266 394.387C915.266 394.796 915.597 395.128 916.007 395.128Z" fill="#1090CB"/>
<path d="M912.116 398.834C912.526 398.834 912.857 398.502 912.857 398.093C912.857 397.683 912.526 397.351 912.116 397.351C911.707 397.351 911.375 397.683 911.375 398.093C911.375 398.502 911.707 398.834 912.116 398.834Z" fill="#1090CB"/>
<path d="M908.409 402.54C908.819 402.54 909.15 402.208 909.15 401.799C909.15 401.389 908.819 401.058 908.409 401.058C908 401.058 907.668 401.389 907.668 401.799C907.668 402.208 908 402.54 908.409 402.54Z" fill="#1090CB"/>
<path d="M904.519 406.246C904.928 406.246 905.26 405.914 905.26 405.505C905.26 405.096 904.928 404.764 904.519 404.764C904.109 404.764 903.777 405.096 903.777 405.505C903.777 405.914 904.109 406.246 904.519 406.246Z" fill="#1090CB"/>
<path d="M900.812 409.952C901.221 409.952 901.553 409.62 901.553 409.211C901.553 408.802 901.221 408.47 900.812 408.47C900.402 408.47 900.07 408.802 900.07 409.211C900.07 409.62 900.402 409.952 900.812 409.952Z" fill="#1090CB"/>
<path d="M896.921 413.658C897.33 413.658 897.662 413.326 897.662 412.917C897.662 412.508 897.33 412.176 896.921 412.176C896.512 412.176 896.18 412.508 896.18 412.917C896.18 413.326 896.512 413.658 896.921 413.658Z" fill="#1090CB"/>
<path d="M954.55 366.22C954.959 366.22 955.291 365.889 955.291 365.479C955.291 365.07 954.959 364.738 954.55 364.738C954.14 364.738 953.809 365.07 953.809 365.479C953.809 365.889 954.14 366.22 954.55 366.22Z" fill="#1090CB"/>
<path d="M950.655 369.926C951.065 369.926 951.396 369.595 951.396 369.185C951.396 368.776 951.065 368.444 950.655 368.444C950.246 368.444 949.914 368.776 949.914 369.185C949.914 369.595 950.246 369.926 950.655 369.926Z" fill="#1090CB"/>
<path d="M946.952 373.633C947.362 373.633 947.693 373.301 947.693 372.891C947.693 372.482 947.362 372.15 946.952 372.15C946.543 372.15 946.211 372.482 946.211 372.891C946.211 373.301 946.543 373.633 946.952 373.633Z" fill="#1090CB"/>
<path d="M943.058 377.339C943.467 377.339 943.799 377.007 943.799 376.597C943.799 376.188 943.467 375.856 943.058 375.856C942.648 375.856 942.316 376.188 942.316 376.597C942.316 377.007 942.648 377.339 943.058 377.339Z" fill="#1090CB"/>
<path d="M939.354 381.045C939.764 381.045 940.096 380.713 940.096 380.304C940.096 379.894 939.764 379.562 939.354 379.562C938.945 379.562 938.613 379.894 938.613 380.304C938.613 380.713 938.945 381.045 939.354 381.045Z" fill="#1090CB"/>
<path d="M935.464 384.751C935.873 384.751 936.205 384.419 936.205 384.01C936.205 383.6 935.873 383.268 935.464 383.268C935.054 383.268 934.723 383.6 934.723 384.01C934.723 384.419 935.054 384.751 935.464 384.751Z" fill="#1090CB"/>
<path d="M931.757 388.457C932.166 388.457 932.498 388.125 932.498 387.716C932.498 387.306 932.166 386.974 931.757 386.974C931.347 386.974 931.016 387.306 931.016 387.716C931.016 388.125 931.347 388.457 931.757 388.457Z" fill="#1090CB"/>
<path d="M927.866 392.163C928.276 392.163 928.607 391.831 928.607 391.422C928.607 391.012 928.276 390.681 927.866 390.681C927.457 390.681 927.125 391.012 927.125 391.422C927.125 391.831 927.457 392.163 927.866 392.163Z" fill="#1090CB"/>
<path d="M924.159 395.869C924.569 395.869 924.9 395.537 924.9 395.128C924.9 394.718 924.569 394.387 924.159 394.387C923.75 394.387 923.418 394.718 923.418 395.128C923.418 395.537 923.75 395.869 924.159 395.869Z" fill="#1090CB"/>
<path d="M920.269 399.575C920.678 399.575 921.01 399.243 921.01 398.834C921.01 398.424 920.678 398.093 920.269 398.093C919.859 398.093 919.527 398.424 919.527 398.834C919.527 399.243 919.859 399.575 920.269 399.575Z" fill="#1090CB"/>
<path d="M916.562 403.281C916.971 403.281 917.303 402.949 917.303 402.54C917.303 402.131 916.971 401.799 916.562 401.799C916.152 401.799 915.82 402.131 915.82 402.54C915.82 402.949 916.152 403.281 916.562 403.281Z" fill="#1090CB"/>
<path d="M912.671 406.987C913.08 406.987 913.412 406.655 913.412 406.246C913.412 405.837 913.08 405.505 912.671 405.505C912.262 405.505 911.93 405.837 911.93 406.246C911.93 406.655 912.262 406.987 912.671 406.987Z" fill="#1090CB"/>
<path d="M908.964 410.693C909.373 410.693 909.705 410.362 909.705 409.952C909.705 409.543 909.373 409.211 908.964 409.211C908.554 409.211 908.223 409.543 908.223 409.952C908.223 410.362 908.554 410.693 908.964 410.693Z" fill="#1090CB"/>
<path d="M905.073 414.585C905.483 414.585 905.814 414.253 905.814 413.843C905.814 413.434 905.483 413.102 905.073 413.102C904.664 413.102 904.332 413.434 904.332 413.843C904.332 414.253 904.664 414.585 905.073 414.585Z" fill="#1090CB"/>
<path d="M901.366 418.291C901.776 418.291 902.107 417.959 902.107 417.55C902.107 417.14 901.776 416.808 901.366 416.808C900.957 416.808 900.625 417.14 900.625 417.55C900.625 417.959 900.957 418.291 901.366 418.291Z" fill="#1090CB"/>
<path d="M958.995 370.668C959.404 370.668 959.736 370.336 959.736 369.927C959.736 369.517 959.404 369.185 958.995 369.185C958.586 369.185 958.254 369.517 958.254 369.927C958.254 370.336 958.586 370.668 958.995 370.668Z" fill="#1090CB"/>
<path d="M955.104 374.374C955.514 374.374 955.846 374.042 955.846 373.633C955.846 373.223 955.514 372.891 955.104 372.891C954.695 372.891 954.363 373.223 954.363 373.633C954.363 374.042 954.695 374.374 955.104 374.374Z" fill="#1090CB"/>
<path d="M951.397 378.08C951.807 378.08 952.139 377.748 952.139 377.339C952.139 376.929 951.807 376.597 951.397 376.597C950.988 376.597 950.656 376.929 950.656 377.339C950.656 377.748 950.988 378.08 951.397 378.08Z" fill="#1090CB"/>
<path d="M947.507 381.786C947.916 381.786 948.248 381.454 948.248 381.045C948.248 380.635 947.916 380.303 947.507 380.303C947.097 380.303 946.766 380.635 946.766 381.045C946.766 381.454 947.097 381.786 947.507 381.786Z" fill="#1090CB"/>
<path d="M943.8 385.492C944.209 385.492 944.541 385.16 944.541 384.751C944.541 384.341 944.209 384.01 943.8 384.01C943.39 384.01 943.059 384.341 943.059 384.751C943.059 385.16 943.39 385.492 943.8 385.492Z" fill="#1090CB"/>
<path d="M939.909 389.198C940.319 389.198 940.65 388.866 940.65 388.457C940.65 388.047 940.319 387.716 939.909 387.716C939.5 387.716 939.168 388.047 939.168 388.457C939.168 388.866 939.5 389.198 939.909 389.198Z" fill="#1090CB"/>
<path d="M936.019 392.904C936.428 392.904 936.76 392.572 936.76 392.163C936.76 391.754 936.428 391.422 936.019 391.422C935.609 391.422 935.277 391.754 935.277 392.163C935.277 392.572 935.609 392.904 936.019 392.904Z" fill="#1090CB"/>
<path d="M932.312 396.61C932.721 396.61 933.053 396.278 933.053 395.869C933.053 395.46 932.721 395.128 932.312 395.128C931.902 395.128 931.57 395.46 931.57 395.869C931.57 396.278 931.902 396.61 932.312 396.61Z" fill="#1090CB"/>
<path d="M928.421 400.316C928.83 400.316 929.162 399.984 929.162 399.575C929.162 399.166 928.83 398.834 928.421 398.834C928.012 398.834 927.68 399.166 927.68 399.575C927.68 399.984 928.012 400.316 928.421 400.316Z" fill="#1090CB"/>
<path d="M924.714 404.022C925.123 404.022 925.455 403.69 925.455 403.281C925.455 402.872 925.123 402.54 924.714 402.54C924.304 402.54 923.973 402.872 923.973 403.281C923.973 403.69 924.304 404.022 924.714 404.022Z" fill="#1090CB"/>
<path d="M920.823 407.728C921.233 407.728 921.564 407.397 921.564 406.987C921.564 406.578 921.233 406.246 920.823 406.246C920.414 406.246 920.082 406.578 920.082 406.987C920.082 407.397 920.414 407.728 920.823 407.728Z" fill="#1090CB"/>
<path d="M917.116 411.62C917.526 411.62 917.857 411.288 917.857 410.879C917.857 410.469 917.526 410.137 917.116 410.137C916.707 410.137 916.375 410.469 916.375 410.879C916.375 411.288 916.707 411.62 917.116 411.62Z" fill="#1090CB"/>
<path d="M913.226 415.326C913.635 415.326 913.967 414.994 913.967 414.585C913.967 414.175 913.635 413.844 913.226 413.844C912.816 413.844 912.484 414.175 912.484 414.585C912.484 414.994 912.816 415.326 913.226 415.326Z" fill="#1090CB"/>
<path d="M909.519 419.032C909.928 419.032 910.26 418.7 910.26 418.291C910.26 417.881 909.928 417.55 909.519 417.55C909.109 417.55 908.777 417.881 908.777 418.291C908.777 418.7 909.109 419.032 909.519 419.032Z" fill="#1090CB"/>
<path d="M905.628 422.738C906.037 422.738 906.369 422.406 906.369 421.997C906.369 421.587 906.037 421.256 905.628 421.256C905.219 421.256 904.887 421.587 904.887 421.997C904.887 422.406 905.219 422.738 905.628 422.738Z" fill="#1090CB"/>
<path d="M963.261 375.115C963.67 375.115 964.002 374.783 964.002 374.374C964.002 373.964 963.67 373.633 963.261 373.633C962.851 373.633 962.52 373.964 962.52 374.374C962.52 374.783 962.851 375.115 963.261 375.115Z" fill="#1090CB"/>
<path d="M959.554 378.821C959.963 378.821 960.295 378.489 960.295 378.08C960.295 377.67 959.963 377.339 959.554 377.339C959.144 377.339 958.812 377.67 958.812 378.08C958.812 378.489 959.144 378.821 959.554 378.821Z" fill="#1090CB"/>
<path d="M955.663 382.527C956.072 382.527 956.404 382.195 956.404 381.786C956.404 381.377 956.072 381.045 955.663 381.045C955.254 381.045 954.922 381.377 954.922 381.786C954.922 382.195 955.254 382.527 955.663 382.527Z" fill="#1090CB"/>
<path d="M951.956 386.233C952.365 386.233 952.697 385.901 952.697 385.492C952.697 385.083 952.365 384.751 951.956 384.751C951.547 384.751 951.215 385.083 951.215 385.492C951.215 385.901 951.547 386.233 951.956 386.233Z" fill="#1090CB"/>
<path d="M948.065 389.939C948.475 389.939 948.807 389.607 948.807 389.198C948.807 388.789 948.475 388.457 948.065 388.457C947.656 388.457 947.324 388.789 947.324 389.198C947.324 389.607 947.656 389.939 948.065 389.939Z" fill="#1090CB"/>
<path d="M944.358 393.645C944.768 393.645 945.1 393.313 945.1 392.904C945.1 392.495 944.768 392.163 944.358 392.163C943.949 392.163 943.617 392.495 943.617 392.904C943.617 393.313 943.949 393.645 944.358 393.645Z" fill="#1090CB"/>
<path d="M940.468 397.351C940.877 397.351 941.209 397.02 941.209 396.61C941.209 396.201 940.877 395.869 940.468 395.869C940.058 395.869 939.727 396.201 939.727 396.61C939.727 397.02 940.058 397.351 940.468 397.351Z" fill="#1090CB"/>
<path d="M936.761 401.058C937.17 401.058 937.502 400.726 937.502 400.316C937.502 399.907 937.17 399.575 936.761 399.575C936.351 399.575 936.02 399.907 936.02 400.316C936.02 400.726 936.351 401.058 936.761 401.058Z" fill="#1090CB"/>
<path d="M932.87 404.764C933.279 404.764 933.611 404.432 933.611 404.022C933.611 403.613 933.279 403.281 932.87 403.281C932.461 403.281 932.129 403.613 932.129 404.022C932.129 404.432 932.461 404.764 932.87 404.764Z" fill="#1090CB"/>
<path d="M929.163 408.655C929.572 408.655 929.904 408.323 929.904 407.914C929.904 407.504 929.572 407.172 929.163 407.172C928.754 407.172 928.422 407.504 928.422 407.914C928.422 408.323 928.754 408.655 929.163 408.655Z" fill="#1090CB"/>
<path d="M925.272 412.361C925.682 412.361 926.014 412.029 926.014 411.62C926.014 411.211 925.682 410.879 925.272 410.879C924.863 410.879 924.531 411.211 924.531 411.62C924.531 412.029 924.863 412.361 925.272 412.361Z" fill="#1090CB"/>
<path d="M921.382 416.067C921.791 416.067 922.123 415.735 922.123 415.326C922.123 414.917 921.791 414.585 921.382 414.585C920.972 414.585 920.641 414.917 920.641 415.326C920.641 415.735 920.972 416.067 921.382 416.067Z" fill="#1090CB"/>
<path d="M917.675 419.773C918.084 419.773 918.416 419.441 918.416 419.032C918.416 418.623 918.084 418.291 917.675 418.291C917.265 418.291 916.934 418.623 916.934 419.032C916.934 419.441 917.265 419.773 917.675 419.773Z" fill="#1090CB"/>
<path d="M913.784 423.479C914.194 423.479 914.525 423.147 914.525 422.738C914.525 422.329 914.194 421.997 913.784 421.997C913.375 421.997 913.043 422.329 913.043 422.738C913.043 423.147 913.375 423.479 913.784 423.479Z" fill="#1090CB"/>
<path d="M910.077 427.185C910.487 427.185 910.818 426.853 910.818 426.444C910.818 426.035 910.487 425.703 910.077 425.703C909.668 425.703 909.336 426.035 909.336 426.444C909.336 426.853 909.668 427.185 910.077 427.185Z" fill="#1090CB"/>
<path d="M882.415 241.416C884.302 241.738 886.093 240.471 886.415 238.584C886.738 236.698 885.47 234.907 883.584 234.584C881.697 234.262 879.906 235.529 879.584 237.416C879.261 239.302 880.529 241.093 882.415 241.416Z" fill="#1090CB"/>
<path d="M632.415 147.416C634.302 147.738 636.093 146.471 636.415 144.584C636.738 142.698 635.47 140.907 633.584 140.584C631.697 140.262 629.906 141.529 629.584 143.416C629.261 145.302 630.529 147.093 632.415 147.416Z" fill="#1090CB" fill-opacity="0.77"/>
<defs>
<filter id="filter0_f_89_1081" x="101.976" y="148.318" width="816.662" height="819.977" filterUnits="userSpaceOnUse" color-interpolation-filters="sRGB">
<feFlood flood-opacity="0" result="BackgroundImageFix"/>
<feBlend mode="normal" in="SourceGraphic" in2="BackgroundImageFix" result="shape"/>
<feGaussianBlur stdDeviation="125" result="effect1_foregroundBlur_89_1081"/>
</filter>
<filter id="filter1_f_89_1081" x="0.226196" y="117.982" width="816.936" height="819.71" filterUnits="userSpaceOnUse" color-interpolation-filters="sRGB">
<feFlood flood-opacity="0" result="BackgroundImageFix"/>
<feBlend mode="normal" in="SourceGraphic" in2="BackgroundImageFix" result="shape"/>
<feGaussianBlur stdDeviation="125" result="effect1_foregroundBlur_89_1081"/>
</filter>
<filter id="filter2_f_89_1081" x="225.074" y="0.225342" width="816.936" height="819.71" filterUnits="userSpaceOnUse" color-interpolation-filters="sRGB">
<feFlood flood-opacity="0" result="BackgroundImageFix"/>
<feBlend mode="normal" in="SourceGraphic" in2="BackgroundImageFix" result="shape"/>
<feGaussianBlur stdDeviation="125" result="effect1_foregroundBlur_89_1081"/>
</filter>
<filter id="filter3_f_89_1081" x="28.8707" y="222.913" width="816.936" height="819.71" filterUnits="userSpaceOnUse" color-interpolation-filters="sRGB">
<feFlood flood-opacity="0" result="BackgroundImageFix"/>
<feBlend mode="normal" in="SourceGraphic" in2="BackgroundImageFix" result="shape"/>
<feGaussianBlur stdDeviation="125" result="effect1_foregroundBlur_89_1081"/>
</filter>
</defs>
</svg>
