<svg width="83" height="83" viewBox="0 0 83 83" fill="none" xmlns="http://www.w3.org/2000/svg">
<rect width="83" height="83" rx="20" fill="#EFEAFF"/>
<path d="M29.8726 32.162V56.4587C31.3231 57.7059 32.4074 54.883 33.0126 56.8165C33.1498 57.2556 33.267 56.3641 33.3433 56.8165V32.2272C32.9518 32.2842 32.5621 32.3375 32.1655 32.3484L31.8707 32.3527C31.1862 32.3527 30.5182 32.285 29.8726 32.162Z" fill="#4628A4"/>
<path d="M48.6486 31.5816C48.8692 30.3461 49.2928 29.1897 49.8994 28.1508C49.7793 28.1365 49.6602 28.1111 49.5366 28.1111H42.2105L42.2968 28.5838C42.5022 29.6752 42.1582 30.7683 41.3955 31.5816H48.6486Z" fill="#4628A4"/>
<path d="M49.5665 43.3386C49.4788 43.2547 49.4156 43.152 49.336 43.0607V58.6246H33.3432V55.7029C32.8875 55.9293 32.3877 56.0724 31.859 56.0802L29.8726 56.108V62.4206C29.8726 64.3941 31.3384 66 33.14 66H49.5392C51.3408 66 52.8067 64.3941 52.8067 62.4206V44.1536C52.5203 44.2291 52.2273 44.2681 51.9291 44.2681C51.0561 44.2682 50.2208 43.9419 49.5665 43.3386ZM41.3406 64.2646C40.1407 64.2646 39.1715 63.2934 39.1715 62.0953C39.1715 60.8972 40.1406 59.9261 41.3406 59.9261C42.537 59.9261 43.5098 60.8972 43.5098 62.0953C43.5098 63.2934 42.537 64.2646 41.3406 64.2646Z" fill="#4628A4"/>
<path d="M31.8692 29.7496C31.9436 29.7496 32.0181 29.7478 32.093 29.7463C33.1367 29.7165 34.1231 29.475 35.0249 29.0803L38.6717 30.0522C38.7426 30.0716 38.8176 30.0809 38.892 30.0809C39.1054 30.0809 39.3153 30.0003 39.478 29.8512C39.6952 29.6495 39.7937 29.3523 39.7392 29.0622L39.0121 25.1264C39.495 24.0662 39.7783 22.8978 39.7423 21.6548C39.6239 17.3828 36.1229 14 31.8761 14C31.8015 14 31.7267 14.0018 31.6522 14.0034C27.3053 14.1263 23.8801 17.7488 24.0023 22.0957C24.121 26.3671 27.6223 29.7496 31.8692 29.7496ZM31.8796 28.0092C30.9844 28.0092 30.2591 27.2831 30.2591 26.3875C30.2591 25.4918 30.9844 24.7655 31.8796 24.7655C32.7757 24.7655 33.5031 25.4918 33.5031 26.3875C33.5031 27.283 32.7757 28.0092 31.8796 28.0092ZM30.2269 16.831C30.6148 16.3682 31.1876 16.1014 31.7913 16.1014H31.9673C32.571 16.1014 33.1437 16.3682 33.5334 16.831C33.9228 17.2919 34.0855 17.9029 33.9839 18.4978L33.2079 22.992C33.1674 23.2258 32.9656 23.3962 32.7285 23.3962H31.0321C30.7944 23.3962 30.5911 23.2258 30.5507 22.992L29.7747 18.4978C29.6731 17.9029 29.8373 17.292 30.2269 16.831Z" fill="#4628A4"/>
<path d="M59.1697 25.5874C59.0954 25.5856 59.0206 25.5841 58.9461 25.5841C54.6975 25.5841 51.1981 28.9666 51.0775 33.2391C51.0437 34.482 51.3248 35.6504 51.8099 36.7107L51.081 40.6465C51.0265 40.9362 51.1268 41.2337 51.3418 41.4353C51.5045 41.5845 51.7148 41.665 51.9285 41.665C52.0029 41.665 52.0772 41.6556 52.1502 41.6362L55.7975 40.664C56.6988 41.059 57.6834 41.3005 58.7293 41.3303C58.8037 41.3318 58.8783 41.3336 58.9528 41.3336C63.2 41.3336 66.6996 37.9508 66.8197 33.6793C66.9399 29.3329 63.5168 25.7104 59.1697 25.5874ZM58.941 39.5932C58.0464 39.5932 57.3194 38.8672 57.3194 37.9716C57.3194 37.0759 58.0464 36.3496 58.941 36.3496C59.8362 36.3496 60.5613 37.0759 60.5613 37.9716C60.5613 38.8672 59.8362 39.5932 58.941 39.5932ZM61.0459 30.0818L60.2697 34.5762C60.2291 34.81 60.0276 34.9805 59.7898 34.9805H58.0935C57.8564 34.9805 57.6531 34.81 57.6127 34.5762L56.8365 30.0818C56.7345 29.4872 56.8993 28.876 57.2887 28.4151C57.6766 27.9525 58.2496 27.6855 58.8531 27.6855H59.0293C59.6323 27.6855 60.2051 27.9525 60.5952 28.4151C60.9848 28.876 61.1475 29.4871 61.0459 30.0818Z" fill="#4628A4"/>
<path d="M41.3381 51.0882C42.2733 51.0882 43.0324 50.3299 43.0324 49.3936C43.0324 48.4582 42.2733 47.6999 41.3381 47.6999C40.4023 47.6999 39.6432 48.4582 39.6432 49.3936C39.6432 50.3299 40.4023 51.0882 41.3381 51.0882Z" fill="#4628A4"/>
<path d="M35.109 49.3937C35.109 50.33 35.8667 51.0883 36.804 51.0883C37.7395 51.0883 38.4966 50.33 38.4966 49.3937C38.4966 48.4584 37.7395 47.7 36.804 47.7C35.8667 47.7 35.109 48.4582 35.109 49.3937Z" fill="#4628A4"/>
<path d="M44.1808 49.3937C44.1808 50.33 44.9385 51.0883 45.8751 51.0883C46.8109 51.0883 47.5683 50.33 47.5683 49.3937C47.5683 48.4584 46.8109 47.7 45.8751 47.7C44.9385 47.7 44.1808 48.4582 44.1808 49.3937Z" fill="#4628A4"/>
</svg>
