<svg width="83" height="83" viewBox="0 0 83 83" fill="none" xmlns="http://www.w3.org/2000/svg">
<rect width="83" height="83" rx="20" fill="#DAE6FF"/>
<path d="M62.9797 59.9512H64.9992V65H59.9505V62.9805H62.9796V59.9512H62.9797ZM31.2288 65H38.41V62.9805H31.2288V65ZM45.59 65H52.77V62.9805H45.59V65ZM21.0195 59.9512H19V65H24.0488V62.9805H21.0195V59.9512ZM21.0195 45.59H19V52.7704H21.0195V45.59ZM21.0195 31.2293H19V38.4099H21.0195V31.2293ZM19 24.0488H21.0195V21.0195H24.0488V19H19V24.0488ZM38.4094 19H31.2288V21.0195H38.4094V19ZM52.77 19H45.59V21.0195H52.77V19ZM59.9506 19V21.0195H62.9797V24.0488H64.9992V19H59.9506ZM62.9797 52.7705H64.9992V45.5901H62.9797V52.7705ZM62.9797 38.4099H64.9992V31.2293H62.9797V38.4099ZM55.1957 29.3641C53.9203 28.0891 51.8534 28.0891 50.5781 29.3641L41.9993 37.9423L33.4211 29.3641C32.1448 28.0891 30.0783 28.0891 28.8032 29.3641C27.5269 30.6398 27.5269 32.7075 28.8032 33.9832L37.3802 42.5607L28.8026 51.1383C27.5262 52.415 27.5262 54.4818 28.8026 55.7571C29.4398 56.3947 30.2754 56.7141 31.1117 56.7141C31.9476 56.7141 32.7831 56.3947 33.4211 55.7571L41.9993 47.1795L50.5774 55.7571C51.2145 56.3947 52.0506 56.7141 52.8869 56.7141C53.7225 56.7141 54.5579 56.3947 55.1957 55.7571C56.4723 54.4818 56.4723 52.4136 55.1957 51.1383L46.6181 42.5607L55.1957 33.9832C56.4717 32.7069 56.4717 30.6397 55.1957 29.3641Z" fill="#00329B"/>
</svg>
