<svg width="209" height="58" viewBox="0 0 209 58" fill="none" xmlns="http://www.w3.org/2000/svg">
<path d="M76.884 37L75.818 34.712H68.642L67.576 37H63.026V36.324L71.216 18.566H73.218L81.434 36.324V37H76.884ZM74.31 30.734L72.204 25.95L70.15 30.734H74.31Z" fill="#E23434"/>
<path d="M88.4778 18.8C88.4778 28.212 88.4778 25.066 88.4778 32.814H95.0818C95.0818 34.374 95.0818 35.44 95.0818 37C91.3378 37 87.4898 37 83.7978 37V18.8C85.3578 18.8 86.8918 18.8 88.4778 18.8ZM108.853 31.098H103.003V37C101.443 37 99.857 37 98.271 37V18.8C101.989 18.8 105.889 18.8 109.607 18.8C109.607 20.334 109.607 21.4 109.607 22.96H103.003V26.938H108.853C108.853 28.498 108.853 29.486 108.853 31.098ZM123.933 37L122.867 34.712H115.691L114.625 37H110.075V36.324L118.265 18.566H120.267L128.483 36.324V37H123.933ZM121.333 30.708L119.253 25.924L117.225 30.708H121.333ZM129.755 27.9C129.781 21.686 134.461 18.566 139.089 18.566C142.755 18.592 146.577 20.49 147.461 25.014H142.885C142.131 23.454 140.935 22.83 139.089 22.83C136.151 22.83 134.565 25.118 134.565 27.9C134.565 30.916 136.333 32.892 139.089 32.892C140.961 32.892 142.157 32.398 142.989 30.656H139.115V26.626H147.721C147.825 28.446 147.825 30.188 147.201 31.956C145.901 35.752 142.443 37.208 139.089 37.208C134.461 37.208 129.781 34.114 129.755 27.9ZM163.218 30.552L166.78 36.324V37H161.58L158.46 31.644H156.042V37C154.482 37 152.896 37 151.388 37C151.388 30.942 151.388 24.884 151.388 18.8C154.014 18.8 156.718 18.8 159.37 18.8C166.52 18.826 167.82 27.432 163.218 30.552ZM159.37 27.458C161.892 27.458 162.022 22.986 159.37 22.96C158.278 22.934 157.134 22.96 156.042 22.96C156.042 24.442 156.042 26.002 156.042 27.458H159.37ZM181.976 37L180.91 34.712H173.734L172.668 37H168.118V36.324L176.308 18.566H178.31L186.526 36.324V37H181.976ZM179.376 30.708L177.296 25.924L175.268 30.708H179.376ZM197.73 26.652L204.984 18.748H206.648V37C205.062 37 203.476 37 201.89 37V28.888L198.016 32.944H197.496L193.648 28.888V37C192.062 37 190.476 37 188.89 37V18.748H190.606L197.73 26.652Z" fill="#1090CB"/>
<rect width="54.9958" height="54.9958" rx="27.4979" fill="url(#paint0_linear_4008_123)"/>
<path d="M46.2969 46.6931C45.1901 46.6886 44.2031 47.6489 44.1729 48.739V48.7419C44.143 49.7572 44.9885 50.704 46.2383 50.7205L46.457 50.7136C47.5289 50.6351 48.2293 49.8687 48.2412 48.8152V48.8113C48.2572 47.584 47.3392 46.698 46.2969 46.6931ZM53.9785 53.531L53.9746 53.7283C53.952 54.1936 53.8349 54.687 53.5488 55.1443C53.2154 55.6771 52.7296 56.0369 52.1885 56.2566H52.1875C51.6231 56.4855 50.9849 56.5602 50.3555 56.3826C49.9858 56.2782 49.6595 56.0955 49.3818 55.8582C45.448 57.5693 40.6436 55.7121 39.0039 51.7087L39.0049 51.7078C37.2639 47.4646 39.5619 42.6805 43.9414 41.3035L44.3535 41.1853C48.6061 40.0882 52.8111 42.654 53.7988 47.0193V47.0203C53.9668 47.7641 53.9875 48.482 53.9834 49.073C53.9788 49.7353 53.9509 50.1208 53.9756 50.5242L53.9785 50.5701V53.531Z" fill="#E23434" stroke="white" stroke-width="3"/>
<path d="M8.03513 26.9634C11.4052 25.1019 15.167 23.5483 18.6819 21.9867C24.7289 19.429 30.7999 16.9156 36.9322 14.5757C38.1253 14.177 40.2691 13.7872 40.4793 15.5602C40.3641 18.07 39.8906 20.565 39.5659 23.0601C38.7415 28.547 37.7887 34.0151 36.8596 39.4839C36.5395 41.3056 34.2638 42.2486 32.8078 41.0828C29.3085 38.7126 25.7823 36.3654 22.3277 33.9401C21.1961 32.7871 22.2455 31.1312 23.2561 30.3078C26.1382 27.4595 29.1947 25.0396 31.9262 22.0442C32.663 20.26 30.486 21.7636 29.7679 22.2244C25.8223 24.951 21.9732 27.844 17.8133 30.2403C15.6884 31.4133 13.2118 30.4109 11.0879 29.7564C9.18353 28.9658 6.39293 28.1691 8.03494 26.9636L8.03513 26.9634Z" fill="white"/>
<defs>
<linearGradient id="paint0_linear_4008_123" x1="19.7907" y1="-25.4591" x2="-17.7936" y2="35.3075" gradientUnits="userSpaceOnUse">
<stop stop-color="#34B0DF"/>
<stop offset="1" stop-color="#1E88D3"/>
</linearGradient>
</defs>
</svg>
