<svg width="68" height="68" viewBox="0 0 68 68" fill="none" xmlns="http://www.w3.org/2000/svg">
<g clip-path="url(#clip0_89_1017)">
<path d="M49.9091 66.8662H20.3557C18.5027 66.8662 17 65.3635 17 63.5093V4.49074C17 2.6367 18.5027 1.13382 20.3557 1.13382H49.9092C51.7634 1.13382 53.2661 2.63657 53.2661 4.49074V63.5093C53.266 65.3635 51.7633 66.8662 49.9091 66.8662Z" fill="#FDCC00"/>
<path d="M17 57.7996H53.2661V7.93384H17V57.7996Z" fill="#6E9DB2"/>
<path d="M49.9117 1.13394H46.5117C48.3659 1.13394 49.8686 2.63669 49.8686 4.49086V63.5094C49.8686 65.3634 48.3659 66.8663 46.5117 66.8663H49.9117C51.7658 66.8663 53.2686 65.3636 53.2686 63.5094V4.49072C53.2686 2.63669 51.7658 1.13394 49.9117 1.13394Z" fill="#7EC0DD"/>
<path d="M20.3569 1.13394H23.7569C21.9028 1.13394 20.3999 2.63669 20.3999 4.49086V63.5094C20.3999 65.3634 21.9027 66.8663 23.7569 66.8663H20.3569C18.5029 66.8663 17 65.3636 17 63.5094V4.49072C17 2.63669 18.5027 1.13394 20.3569 1.13394Z" fill="white"/>
<path d="M63.4286 36.2667H47.6326L45.3659 41.9333L43.0992 36.2667C41.202 36.2667 39.6641 34.7288 39.6641 32.8316V17.0355C39.6641 15.1383 41.202 13.6003 43.0992 13.6003H63.4286C65.3258 13.6003 66.8638 15.1383 66.8638 17.0355V32.8317C66.8638 34.7288 65.3258 36.2667 63.4286 36.2667Z" fill="#00DA6C"/>
<path d="M4.56795 47.5998H20.3642L22.6308 53.2664L24.8975 47.5998C26.7947 47.5998 28.3327 46.0619 28.3327 44.1647V28.3686C28.3327 26.4714 26.7947 24.9334 24.8975 24.9334H4.56795C2.67076 24.9334 1.13281 26.4714 1.13281 28.3686V44.1648C1.13295 46.062 2.67076 47.5998 4.56795 47.5998Z" fill="#00DA6C"/>
<path d="M58.7368 24.0076C58.7051 21.3839 56.7694 19.2669 54.3815 19.2669C52.7847 19.2669 51.3918 20.2177 50.6325 21.6311C50.3707 21.5371 50.092 21.4849 49.8007 21.4849C48.5178 21.4849 47.4457 22.4788 47.1827 23.8071C46.0913 24.3839 45.332 25.6113 45.332 27.028C45.332 28.9932 46.7895 30.6002 48.5722 30.6002H55.2758C55.3133 30.6002 55.3506 30.5957 55.388 30.5945C55.4255 30.5957 55.4617 30.6002 55.4991 30.6002H58.1816C59.8408 30.6002 61.1985 29.1042 61.1985 27.2739C61.1984 25.6543 60.1331 24.2977 58.7368 24.0076Z" fill="#63D3FD"/>
<path d="M9.06641 43.0666H20.3995V35.1334H9.06641V43.0666Z" fill="#63D3FD"/>
<path d="M63.4312 13.6003H60.0312C61.9284 13.6003 63.4664 15.1383 63.4664 17.0355V32.8317C63.4664 34.7289 61.9284 36.2668 60.0312 36.2668H63.4312C65.3284 36.2668 66.8663 34.7289 66.8663 32.8317V17.0355C66.8663 15.1383 65.3284 13.6003 63.4312 13.6003Z" fill="#00AD55"/>
<path d="M4.56795 24.9279H7.9679C6.0707 24.9279 4.53276 26.4658 4.53276 28.363V44.1592C4.53276 46.0564 6.0707 47.5943 7.9679 47.5943H4.56795C2.67076 47.5943 1.13281 46.0564 1.13281 44.1592V28.3629C1.13295 26.4658 2.67076 24.9279 4.56795 24.9279Z" fill="white"/>
<path d="M38.5343 62.333C38.5343 64.2109 37.0123 65.7329 35.1343 65.7329C33.2564 65.7329 31.7344 64.2109 31.7344 62.333C31.7344 60.4551 33.2564 58.933 35.1343 58.933C37.0121 58.933 38.5343 60.4551 38.5343 62.333Z" fill="#6E9DB2"/>
<path d="M39.6671 5.66715H34.0005C33.3749 5.66715 32.8672 5.15941 32.8672 4.53388C32.8672 3.90834 33.3749 3.4006 34.0005 3.4006H39.6671C40.2938 3.4006 40.8004 3.90834 40.8004 4.53388C40.8004 5.15941 40.2938 5.66715 39.6671 5.66715Z" fill="black"/>
<path d="M30.6025 5.66718H29.4692C28.8437 5.66718 28.3359 5.15944 28.3359 4.53391C28.3359 3.90837 28.8437 3.40063 29.4692 3.40063H30.6025C31.228 3.40063 31.7358 3.90837 31.7358 4.53391C31.7358 5.15944 31.2282 5.66718 30.6025 5.66718Z" fill="black"/>
<path d="M15.8676 13.6003C15.2421 13.6003 14.7344 13.0926 14.7344 12.467V11.3338C14.7344 10.7082 15.2421 10.2005 15.8676 10.2005C16.4932 10.2005 17.0009 10.7082 17.0009 11.3338V12.467C17.0009 13.0926 16.4932 13.6003 15.8676 13.6003Z" fill="black"/>
<path d="M15.8676 18.1337C15.2421 18.1337 14.7344 17.6259 14.7344 17.0004V15.8671C14.7344 15.2416 15.2421 14.7339 15.8676 14.7339C16.4932 14.7339 17.0009 15.2416 17.0009 15.8671V17.0004C17.0009 17.6259 16.4932 18.1337 15.8676 18.1337Z" fill="black"/>
<path d="M35.1348 66.8662C32.6348 66.8662 30.6016 64.833 30.6016 62.333C30.6016 59.833 32.6348 57.7998 35.1348 57.7998C37.6348 57.7998 39.668 59.833 39.668 62.333C39.668 64.833 37.6348 66.8662 35.1348 66.8662ZM35.1348 60.0663C33.8848 60.0663 32.8681 61.0829 32.8681 62.333C32.8681 63.5831 33.8846 64.5997 35.1348 64.5997C36.3848 64.5997 37.4015 63.5831 37.4015 62.333C37.4015 61.0829 36.3848 60.0663 35.1348 60.0663Z" fill="black"/>
<path d="M45.3701 43.0666C44.9066 43.0666 44.4906 42.7843 44.3173 42.3538L42.3091 37.3298C40.1671 36.9536 38.5352 35.0791 38.5352 32.8317V17.0355C38.5352 14.516 40.5854 12.467 43.1036 12.467H63.433C65.9524 12.467 68.0014 14.516 68.0014 17.0355V32.8317C68.0014 35.3499 65.9512 37.4001 63.433 37.4001H48.404L46.423 42.3538C46.2508 42.7843 45.8336 43.0666 45.3701 43.0666ZM43.1036 14.7337C41.8343 14.7337 40.8018 15.7662 40.8018 17.0355V32.8317C40.8018 34.1009 41.8343 35.1334 43.1036 35.1334C43.5671 35.1334 43.983 35.4156 44.1564 35.8462L45.3701 38.8824L46.5839 35.8462C46.7561 35.4155 47.1731 35.1334 47.6367 35.1334H63.4329C64.7021 35.1334 65.7346 34.1009 65.7346 32.8317V17.0355C65.7346 15.7662 64.7021 14.7337 63.4329 14.7337H43.1036Z" fill="black"/>
<path d="M22.6322 54.3997C22.1687 54.3997 21.7528 54.1175 21.5794 53.6869L19.5972 48.7332H4.56841C2.049 48.7332 0 46.683 0 44.1648V28.3686C0 25.8492 2.049 23.8002 4.56841 23.8002H24.8978C27.4173 23.8002 29.4663 25.8492 29.4663 28.3686V44.1648C29.4663 46.4122 27.8343 48.2878 25.6923 48.664L23.6829 53.688C23.5117 54.1176 23.0947 54.3997 22.6322 54.3997ZM4.56948 26.0668C3.30021 26.0668 2.26774 27.0993 2.26774 28.3686V44.1648C2.26774 45.4341 3.30021 46.4665 4.56948 46.4665H20.3657C20.8292 46.4665 21.2452 46.7488 21.4185 47.1793L22.6322 50.2155L23.846 47.1793C24.0182 46.7486 24.4353 46.4665 24.8988 46.4665C26.168 46.4665 27.2005 45.4341 27.2005 44.1648V28.3686C27.2005 27.0993 26.168 26.0668 24.8988 26.0668H4.56948Z" fill="black"/>
<path d="M49.91 67.9995H20.3576C17.8814 67.9995 15.8675 65.9855 15.8675 63.5093V47.5998C15.8675 46.9731 16.3752 46.4665 17.0007 46.4665H20.3655C20.829 46.4665 21.246 46.7488 21.4183 47.1793L22.632 50.2155L23.8458 47.1793C24.018 46.7486 24.4351 46.4665 24.8986 46.4665C26.1678 46.4665 27.2003 45.4341 27.2003 44.1648V28.3686C27.2003 27.0993 26.1678 26.0669 24.8986 26.0669H17.0005C16.3749 26.0669 15.8672 25.5591 15.8672 24.9336V4.49074C15.8672 2.01449 17.8811 0.000549316 20.3574 0.000549316H49.9097C52.3859 0.000549316 54.3999 2.01449 54.3999 4.49074V13.6003C54.3999 14.2259 53.8933 14.7336 53.2666 14.7336H43.1022C41.833 14.7336 40.8005 15.7661 40.8005 17.0353V32.8315C40.8005 34.1008 41.833 35.1333 43.1022 35.1333C43.5657 35.1333 43.9817 35.4155 44.155 35.8461L45.3688 38.8823L46.5825 35.8461C46.7548 35.4154 47.1718 35.1333 47.6353 35.1333H53.2667C53.8935 35.1333 54.4 35.6398 54.4 36.2666V63.5092C54.4001 65.9855 52.3863 67.9995 49.91 67.9995ZM18.1341 48.7332V63.5094C18.1341 64.7357 19.1314 65.7329 20.3576 65.7329H49.91C51.1362 65.7329 52.1335 64.7357 52.1335 63.5094V37.4H48.4027L46.4217 42.3537C46.2494 42.7844 45.8324 43.0664 45.3689 43.0664C44.9054 43.0664 44.4894 42.7842 44.3161 42.3537L42.3079 37.3297C40.1659 36.9535 38.5339 35.079 38.5339 32.8315V17.0355C38.5339 14.5161 40.5841 12.4671 43.1024 12.4671H52.1337V4.49074C52.1337 3.2645 51.1365 2.26722 49.9102 2.26722H20.3576C19.1314 2.26722 18.1341 3.2645 18.1341 4.49074V23.8002H24.8988C27.4182 23.8002 29.4672 25.8492 29.4672 28.3686V44.1648C29.4672 46.4122 27.8353 48.2878 25.6945 48.664L23.6851 53.688C23.5128 54.1187 23.0958 54.4008 22.6323 54.4008C22.1688 54.4008 21.7518 54.1185 21.5795 53.688L19.5973 48.7343H18.1341V48.7332Z" fill="black"/>
<path d="M53.2669 58.933H17.0007C16.3752 58.933 15.8675 58.4265 15.8675 57.7998V47.5999C15.8675 46.9732 16.3752 46.4667 17.0007 46.4667H20.3655C20.829 46.4667 21.246 46.7489 21.4183 47.1795L22.632 50.2156L23.8458 47.1795C24.018 46.7487 24.4351 46.4667 24.8986 46.4667C26.1678 46.4667 27.2003 45.4342 27.2003 44.1649V28.3686C27.2003 27.0993 26.1678 26.0668 24.8986 26.0668H17.0005C16.3749 26.0668 15.8672 25.5591 15.8672 24.9336V7.93384C15.8672 7.3083 16.3749 6.80057 17.0005 6.80057H53.2666C53.8933 6.80057 54.3999 7.3083 54.3999 7.93384V13.6005C54.3999 14.226 53.8933 14.7337 53.2666 14.7337H43.1022C41.833 14.7337 40.8005 15.7662 40.8005 17.0355V32.8317C40.8005 34.1009 41.833 35.1334 43.1022 35.1334C43.5657 35.1334 43.9817 35.4156 44.155 35.8462L45.3688 38.8824L46.5825 35.8462C46.7548 35.4155 47.1718 35.1334 47.6353 35.1334H53.2667C53.8935 35.1334 54.4 35.64 54.4 36.2667V57.7996C54.4001 58.4264 53.8936 58.933 53.2669 58.933ZM18.1341 56.6664H52.1336V37.4H48.4027L46.4217 42.3537C46.2494 42.7844 45.8324 43.0664 45.3689 43.0664C44.9054 43.0664 44.4894 42.7842 44.3161 42.3537L42.3079 37.3297C40.1659 36.9535 38.5339 35.079 38.5339 32.8315V17.0355C38.5339 14.5161 40.5841 12.4671 43.1024 12.4671H52.1337V9.06711H18.1343V23.8002H24.899C27.4184 23.8002 29.4674 25.8492 29.4674 28.3686V44.1648C29.4674 46.4122 27.8354 48.2878 25.6946 48.664L23.6852 53.688C23.513 54.1187 23.0959 54.4008 22.6324 54.4008C22.1689 54.4008 21.7519 54.1185 21.5796 53.688L19.5974 48.7343H18.1343L18.1341 56.6664Z" fill="black"/>
<path d="M58.1859 31.7335H48.5766C46.1649 31.7335 44.2031 29.622 44.2031 27.028C44.2031 25.4357 44.9771 23.9397 46.2102 23.0795C46.7723 21.3728 48.3771 20.2201 50.1043 20.3641C51.1378 18.9712 52.7155 18.1337 54.3872 18.1337C57.1173 18.1337 59.4101 20.3301 59.8123 23.1736C61.3151 23.8626 62.3373 25.464 62.3373 27.2739C62.3351 29.7331 60.4729 31.7335 58.1859 31.7335ZM55.424 29.4611L58.1859 29.4668C59.2241 29.4668 60.0684 28.4831 60.0684 27.2738C60.0684 26.2289 59.3974 25.3018 58.5089 25.1171L57.6182 24.9313L57.6069 24.0201C57.5831 22.0243 56.1381 20.4003 54.3849 20.4003C53.2572 20.4003 52.2294 21.0611 51.6344 22.1671L51.1732 23.0273L50.2529 22.6976C49.4154 22.3938 48.4917 23.0353 48.2979 24.0258L48.1925 24.5561L47.7142 24.8089C46.956 25.2089 46.4665 26.0804 46.4665 27.0279C46.4665 28.3731 47.4117 29.4668 48.5733 29.4668L55.424 29.4611Z" fill="black"/>
<path d="M20.4 44.1998H9.06687C8.44133 44.1998 7.93359 43.6933 7.93359 43.0666V35.1334C7.93359 34.5079 8.44133 34.0001 9.06687 34.0001H20.4C21.0255 34.0001 21.5332 34.5079 21.5332 35.1334V43.0666C21.5334 43.6933 21.0256 44.1998 20.4 44.1998ZM10.2001 41.9333H19.2667V36.2667H10.2001V41.9333Z" fill="black"/>
<path d="M18.1358 35.1334H11.3359V32.8667C11.3359 30.9888 12.8579 29.4668 14.7359 29.4668C16.6138 29.4668 18.1358 30.9888 18.1358 32.8667V35.1334Z" fill="#63D3FD"/>
<path d="M19.2658 36.2667H10.1992V32.8667C10.1992 30.3667 12.2324 28.3335 14.7324 28.3335C17.2325 28.3335 19.2657 30.3667 19.2657 32.8667L19.2658 36.2667ZM12.4659 34H16.9991V32.8667C16.9991 31.6167 15.9826 30.6001 14.7324 30.6001C13.4823 30.6001 12.4658 31.6166 12.4658 32.8667L12.4659 34Z" fill="black"/>
</g>
<defs>
<clipPath id="clip0_89_1017">
<rect width="68" height="68" fill="white"/>
</clipPath>
</defs>
</svg>
