<svg width="68" height="68" viewBox="0 0 68 68" fill="none" xmlns="http://www.w3.org/2000/svg">
<path d="M48.7773 66.8665H19.223C17.37 66.8665 15.8672 65.3638 15.8672 63.5095V4.48925C15.8672 2.63516 17.37 1.13223 19.223 1.13223H48.7774C50.6317 1.13223 52.1345 2.63503 52.1345 4.48925V63.5097C52.1343 65.3638 50.6315 66.8665 48.7773 66.8665Z" fill="#83A045"/>
<path d="M15.8672 57.7999H52.1343V7.93236H15.8672V57.7999Z" fill="#DF6989"/>
<path d="M48.775 1.13223H45.375C47.2292 1.13223 48.732 2.63503 48.732 4.48925V63.5097C48.732 65.3638 47.2292 66.8667 45.375 66.8667H48.775C50.6293 66.8667 52.1321 65.3639 52.1321 63.5097V4.48925C52.1321 2.63503 50.6293 1.13223 48.775 1.13223Z" fill="#FFA800"/>
<path d="M19.2242 1.13223H22.6243C20.7702 1.13223 19.2672 2.63503 19.2672 4.48925V63.5097C19.2672 65.3638 20.77 66.8667 22.6243 66.8667H19.2242C17.3701 66.8667 15.8672 65.3639 15.8672 63.5097V4.48925C15.8673 2.63503 17.3701 1.13223 19.2242 1.13223Z" fill="white"/>
<path d="M16.9987 27.1994C24.5094 27.1994 30.5989 32.4762 30.5989 38.9863C30.5989 41.3856 29.7523 43.4709 28.3321 45.3331C28.5191 47.4841 29.0722 50.6576 30.5989 52.1332C30.5989 52.1332 25.824 51.7104 22.6654 49.8664C20.911 50.5816 19.0659 50.9997 16.9987 50.9997C9.48785 50.9997 3.39844 45.4962 3.39844 38.9863C3.39844 32.4762 9.48785 27.1994 16.9987 27.1994Z" fill="white"/>
<path d="M16.9986 27.1994C17.5755 27.1994 18.1411 27.2401 18.6987 27.3014C11.9915 28.0279 6.79849 32.9772 6.79849 38.9863C6.79849 44.9964 11.9926 50.1384 18.6999 50.8932C18.1468 50.9578 17.5836 50.9997 16.9986 50.9997C9.48785 50.9997 3.39844 45.4962 3.39844 38.9863C3.39844 32.4762 9.48785 27.1994 16.9986 27.1994Z" fill="white"/>
<path d="M50.9987 13.5992C43.488 13.5992 37.3984 18.876 37.3984 25.386C37.3984 27.7853 38.245 29.8707 39.6652 31.7329C39.4782 33.8839 38.9251 37.0574 37.3984 38.533C37.3984 38.533 42.1733 38.1102 45.3319 36.2662C47.0863 36.9814 48.9314 37.3995 50.9987 37.3995C58.5093 37.3995 64.5989 31.896 64.5989 25.386C64.5989 18.876 58.5093 13.5992 50.9987 13.5992Z" fill="white"/>
<path d="M50.9981 13.5992C50.4213 13.5992 49.8556 13.6399 49.2981 13.7012C56.0052 14.4276 61.1983 19.377 61.1983 25.386C61.1983 31.3962 56.0041 36.5382 49.2969 37.293C49.8499 37.3576 50.4132 37.3995 50.9981 37.3995C58.5088 37.3995 64.5983 31.896 64.5983 25.386C64.5983 18.876 58.5088 13.5992 50.9981 13.5992Z" fill="#D1D1D1"/>
<path d="M56.4716 24.0066C56.4399 21.3829 54.5041 19.2658 52.1161 19.2658C50.5193 19.2658 49.1263 20.2166 48.367 21.63C48.1053 21.536 47.8265 21.4838 47.5352 21.4838C46.2522 21.4838 45.1801 22.4778 44.9172 23.8061C43.8257 24.3829 43.0664 25.6104 43.0664 27.0271C43.0664 28.9924 44.5239 30.5994 46.3067 30.5994H53.0105C53.048 30.5994 53.0853 30.5949 53.1227 30.5937C53.1602 30.5949 53.1964 30.5994 53.2338 30.5994H55.9163C57.5756 30.5994 58.9334 29.1034 58.9334 27.2731C58.9332 25.6534 57.8679 24.2968 56.4716 24.0066Z" fill="#63D3FD"/>
<path d="M11.332 45.3329H22.6656V37.3995H11.332V45.3329Z" fill="#E4667F"/>
<path d="M20.3978 37.3995H13.5977V35.1328C13.5977 33.2548 15.1197 31.7327 16.9977 31.7327C18.8757 31.7327 20.3978 33.2548 20.3978 35.1328V37.3995Z" fill="#E4667F"/>
<path d="M37.3978 62.3332C37.3978 64.2112 35.8757 65.7333 33.9977 65.7333C32.1197 65.7333 30.5977 64.2112 30.5977 62.3332C30.5977 60.4552 32.1197 58.9332 33.9977 58.9332C35.8757 58.9332 37.3978 60.4552 37.3978 62.3332Z" fill="#DF6989"/>
<path d="M55.9168 31.7327H46.3072C43.8954 31.7327 41.9336 29.6212 41.9336 27.0271C41.9336 25.4348 42.7076 23.9388 43.9408 23.0785C44.5041 21.3717 46.1134 20.219 47.8351 20.363C48.8686 18.97 50.4463 18.1326 52.1181 18.1326C54.8484 18.1326 57.1411 20.3291 57.5434 23.1727C59.0462 23.8617 60.0685 25.4632 60.0685 27.2732C60.0661 29.7324 58.2039 31.7327 55.9168 31.7327ZM53.1548 29.4604L55.9168 29.4661C56.9551 29.4661 57.7994 28.4824 57.7994 27.2731C57.7994 26.2281 57.1284 25.301 56.2399 25.1163L55.3491 24.9305L55.3378 24.0193C55.314 22.0234 53.869 20.3994 52.1157 20.3994C50.988 20.3994 49.9601 21.0601 49.3651 22.1662L48.9038 23.0265L47.9836 22.6967C47.1438 22.3929 46.2235 23.0344 46.0285 24.025L45.9231 24.5553L45.4448 24.808C44.6866 25.2081 44.197 26.0796 44.197 27.0271C44.197 28.3724 45.1423 29.4661 46.3039 29.4661L53.1548 29.4604Z" fill="black"/>
<path d="M22.6661 46.4662H11.3325C10.707 46.4662 10.1992 45.9597 10.1992 45.3329V37.3995C10.1992 36.7728 10.707 36.2662 11.3325 36.2662H22.666C23.2915 36.2662 23.7993 36.7728 23.7993 37.3995V45.3329C23.7994 45.9597 23.2917 46.4662 22.6661 46.4662ZM12.466 44.1996H21.5328V38.5328H12.466V44.1996Z" fill="black"/>
<path d="M21.5316 38.5328H12.4648V35.1328C12.4648 32.6327 14.4981 30.5994 16.9982 30.5994C19.4983 30.5994 21.5316 32.6327 21.5316 35.1328V38.5328ZM14.7315 36.2661H19.2648V35.1328C19.2648 33.8827 18.2483 32.866 16.9981 32.866C15.7479 32.866 14.7313 33.8826 14.7313 35.1328L14.7315 36.2661Z" fill="black"/>
<path d="M38.5345 5.6656H32.8677C32.2421 5.6656 31.7344 5.15785 31.7344 4.53229C31.7344 3.90674 32.2421 3.39899 32.8677 3.39899H38.5345C39.1612 3.39899 39.6678 3.90674 39.6678 4.53229C39.6678 5.15785 39.1612 5.6656 38.5345 5.6656Z" fill="black"/>
<path d="M29.4658 5.6656H28.3325C27.707 5.6656 27.1992 5.15785 27.1992 4.53229C27.1992 3.90674 27.707 3.39899 28.3325 3.39899H29.4658C30.0914 3.39899 30.5991 3.90674 30.5991 4.53229C30.5991 5.15785 30.0914 5.6656 29.4658 5.6656Z" fill="black"/>
<path d="M14.731 13.5992C14.1054 13.5992 13.5977 13.0914 13.5977 12.4658V11.3325C13.5977 10.707 14.1054 10.1992 14.731 10.1992C15.3565 10.1992 15.8643 10.707 15.8643 11.3325V12.4658C15.8644 13.0914 15.3567 13.5992 14.731 13.5992Z" fill="black"/>
<path d="M14.731 18.1325C14.1054 18.1325 13.5977 17.6248 13.5977 16.9992V15.8659C13.5977 15.2403 14.1054 14.7326 14.731 14.7326C15.3565 14.7326 15.8643 15.2403 15.8643 15.8659V16.9992C15.8644 17.6248 15.3567 18.1325 14.731 18.1325Z" fill="black"/>
<path d="M14.731 22.6659C14.1054 22.6659 13.5977 22.1581 13.5977 21.5326V20.3993C13.5977 19.7737 14.1054 19.2659 14.731 19.2659C15.3565 19.2659 15.8643 19.7737 15.8643 20.3993V21.5326C15.8644 22.1581 15.3567 22.6659 14.731 22.6659Z" fill="black"/>
<path d="M33.9982 66.8666C31.4981 66.8666 29.4648 64.8333 29.4648 62.3332C29.4648 59.8331 31.4981 57.7998 33.9982 57.7998C36.4983 57.7998 38.5316 59.8331 38.5316 62.3332C38.5316 64.8334 36.4983 66.8666 33.9982 66.8666ZM33.9982 60.0664C32.7482 60.0664 31.7315 61.083 31.7315 62.3332C31.7315 63.5832 32.748 64.5999 33.9982 64.5999C35.2483 64.5999 36.2649 63.5834 36.2649 62.3332C36.2649 61.0831 35.2483 60.0664 33.9982 60.0664Z" fill="black"/>
<path d="M37.3991 39.6661C36.9582 39.6661 36.5536 39.4089 36.3689 39.0031C36.1683 38.5668 36.2657 38.0511 36.6114 37.7179C37.5328 36.8271 38.2129 34.7768 38.4961 32.0556C37.0159 29.9816 36.2657 27.7398 36.2657 25.3847C36.2657 18.2604 42.8753 12.4645 50.9992 12.4645C59.123 12.4645 65.7327 18.2605 65.7327 25.3847C65.7327 32.6336 59.123 38.5316 50.9992 38.5316C49.0849 38.5316 47.2523 38.1984 45.4141 37.5139C42.1092 39.2366 37.6937 39.6434 37.4987 39.6616C37.4659 39.6651 37.4319 39.6661 37.3991 39.6661ZM50.9993 14.7325C44.1255 14.7325 38.5324 19.5118 38.5324 25.3859C38.5324 27.3987 39.1977 29.2507 40.5667 31.0458C40.7379 31.2703 40.8195 31.5501 40.7945 31.8313C40.6551 33.4395 40.3435 35.3968 39.6645 37.0401C41.207 36.7307 43.2153 36.1901 44.7611 35.288C45.0649 35.1101 45.4354 35.084 45.7596 35.2166C47.4926 35.9226 49.2062 36.2661 50.9992 36.2661C57.7573 36.2661 63.4661 31.2839 63.4661 25.3859C63.4662 19.5118 57.8731 14.7325 50.9993 14.7325Z" fill="black"/>
<path d="M30.5995 53.2664C30.5666 53.2664 30.5326 53.2652 30.4986 53.2618C30.3036 53.2438 25.888 52.8368 22.5832 51.1141C20.746 51.7986 18.9134 52.1318 16.9991 52.1318C8.87527 52.1318 2.26562 46.235 2.26562 38.9849C2.26562 31.8606 8.87527 26.0647 16.9991 26.0647C25.123 26.0647 31.7327 31.8608 31.7327 38.9849C31.7327 41.34 30.9824 43.5818 29.5022 45.6558C29.7855 48.3759 30.4655 50.4261 31.3869 51.3169C31.7327 51.6501 31.8301 52.1657 31.6307 52.6021C31.445 53.0091 31.0403 53.2664 30.5995 53.2664ZM22.6661 48.733C22.8644 48.733 23.0616 48.7851 23.2373 48.8883C24.7833 49.7903 26.7904 50.3298 28.3351 50.6393C27.6563 48.997 27.3434 47.0397 27.2041 45.4315C27.1803 45.1504 27.2608 44.8705 27.4319 44.646C28.8009 42.8508 29.4662 41 29.4662 38.9872C29.4662 33.1119 23.8731 28.3337 16.9993 28.3337C10.1255 28.3337 4.53237 33.1131 4.53237 38.9872C4.53237 44.884 10.2422 49.8674 16.9993 49.8674C18.7923 49.8674 20.5058 49.5239 22.2387 48.8179C22.3759 48.7602 22.5209 48.733 22.6661 48.733Z" fill="black"/>
<path d="M48.7752 68H19.222C16.7457 68 14.7317 65.986 14.7317 63.5097V50.9475C14.7317 50.6325 14.8632 50.3321 15.0932 50.118C15.3244 49.9037 15.6304 49.7938 15.9477 49.8177C18.0512 49.9717 20.1615 49.6624 22.2368 48.8169C22.5632 48.6844 22.9315 48.7104 23.2353 48.8884C24.7812 49.7905 26.7883 50.3299 28.3331 50.6394C27.6543 48.9972 27.3413 47.0399 27.202 45.4316C27.1783 45.1506 27.2587 44.8706 27.4298 44.6461C28.7989 42.8509 29.4641 41.0001 29.4641 38.9873C29.4641 33.112 23.871 28.3339 16.9972 28.3339C16.6425 28.3339 16.2934 28.3554 15.9455 28.3814C15.6225 28.4019 15.3222 28.2942 15.092 28.0799C14.8618 27.8657 14.7305 27.5654 14.7305 27.2504V4.49033C14.7306 2.014 16.7446 0 19.2209 0H48.7742C51.2505 0 53.2645 2.014 53.2645 4.49033V13.65C53.2645 13.9651 53.1342 14.2655 52.903 14.4796C52.6729 14.6938 52.3635 14.7993 52.0495 14.7811C51.7015 14.7561 51.3537 14.7335 50.9978 14.7335C44.1239 14.7335 38.5308 19.5128 38.5308 25.387C38.5308 27.3998 39.1961 29.2517 40.5652 31.0469C40.7364 31.2713 40.8179 31.5512 40.7929 31.8323C40.6535 33.4406 40.3419 35.3979 39.663 37.0412C41.2055 36.7317 43.2138 36.1912 44.7596 35.2891C45.0633 35.1111 45.4339 35.0851 45.7581 35.2176C47.8344 36.0642 49.9481 36.3726 52.0482 36.2184C52.3622 36.1912 52.6727 36.3034 52.9027 36.5187C53.1339 36.7329 53.2642 37.0332 53.2642 37.3483V63.5106C53.2657 65.986 51.2517 68 48.7752 68ZM16.9984 52.133V63.5097C16.9984 64.7359 17.9957 65.7333 19.222 65.7333H48.7752C50.0015 65.7333 50.9988 64.7359 50.9988 63.5097V38.5328C49.0846 38.5328 47.252 38.1996 45.4137 37.5151C42.1089 39.2378 37.6933 39.6446 37.4983 39.6628C37.0258 39.7116 36.5668 39.4418 36.3684 39.0043C36.1678 38.568 36.2652 38.0523 36.6109 37.7191C37.5323 36.8283 38.2124 34.778 38.4956 32.0568C37.0154 29.9828 36.2652 27.741 36.2652 25.3859C36.2652 18.2616 42.8748 12.4657 50.9987 12.4657V4.48926C50.9987 3.26299 50.0014 2.26568 48.7751 2.26568H19.2221C17.9958 2.26568 16.9985 3.26299 16.9985 4.48926V26.0661C25.1224 26.0661 31.7321 31.8621 31.7321 38.9863C31.7321 41.3413 30.9818 43.5831 29.5016 45.6571C29.7849 48.3772 30.4649 50.4274 31.3863 51.3182C31.7321 51.6515 31.8295 52.167 31.6301 52.6035C31.4306 53.041 30.9795 53.3073 30.499 53.262C30.304 53.2439 25.8885 52.837 22.5837 51.1142C20.7452 51.7998 18.9127 52.133 16.9984 52.133Z" fill="black"/>
<path d="M52.1321 58.9331H15.865C15.2394 58.9331 14.7317 58.4266 14.7317 57.7998V50.9477C14.7317 50.6326 14.8632 50.3322 15.0932 50.1181C15.3244 49.9039 15.6304 49.7939 15.9477 49.8178C18.0512 49.9719 20.1615 49.6626 22.2368 48.8171C22.5632 48.6845 22.9315 48.7105 23.2353 48.8885C24.7812 49.7906 26.7883 50.3301 28.3331 50.6395C27.6543 48.9973 27.3413 47.04 27.202 45.4317C27.1783 45.1507 27.2587 44.8707 27.4298 44.6463C28.7989 42.851 29.4641 41.0003 29.4641 38.9874C29.4641 33.1121 23.871 28.334 16.9972 28.334C16.6425 28.334 16.2934 28.3555 15.9455 28.3815C15.6225 28.402 15.3222 28.2943 15.092 28.0801C14.8618 27.8658 14.7305 27.5655 14.7305 27.2505V7.93235C14.7305 7.30679 15.2382 6.79904 15.8638 6.79904H52.1311C52.7578 6.79904 53.2644 7.30679 53.2644 7.93235V13.649C53.2644 13.964 53.1341 14.2644 52.9028 14.4785C52.6728 14.6927 52.3633 14.7982 52.0494 14.78C51.7014 14.755 51.3536 14.7325 50.9976 14.7325C44.1238 14.7325 38.5307 19.5118 38.5307 25.3859C38.5307 27.3987 39.196 29.2507 40.565 31.0458C40.7362 31.2703 40.8178 31.5501 40.7928 31.8313C40.6534 33.4395 40.3418 35.3968 39.6628 37.0401C41.2053 36.7307 43.2136 36.1901 44.7595 35.288C45.0632 35.1101 45.4338 35.084 45.758 35.2166C47.8342 36.0631 49.948 36.3715 52.048 36.2173C52.362 36.1901 52.6725 36.3023 52.9026 36.5176C53.1338 36.7319 53.2641 37.0322 53.2641 37.3472V57.7996C53.2656 58.4266 52.7589 58.9331 52.1321 58.9331ZM16.9983 56.6664H50.9988V38.5328C49.0846 38.5328 47.252 38.1996 45.4137 37.5151C42.1089 39.2378 37.6933 39.6446 37.4983 39.6628C37.0258 39.7116 36.5668 39.4418 36.3684 39.0043C36.1678 38.568 36.2652 38.0523 36.6109 37.7191C37.5323 36.8283 38.2124 34.778 38.4956 32.0568C37.0154 29.9828 36.2652 27.741 36.2652 25.3859C36.2652 18.2616 42.8748 12.4657 50.9987 12.4657V9.06566H16.9981V26.0659C25.122 26.0659 31.7317 31.8619 31.7317 38.9861C31.7317 41.3412 30.9814 43.583 29.5012 45.657C29.7845 48.377 30.4645 50.4273 31.3859 51.3181C31.7317 51.6513 31.8292 52.1669 31.6297 52.6033C31.4302 53.0408 30.9791 53.3071 30.4986 53.2618C30.3036 53.2438 25.8881 52.8368 22.5833 51.1141C20.746 51.7986 18.9135 52.1318 16.9992 52.1318V56.6664H16.9983Z" fill="black"/>
</svg>
