<svg width="124" height="166" viewBox="0 0 124 166" fill="none" xmlns="http://www.w3.org/2000/svg">
<path d="M81.7287 133.582C81.9247 124.631 89.3403 117.533 98.2921 117.729C107.244 117.924 114.342 125.34 114.146 134.292C113.95 143.244 106.534 150.342 97.5826 150.146C88.6308 149.95 81.5328 142.534 81.7287 133.582Z" fill="url(#paint0_linear_4018_245)"/>
<path d="M108.768 145.61C108.178 145.594 107.636 146.099 107.608 146.678L107.608 146.68C107.58 147.208 108.011 147.728 108.689 147.752C109.33 147.774 109.755 147.362 109.774 146.766L109.774 146.764C109.797 146.1 109.314 145.624 108.768 145.61ZM113.327 149.625L113.309 149.873C113.276 150.125 113.194 150.388 113.033 150.633C112.814 150.966 112.502 151.186 112.162 151.316C111.806 151.451 111.402 151.49 111.005 151.369C110.795 151.305 110.608 151.201 110.447 151.069C108.062 152.002 105.23 150.819 104.3 148.399L104.213 148.156C103.394 145.634 104.84 142.926 107.42 142.176C110.008 141.425 112.58 142.926 113.244 145.507L113.302 145.761L113.355 146.096C113.394 146.426 113.394 146.736 113.386 146.999C113.375 147.397 113.355 147.614 113.364 147.846L113.365 147.878L113.327 149.625Z" fill="#E23434" stroke="white" stroke-width="2"/>
<path d="M86.4721 133.371C88.4826 132.317 90.72 131.45 92.812 130.575C96.4094 129.145 100.02 127.742 103.665 126.442C104.374 126.222 105.642 126.02 105.743 127.068C105.643 128.546 105.332 130.01 105.108 131.477C104.552 134.701 103.919 137.911 103.301 141.123C103.089 142.193 101.735 142.719 100.892 142.013C98.8601 140.571 96.8119 139.142 94.8068 137.668C94.1547 136.974 94.7946 136.011 95.4009 135.539C97.1366 133.897 98.9694 132.51 100.618 130.78C101.075 129.737 99.7728 130.596 99.3436 130.858C96.9827 132.414 94.6765 134.07 92.1935 135.429C90.9259 136.093 89.479 135.47 88.2355 135.057C87.1232 134.566 85.4885 134.06 86.472 133.371L86.4721 133.371Z" fill="white"/>
<path d="M30.5308 68.6997C22.8666 47.3925 33.9264 23.9066 55.2336 16.2423C76.5408 8.57813 100.027 19.6379 107.691 40.9451C115.355 62.2523 104.295 85.7382 82.9882 93.4025C61.681 101.067 38.1951 90.0069 30.5308 68.6997Z" fill="url(#paint1_linear_4018_245)"/>
<path d="M105.095 72.0436C103.419 72.6385 102.453 74.6142 103.001 76.2816L103.002 76.2853C103.517 77.8612 105.324 78.817 107.201 78.1699C109.005 77.5477 109.789 75.8937 109.196 74.1841L109.195 74.1805C108.558 72.3342 106.692 71.4776 105.095 72.0436ZM119.18 78.0643C119.436 78.7631 119.565 79.5692 119.382 80.4127C119.195 81.2723 118.726 81.9806 118.108 82.5346L118.107 82.5358C117.464 83.1125 116.653 83.5128 115.741 83.5769C115.154 83.6182 114.588 83.5141 114.071 83.2944C109.521 87.6957 101.911 87.5511 97.6485 82.8263L97.6491 82.8251C93.1586 77.8553 93.9499 70.142 99.2917 66.0816L99.5444 65.8953C104.874 62.0601 112.089 63.4615 115.663 69.065L115.664 69.0659C116.26 70.0019 116.645 70.9789 116.935 71.805C117.257 72.7205 117.421 73.2967 117.663 73.8597L117.687 73.9153L119.18 78.0643Z" fill="#E23434" stroke="white" stroke-width="4"/>
<path d="M41.5347 63.8946C45.3235 59.5822 49.8173 55.5039 53.9607 51.5392C61.154 44.899 68.4033 38.3088 75.8261 31.9311C77.2988 30.7697 80.1098 29.1408 81.2995 31.5223C82.4046 35.1016 82.9994 38.8412 83.803 42.5057C85.4155 50.6199 86.8382 58.7726 88.2946 66.9144C88.7648 69.6318 86.0479 72.1032 83.4167 71.2024C77.311 69.643 71.1791 68.1293 65.1083 66.4701C62.9387 65.4235 63.5753 62.5706 64.5778 60.9053C67.184 55.4547 70.2511 50.517 72.5717 44.9358C72.7051 42.0608 70.4095 45.2691 69.6345 46.278C65.4747 52.0946 61.5345 58.0961 56.9073 63.5575C54.518 66.2756 50.5375 66.1191 47.2273 66.2727C44.1564 66.1244 39.8391 66.4151 41.5345 63.895L41.5347 63.8946Z" fill="white"/>
<path d="M9.90612 140.585C5.24009 127.613 11.9734 113.314 24.9454 108.648C37.9173 103.982 52.2158 110.715 56.8818 123.687C61.5478 136.659 54.8145 150.958 41.8426 155.624C28.8706 160.29 14.5722 153.557 9.90612 140.585Z" fill="url(#paint2_linear_4018_245)"/>
<path d="M55.3116 142.651C54.3081 143.007 53.7292 144.193 54.0574 145.191L54.058 145.193C54.3653 146.133 55.4464 146.708 56.573 146.319C57.6549 145.946 58.1232 144.957 57.7679 143.934L57.767 143.931C57.3847 142.823 56.2657 142.312 55.3116 142.651ZM63.9069 146.275L63.9617 146.439C64.0811 146.829 64.13 147.266 64.0312 147.722C63.9159 148.253 63.626 148.691 63.2456 149.032C62.8492 149.387 62.3488 149.635 61.7851 149.675C61.429 149.7 61.0856 149.639 60.7714 149.508C57.9868 152.184 53.3476 152.091 50.7447 149.207L50.4964 148.918C48.0297 145.875 48.5834 141.371 51.7485 138.965L51.7494 138.965C55.0227 136.479 59.542 137.309 61.7628 140.79C62.128 141.363 62.3633 141.961 62.5405 142.464C62.7373 143.024 62.8354 143.371 62.9822 143.713L62.9982 143.748L63.9069 146.275Z" fill="#E23434" stroke="white" stroke-width="2.5"/>
<path d="M16.6052 137.659C18.9118 135.034 21.6478 132.551 24.1703 130.137C28.5496 126.095 32.963 122.082 37.4821 118.2C38.3787 117.493 40.0901 116.501 40.8144 117.951C41.4871 120.13 41.8493 122.407 42.3385 124.638C43.3202 129.578 44.1864 134.541 45.073 139.498C45.3593 141.152 43.7052 142.657 42.1033 142.108C38.3861 141.159 34.653 140.237 30.957 139.227C29.6362 138.59 30.0237 136.853 30.634 135.839C32.2207 132.521 34.088 129.515 35.5008 126.117C35.582 124.367 34.1844 126.32 33.7126 126.934C31.1801 130.475 28.7812 134.129 25.9642 137.454C24.5096 139.109 22.0862 139.014 20.0709 139.107C18.2013 139.017 15.5729 139.194 16.6051 137.66L16.6052 137.659Z" fill="white"/>
<defs>
<linearGradient id="paint0_linear_4018_245" x1="94.0776" y1="102.622" x2="71.1395" y2="137.956" gradientUnits="userSpaceOnUse">
<stop stop-color="#34B0DF"/>
<stop offset="1" stop-color="#1E88D3"/>
</linearGradient>
<linearGradient id="paint1_linear_4018_245" x1="31.5719" y1="-15.5876" x2="9.50735" y2="88.6365" gradientUnits="userSpaceOnUse">
<stop stop-color="#34B0DF"/>
<stop offset="1" stop-color="#1E88D3"/>
</linearGradient>
<linearGradient id="paint2_linear_4018_245" x1="10.5399" y1="89.2699" x2="-2.89315" y2="152.722" gradientUnits="userSpaceOnUse">
<stop stop-color="#34B0DF"/>
<stop offset="1" stop-color="#1E88D3"/>
</linearGradient>
</defs>
</svg>
