<svg width="77" height="71" viewBox="0 0 77 71" fill="none" xmlns="http://www.w3.org/2000/svg">
<path d="M7.58329 29.2982C6.41665 30.0721 5.69224 31.5127 5.07921 32.7593C4.0487 34.643 3.38039 35.8063 2.21539 35.8591L2.21127 37.6619C4.59653 37.6396 5.68315 35.4788 6.63033 33.6504C7.66084 31.7668 8.32915 30.6035 9.49415 30.5507C10.7144 30.5812 11.433 31.6645 12.3439 33.5803C13.3381 35.4408 14.4981 37.5514 16.8001 37.5844C19.1853 37.5621 20.272 35.4012 21.2192 33.5729C22.2497 31.6893 22.918 30.5259 24.083 30.4731C25.3032 30.5037 26.0219 31.587 26.9327 33.5028C27.9269 35.3633 29.087 37.4738 31.3889 37.5068C33.7742 37.4846 34.8608 35.3237 35.808 33.4954C36.8385 31.6117 37.5068 30.4484 38.6718 30.3956C39.8921 30.4261 40.6107 31.5094 41.5216 33.4252C42.5158 35.2858 43.6758 37.3963 45.9778 37.4293C48.363 37.407 49.4496 35.2462 50.3968 33.4179C51.4273 31.5342 52.0956 30.3709 53.2606 30.3181C54.4809 30.3486 55.1995 31.4319 56.1104 33.3477C57.1046 35.2082 58.2647 37.3188 60.5666 37.3518C62.9519 37.3295 64.0385 35.1687 64.9856 33.3403C66.0162 31.4567 66.6845 30.2933 67.8495 30.2405C69.0698 30.2711 69.7884 31.3544 70.7826 33.2149C71.7768 35.0754 72.9368 37.1859 75.2388 37.219L75.2429 35.4162C74.0226 35.3857 73.304 34.3023 72.3098 32.4418C71.3156 30.5813 70.1556 28.4708 67.8536 28.4378C65.4683 28.46 64.3817 30.6209 63.4345 32.4492C62.404 34.3329 61.7357 35.4962 60.5707 35.549C59.3505 35.5185 58.6318 34.4351 57.7209 32.5193C56.7267 30.6588 55.5667 28.5483 53.2648 28.5153C50.8795 28.5376 49.7929 30.6984 48.8457 32.5268C47.8152 34.4104 47.1469 35.5737 45.9819 35.6265C44.7616 35.596 44.043 34.5127 43.1321 32.5969C42.1379 30.7363 40.9779 28.6258 38.6759 28.5928C36.2907 28.6151 35.204 30.7759 34.2569 32.6043C33.2264 34.4879 32.558 35.6513 31.3931 35.7041C30.1728 35.6735 29.4541 34.5902 28.5433 32.6744C27.5491 30.8139 26.389 28.7034 24.0871 28.6704C21.7018 28.6926 20.6152 30.8535 19.668 32.6818C18.6375 34.5655 17.9692 35.7288 16.8042 35.7816C15.5839 35.7511 14.8653 34.6677 13.9544 32.7519C12.9602 30.8914 11.8002 28.7809 9.49827 28.7479C8.69383 28.8015 8.08329 28.9665 7.58329 29.2982Z" fill="#C94EE5" fill-opacity="0.1"/>
</svg>
